SplineFontDB: 3.2
FontName: ChromFixed-Bold
FullName: Chrom Fixed Bold
FamilyName: Chrom Fixed
Weight: Bold
Copyright: Copyright 2014 PDFium Authors. All rights reserved. See LICENSE_FOXIT for details.
Version: 001.001
ItalicAngle: 0
UnderlinePosition: -100
UnderlineWidth: 50
Ascent: 800
Descent: 200
InvalidEm: 0
sfntRevision: 0x00000000
LayerCount: 2
Layer: 0 0 "Back" 1
Layer: 1 0 "Fore" 0
StyleMap: 0x0000
FSType: 0
OS2Version: 0
OS2_WeightWidthSlopeOnly: 0
OS2_UseTypoMetrics: 0
CreationTime: 0
ModificationTime: 1757284879
OS2TypoAscent: 0
OS2TypoAOffset: 0
OS2TypoDescent: 0
OS2TypoDOffset: 0
OS2TypoLinegap: 0
OS2WinAscent: 0
OS2WinAOffset: 0
OS2WinDescent: 0
OS2WinDOffset: 0
HheadAscent: 0
HheadAOffset: 0
HheadDescent: 0
HheadDOffset: 0
DEI: 91125
Encoding: AdobeStandard
UnicodeInterp: none
NameList: AGL For New Fonts
DisplaySize: -48
AntiAlias: 1
FitToEm: 0
BeginPrivate: 6
BlueValues 39 [-18 0 439 459 562 580 600 610 620 630]
OtherBlues 11 [-146 -142]
BlueScale 1 0
StdHW 4 [93]
StdVW 4 [93]
ForceBold 4 true
EndPrivate
BeginChars: 350 243

StartChar: exclam
Encoding: 33 33 1
Width: 600
Flags: HMW
HStem: -15 157<273 327> 554 20G
VStem: 234 131
LayerCount: 2
Fore
SplineSet
202 64 m 0
 202 108 246 142 300 142 c 0
 354 142 398 108 398 64 c 0
 398 20 354 -15 300 -15 c 0
 246 -15 202 20 202 64 c 0
245 183 m 1
 224 572 l 1
 375 572 l 1
 355 183 l 1
 245 183 l 1
EndSplineSet
EndChar

StartChar: quotedbl
Encoding: 34 34 2
Width: 600
Flags: HMW
HStem: 271 21G 542 20G<135 278 278 278 323 465 465 465>
VStem: 148 114<277 277> 337 113<277 277>
LayerCount: 2
Fore
SplineSet
148 277 m 1
 135 562 l 1
 278 562 l 1
 262 277 l 1
 148 277 l 1
337 277 m 1
 323 562 l 1
 465 562 l 1
 450 277 l 1
 337 277 l 1
EndSplineSet
EndChar

StartChar: numbersign
Encoding: 35 35 3
Width: 600
Flags: HMW
HStem: -66 21G 159 91<56 151 56 156 56 239 245 344 441 544> 354 91<56 163 56 168 56 253 259 355 453 544> 617 20G
VStem: 144 88 336 92
LayerCount: 2
Fore
SplineSet
245 250 m 1
 349 250 l 1
 355 354 l 1
 253 354 l 1
 245 250 l 1
137 -45 m 1
 151 159 l 1
 56 159 l 1
 56 250 l 1
 156 250 l 1
 163 354 l 1
 56 354 l 1
 56 445 l 1
 168 445 l 1
 177 651 l 1
 266 651 l 1
 259 445 l 1
 362 445 l 1
 370 651 l 1
 460 651 l 1
 453 445 l 1
 544 445 l 1
 544 354 l 1
 447 354 l 1
 441 250 l 1
 544 250 l 1
 544 159 l 1
 435 159 l 1
 422 -45 l 1
 329 -45 l 1
 344 159 l 1
 239 159 l 1
 226 -45 l 1
 137 -45 l 1
EndSplineSet
EndChar

StartChar: dollar
Encoding: 36 36 4
Width: 600
Flags: HMW
HStem: -126 21G<249 349 249 249> 1 192<81 181 81 181> 387 191<401 500 401 500> 471 195<278.5 312.5>
VStem: 85 100<382 435.5 382 462.5> 249 100<-126 18 -126 19 -126 19 565 666> 401 99<387 446 446 446 547 578 387 578> 419 99<145 198.5>
LayerCount: 2
Fore
SplineSet
81 1 m 1
 81 193 l 1
 181 193 l 1
 181 135 l 1
 216 120 252 114 289 114 c 0
 317 114 419 118 419 172 c 0
 419 225 333 233 290 244 c 0
 168 278 85 299 85 405 c 0
 85 520 180 556 249 565 c 1
 249 666 l 1
 349 666 l 1
 349 564 l 1
 368 561 385 555 401 547 c 1
 401 578 l 1
 500 578 l 1
 500 387 l 1
 401 387 l 1
 401 446 l 1
 368 461 331 471 294 471 c 0
 263 471 185 462 185 409 c 0
 185 355 286 337 327 325 c 0
 434 297 518 278 518 174 c 0
 518 47 387 25 349 18 c 1
 349 -126 l 1
 249 -126 l 1
 249 19 l 1
 228 19 201 24 181 31 c 1
 181 1 l 1
 81 1 l 1
EndSplineSet
EndChar

StartChar: percent
Encoding: 37 37 5
Width: 600
Flags: HMW
HStem: -15 21G<394 433.5> 188 70 340 69<204 222 180.5 244> 545 71<180.5 227.5>
VStem: 60 71<460 495.5 460 513> 248 71<106 141 106 159.5> 280 70<455 496> 468 71<100.5 141.5>
LayerCount: 2
Fore
SplineSet
104 164 m 1
 75 225 l 1
 510 439 l 1
 538 371 l 1
 104 164 l 1
319 124 m 0
 319 88 347 56 393 56 c 0
 431 56 468 77 468 124 c 0
 468 159 440 192 394 192 c 0
 346 192 319 158 319 124 c 0
248 123 m 0
 248 196 311 262 396 262 c 0
 482 262 539 195 539 124 c 0
 539 43 473 -15 394 -15 c 0
 306 -14 248 51 248 123 c 0
131 478 m 0
 131 442 158 409 203 409 c 0
 241 409 280 432 280 478 c 0
 280 514 251 545 204 545 c 0
 157 545 131 513 131 478 c 0
60 477 m 0
 60 549 121 616 206 616 c 0
 293 616 350 548 350 478 c 0
 350 398 284 340 204 340 c 0
 116 341 60 404 60 477 c 0
EndSplineSet
EndChar

StartChar: ampersand
Encoding: 38 38 6
Width: 600
Flags: HMW
HStem: -15 92<188.5 231.5 188.5 254> -3 93<435 555 435 555 392 555> 208 93<452 535 452 452> 449 94<250.5 289>
VStem: 45 97<134 171.5 134 179> 107 97<396.5 423.5 396.5 456.5>
LayerCount: 2
Fore
SplineSet
205 234 m 1
 180 219 142 194 142 149 c 0
 142 119 161 77 216 77 c 0
 247 77 277 91 297 114 c 1
 205 234 l 1
155 304 m 1
 154 306 l 2
 146 322 107 361 107 410 c 0
 107 503 185 543 268 543 c 0
 328 543 392 516 429 476 c 1
 374 407 l 1
 361 425 310 449 268 449 c 0
 233 449 204 439 204 408 c 0
 204 385 242 335 257 315 c 2
 348 194 l 1
 363 220 383 277 388 301 c 1
 535 301 l 1
 535 208 l 1
 452 208 l 1
 439 177 427 144 407 115 c 1
 435 90 l 1
 555 90 l 1
 555 -3 l 1
 392 -3 l 1
 352 37 l 1
 328 19 294 -15 214 -15 c 0
 95 -15 45 75 45 144 c 0
 45 214 93 274 155 304 c 1
EndSplineSet
EndChar

StartChar: quotesingle
Encoding: 169 39 7
Width: 600
Flags: HMW
HStem: 277 21G<240 240 240 359> 542 20G<227 373 373 373>
VStem: 233 133
LayerCount: 2
Fore
SplineSet
240 277 m 1
 227 562 l 1
 373 562 l 1
 359 277 l 1
 240 277 l 1
EndSplineSet
EndChar

StartChar: parenleft
Encoding: 40 40 8
Width: 600
Flags: HMW
HStem: -102 21G<319 319 319 421> 596 20G<323 421 421 421>
VStem: 179 109<231.5 356.5>
LayerCount: 2
Fore
SplineSet
319 -102 m 1
 200 58 179 166 179 297 c 0
 179 416 234 516 323 616 c 1
 421 616 l 1
 345 502 288 449 288 298 c 0
 288 108 365 -15 421 -102 c 1
 319 -102 l 1
EndSplineSet
EndChar

StartChar: parenright
Encoding: 41 41 9
Width: 600
Flags: HMW
HStem: -102 21G<179 179 179 281> 596 20G<179 277 277 277>
VStem: 312 109<231.5 356.5 231.5 373.5>
LayerCount: 2
Fore
SplineSet
179 -102 m 1
 235 -15 312 108 312 298 c 0
 312 449 255 502 179 616 c 1
 277 616 l 1
 366 516 421 416 421 297 c 0
 421 166 400 58 281 -102 c 1
 179 -102 l 1
EndSplineSet
EndChar

StartChar: asterisk
Encoding: 42 42 10
Width: 600
Flags: HMW
VStem: 250 102
LayerCount: 2
Fore
SplineSet
142 280 m 1
 231 384 l 1
 91 417 l 1
 127 516 l 1
 254 468 l 1
 246 601 l 1
 357 601 l 1
 347 466 l 1
 475 516 l 1
 509 418 l 1
 372 384 l 1
 460 281 l 1
 376 220 l 1
 301 339 l 1
 226 219 l 1
 142 280 l 1
EndSplineSet
EndChar

StartChar: plus
Encoding: 43 43 11
Width: 600
Flags: HMW
HStem: 39 21G<251 349 251 251> 212 94<71 251 71 251 349 529> 458 20G<251 349 349 349>
VStem: 251 98<39 212 39 212 306 478>
LayerCount: 2
Fore
SplineSet
71 212 m 1
 71 306 l 1
 251 306 l 1
 251 478 l 1
 349 478 l 1
 349 306 l 1
 529 306 l 1
 529 212 l 1
 349 212 l 1
 349 39 l 1
 251 39 l 1
 251 212 l 1
 71 212 l 1
EndSplineSet
EndChar

StartChar: comma
Encoding: 44 44 12
Width: 600
Flags: HMW
HStem: -111 21G<165 165 165 293> 154 20G<266 435 435 435>
LayerCount: 2
Fore
SplineSet
165 -111 m 1
 266 174 l 1
 435 174 l 1
 293 -111 l 1
 165 -111 l 1
EndSplineSet
EndChar

StartChar: hyphen
Encoding: 45 45 13
Width: 600
Flags: HMW
HStem: 203 110<100 500 100 500>
VStem: 100 400<203 313 203 313>
LayerCount: 2
Fore
SplineSet
100 203 m 1
 100 313 l 1
 500 313 l 1
 500 203 l 1
 100 203 l 1
EndSplineSet
EndChar

StartChar: period
Encoding: 46 46 14
Width: 600
Flags: HMW
HStem: -15 186<270.5 329.5>
VStem: 192 216<52.5 103.5>
LayerCount: 2
Fore
SplineSet
192 78 m 0
 192 129 241 171 300 171 c 0
 359 171 408 129 408 78 c 0
 408 27 359 -15 300 -15 c 0
 241 -15 192 27 192 78 c 0
EndSplineSet
EndChar

StartChar: slash
Encoding: 47 47 15
Width: 600
Flags: HMW
HStem: -77 21G<167 167> 606 20G<432 432>
VStem: 98 404
LayerCount: 2
Fore
SplineSet
98 -46 m 1
 432 626 l 1
 502 595 l 1
 167 -77 l 1
 98 -46 l 1
EndSplineSet
EndChar

StartChar: zero
Encoding: 48 48 16
Width: 600
Flags: HMW
HStem: -15 93<249.5 352.5 249.5 403> 523 93<246.5 356.5>
VStem: 87 98<261.5 299 258 336> 417 96<262 325.5>
LayerCount: 2
Fore
SplineSet
185 299 m 0
 185 217 196 78 303 78 c 0
 402 78 417 216 417 296 c 0
 417 355 412 523 301 523 c 0
 192 523 187 358 185 299 c 0
87 298 m 0
 87 374 93 616 303 616 c 0
 494 616 513 372 513 299 c 0
 513 225 505 -15 301 -15 c 0
 101 -15 87 225 87 298 c 0
EndSplineSet
EndChar

StartChar: one
Encoding: 49 49 17
Width: 600
Flags: HMW
HStem: 0 93<71 253 71 253 350 529> 596 20G<350 350>
VStem: 253 97<93 506 506 506>
LayerCount: 2
Fore
SplineSet
71 0 m 1
 71 93 l 1
 253 93 l 1
 253 506 l 1
 84 472 l 1
 84 563 l 1
 350 616 l 1
 350 93 l 1
 529 93 l 1
 529 0 l 1
 71 0 l 1
EndSplineSet
EndChar

StartChar: two
Encoding: 50 50 18
Width: 600
Flags: HMW
HStem: 0 95<240 424 240 519> 0 160<424 519 424 519> 522 94<300.5 345.5>
VStem: 103 98<433 475 433 520 433 520> 420 99<394.5 453.5>
LayerCount: 2
Fore
SplineSet
81 0 m 1
 81 93 l 1
 301 270 420 369 420 420 c 0
 420 487 377 522 314 522 c 0
 287 522 201 517 201 433 c 1
 103 433 l 1
 103 520 l 1
 155 582 227 616 309 616 c 0
 446 616 519 519 519 419 c 0
 519 319 349 188 240 95 c 1
 424 95 l 1
 424 160 l 1
 519 160 l 1
 519 0 l 1
 81 0 l 1
EndSplineSet
EndChar

StartChar: three
Encoding: 51 51 19
Width: 600
Flags: HMW
HStem: -15 93<268 328.5 268 335> 266 93<243 273.5 243 288.5> 522 94<272.5 324.5>
VStem: 391 103 423 96<141 213>
LayerCount: 2
Fore
SplineSet
81 40 m 1
 114 130 l 1
 189 94 242 78 294 78 c 0
 363 78 423 110 423 172 c 0
 423 254 334 266 243 266 c 1
 243 359 l 1
 304 359 392 366 392 443 c 0
 392 502 355 522 294 522 c 0
 251 522 231 517 159 478 c 1
 125 551 l 1
 185 588 218 616 293 616 c 0
 397 616 494 569 495 455 c 0
 495 401 473 344 426 322 c 1
 474 289 519 258 519 172 c 0
 519 29 375 -15 295 -15 c 0
 197 -15 132 22 81 40 c 1
EndSplineSet
EndChar

StartChar: four
Encoding: 52 52 20
Width: 600
Flags: HMW
HStem: 0 94<231 335 431 527 231 335> 178 94<183 335 183 335 431 524> 596 20G<328 431 431 431>
VStem: 335 96<94 178 94 178 272 495 495 495>
LayerCount: 2
Fore
SplineSet
183 272 m 1
 335 272 l 1
 335 495 l 1
 183 272 l 1
73 178 m 1
 73 259 l 1
 328 616 l 1
 431 616 l 1
 431 272 l 1
 524 272 l 1
 524 178 l 1
 431 178 l 1
 431 94 l 1
 527 94 l 1
 527 0 l 1
 231 0 l 1
 231 94 l 1
 335 94 l 1
 335 178 l 1
 73 178 l 1
EndSplineSet
EndChar

StartChar: five
Encoding: 53 53 21
Width: 600
Flags: HMW
HStem: -15 92<262.5 338.5 262.5 372.5> 302 90 508 93<213 499 213 213>
VStem: 117 96<377 508 377 601 377 601> 429 96<156.5 225>
LayerCount: 2
Fore
SplineSet
74 36 m 1
 109 123 l 1
 167 101 229 77 296 77 c 0
 381 77 429 125 429 188 c 0
 429 262 370 301 301 302 c 0
 256 303 206 290 166 261 c 1
 117 318 l 1
 117 601 l 1
 499 601 l 1
 499 508 l 1
 213 508 l 1
 213 377 l 1
 255 390 295 392 331 392 c 0
 449 392 525 306 525 191 c 0
 525 84 451 -15 294 -15 c 0
 208 -15 112 20 74 36 c 1
EndSplineSet
EndChar

StartChar: six
Encoding: 54 54 22
Width: 600
Flags: HMW
HStem: -15 89<269 334 269 360.5> 287 94<278.5 341.5> 517 91<384.5 455.5 445 456 383.5 508>
VStem: 84 110<201.5 215 182 317.5> 408 97<148.5 210>
LayerCount: 2
Fore
SplineSet
194 215 m 1
 194 149 233 74 305 74 c 0
 363 74 408 115 408 182 c 0
 408 238 382 287 301 287 c 0
 217 287 194 215 194 215 c 1
189 346 m 1
 230 369 252 381 305 381 c 0
 435 381 505 305 505 179 c 0
 505 68 414 -15 307 -15 c 0
 151 -15 84 131 84 272 c 0
 84 363 119 452 163 502 c 0
 232 577 322 608 445 608 c 0
 467 608 491 614 515 611 c 1
 508 517 l 1
 487 521 466 517 445 517 c 0
 324 517 215 479 189 346 c 1
EndSplineSet
EndChar

StartChar: seven
Encoding: 55 55 23
Width: 600
Flags: HMW
HStem: 0 21G<201 201 201 308> 508 93<188 406 188 188>
VStem: 90 98<421 508 421 601 421 601>
LayerCount: 2
Fore
SplineSet
201 0 m 1
 406 508 l 1
 188 508 l 1
 188 421 l 1
 90 421 l 1
 90 601 l 1
 509 601 l 1
 508 506 l 1
 308 0 l 1
 201 0 l 1
EndSplineSet
EndChar

StartChar: eight
Encoding: 56 56 24
Width: 600
Flags: HMW
HStem: -15 93 269 94 505 94
VStem: 83 99<147.5 197.5 147.5 204> 93 99<431.5 478 427.5 504> 408 97<431 478> 420 97<141 194>
LayerCount: 2
Fore
SplineSet
182 171 m 0
 182 124 225 81 302 81 c 0
 386 81 420 111 420 171 c 0
 420 217 383 269 300 269 c 0
 237 269 182 224 182 171 c 0
192 454 m 0
 192 401 241 366 300 366 c 0
 353 366 408 397 408 455 c 0
 408 501 385 533 300 533 c 0
 236 533 192 502 192 454 c 0
169 321 m 1
 121 357 93 404 93 459 c 0
 93 549 170 621 300 621 c 0
 418 621 505 563 505 462 c 0
 505 400 476 355 432 322 c 1
 486 285 517 236 517 171 c 0
 517 45 424 -15 300 -15 c 0
 200 -15 83 46 83 173 c 0
 83 235 118 287 169 321 c 1
EndSplineSet
EndChar

StartChar: nine
Encoding: 57 57 25
Width: 600
Flags: HMW
HStem: -15 93<149.5 223 148 246> 212 98 522 94
VStem: 90 102<392 463.5 392 476.5> 409 106
LayerCount: 2
Fore
SplineSet
409 395 m 0
 399 454 387 527 301 527 c 0
 255 527 192 500 192 427 c 0
 192 357 239 312 298 312 c 0
 382 312 410 391 409 395 c 0
84 -10 m 1
 90 82 l 1
 114 80 137 78 159 78 c 0
 287 78 367 125 395 246 c 1
 370 231 337 214 294 214 c 0
 167 214 90 318 90 426 c 0
 90 527 180 621 299 621 c 0
 485 621 515 447 515 336 c 0
 515 284 509 239 497 199 c 0
 453 51 330 -15 162 -15 c 0
 137 -15 111 -13 84 -10 c 1
EndSplineSet
EndChar

StartChar: colon
Encoding: 58 58 26
Width: 600
Flags: HMW
HStem: -15 176<270 330> 247 176
VStem: 192 216<48.5 97.5 312.5 361.5>
LayerCount: 2
Fore
SplineSet
192 73 m 0
 192 122 240 161 300 161 c 0
 360 161 408 122 408 73 c 0
 408 24 360 -15 300 -15 c 0
 240 -15 192 24 192 73 c 0
192 337 m 0
 192 386 240 425 300 425 c 0
 360 425 408 386 408 337 c 0
 408 288 360 249 300 249 c 0
 240 249 192 288 192 337 c 0
EndSplineSet
EndChar

StartChar: semicolon
Encoding: 59 59 27
Width: 600
Flags: HMW
HStem: -111 21G<157 157 157 293> 260 176
VStem: 226 216<312.5 361.5>
LayerCount: 2
Fore
SplineSet
226 337 m 0
 226 386 274 425 334 425 c 0
 394 425 442 386 442 337 c 0
 442 288 394 249 334 249 c 0
 274 249 226 288 226 337 c 0
157 -111 m 1
 264 170 l 1
 442 170 l 1
 293 -111 l 1
 157 -111 l 1
EndSplineSet
EndChar

StartChar: less
Encoding: 60 60 28
Width: 600
Flags: HMW
HStem: 15 21G<528 528> 481 20G<528 528>
VStem: 71 457<15 317 15 317>
LayerCount: 2
Fore
SplineSet
71 200 m 1
 71 317 l 1
 528 501 l 1
 528 407 l 1
 174 259 l 1
 528 109 l 1
 528 15 l 1
 71 200 l 1
EndSplineSet
EndChar

StartChar: equal
Encoding: 61 61 29
Width: 600
Flags: HMW
HStem: 118 102<71 529 71 529> 296 102<71 529 71 529>
VStem: 71 458<118 220 118 220 296 398 118 398>
LayerCount: 2
Fore
SplineSet
71 118 m 1
 71 220 l 1
 529 220 l 1
 529 118 l 1
 71 118 l 1
71 296 m 1
 71 398 l 1
 529 398 l 1
 529 296 l 1
 71 296 l 1
EndSplineSet
EndChar

StartChar: greater
Encoding: 62 62 30
Width: 600
Flags: HMW
HStem: 15 21G<71 71> 481 20G<71 71>
VStem: 71 457<15 317 109 317 200 501 200 501>
LayerCount: 2
Fore
SplineSet
71 15 m 1
 71 109 l 1
 428 259 l 1
 71 407 l 1
 71 501 l 1
 528 317 l 1
 528 200 l 1
 71 15 l 1
EndSplineSet
EndChar

StartChar: question
Encoding: 63 63 31
Width: 600
Flags: HMW
HStem: -11 150 488 92
VStem: 98 97<403 478 403 546 403 546> 182 173<40.5 81.5> 405 96<373.5 438.5>
LayerCount: 2
Fore
SplineSet
182 61 m 0
 182 102 220 136 268 136 c 0
 316 136 355 102 355 61 c 0
 355 20 316 -14 268 -14 c 0
 220 -14 182 20 182 61 c 0
220 177 m 1
 220 305 l 1
 309 319 405 336 405 411 c 0
 405 466 352 487 293 488 c 0
 259 489 224 485 195 478 c 1
 195 403 l 1
 98 403 l 1
 98 546 l 1
 151 566 228 580 284 580 c 0
 405 580 501 520 501 411 c 0
 501 287 370 250 317 238 c 1
 317 177 l 1
 220 177 l 1
EndSplineSet
EndChar

StartChar: at
Encoding: 64 64 32
Width: 600
Flags: HMW
HStem: -18 72<215.5 330 215.5 362.5> 125 73<250 269.5 419 446> 419 20G<264 327> 510 69<233.5 355.5 233.5 369.5>
VStem: 19 84<233 308 233 374.5> 168 69<226 264 226 276.5> 500 80<295.5 349 251 387>
LayerCount: 2
Fore
SplineSet
237 236 m 0
 237 216 242 198 258 198 c 0
 318 198 338 306 338 333 c 0
 338 342 336 365 312 365 c 0
 263 365 237 292 237 236 c 0
342 167 m 1
 318 142 286 125 253 125 c 0
 219 125 168 150 168 236 c 0
 168 317 208 439 320 439 c 0
 334 439 347 439 370 415 c 1
 376 433 l 1
 445 433 l 1
 394 243 l 2
 392 237 392 233 392 228 c 0
 392 204 412 198 426 198 c 0
 466 198 500 256 500 335 c 0
 500 439 429 510 310 510 c 0
 126 510 103 339 103 277 c 0
 103 189 139 54 292 54 c 0
 368 54 431 77 509 132 c 1
 537 64 l 1
 499 39 426 -18 299 -18 c 0
 71 -18 19 165 19 274 c 0
 19 475 157 579 310 579 c 0
 401 579 493 546 545 463 c 0
 570 423 580 374 580 324 c 0
 580 178 479 125 418 125 c 0
 400 125 364 134 342 167 c 1
EndSplineSet
EndChar

StartChar: A
Encoding: 65 65 33
Width: 600
Flags: HMW
HStem: 0 91<-9 52 -9 52 150 240 367 453 552 609> 168 91<223 379 223 418 182 379> 471 91<94 223 94 346>
LayerCount: 2
Fore
SplineSet
223 259 m 1
 379 259 l 1
 303 431 l 1
 223 259 l 1
-9 0 m 1
 -9 91 l 1
 52 91 l 1
 223 471 l 1
 94 471 l 1
 94 562 l 1
 346 562 l 1
 552 91 l 1
 609 91 l 1
 609 0 l 1
 367 0 l 1
 367 91 l 1
 453 91 l 1
 418 168 l 1
 182 168 l 1
 150 91 l 1
 240 91 l 1
 240 0 l 1
 -9 0 l 1
EndSplineSet
EndChar

StartChar: B
Encoding: 66 66 34
Width: 600
Flags: HMW
HStem: 0 91<28 110 28 110 206 332> 245 91<206 332 206 332> 471 91<28 110 28 334 206 206 206 332>
VStem: 110 96<91 245 336 471> 441 95<387 420.5> 475 96<131.5 186.5 116 204>
LayerCount: 2
Fore
SplineSet
206 91 m 1
 332 91 l 2
 421 91 475 99 475 164 c 0
 475 244 357 245 332 245 c 2
 206 245 l 1
 206 91 l 1
206 336 m 1
 332 336 l 2
 364 336 441 344 441 406 c 0
 441 435 423 471 332 471 c 2
 206 471 l 1
 206 336 l 1
28 0 m 1
 28 91 l 1
 110 91 l 1
 110 471 l 1
 28 471 l 1
 28 562 l 1
 334 562 l 2
 487 562 536 475 536 409 c 0
 536 365 515 324 476 295 c 1
 552 251 571 209 571 164 c 0
 571 68 513 0 332 0 c 2
 28 0 l 1
EndSplineSet
EndChar

StartChar: C
Encoding: 67 67 35
Width: 600
Flags: HMW
HStem: -18 92<253 363 253 363.5> 489 91<281.5 346>
VStem: 31 97<231 361 231 370.5> 473 96<337 442 442 442 538 580>
LayerCount: 2
Fore
SplineSet
513 140 m 1
 569 56 l 1
 568 57 l 1
 488 -13 403 -18 324 -18 c 0
 99 -18 31 169 31 285 c 0
 31 456 152 580 318 580 c 0
 405 580 459 548 473 538 c 1
 473 580 l 1
 569 580 l 1
 569 337 l 1
 473 337 l 1
 473 442 l 1
 427 469 373 489 319 489 c 0
 244 489 128 438 128 284 c 0
 128 178 185 74 321 74 c 0
 405 74 480 117 513 140 c 1
EndSplineSet
EndChar

StartChar: D
Encoding: 68 68 36
Width: 600
Flags: HMW
HStem: 0 91<18 101 18 101 197 261> 471 91<18 101 18 288 197 288 288 323>
VStem: 101 96<91 471> 480 102<219.5 338.5>
LayerCount: 2
Fore
SplineSet
197 91 m 1
 406 91 480 151 480 288 c 0
 480 389 449 471 197 471 c 1
 197 91 l 1
18 0 m 1
 18 91 l 1
 101 91 l 1
 101 471 l 1
 18 471 l 1
 18 562 l 1
 288 562 l 2
 465 562 582 471 582 292 c 0
 582 67 417 0 261 0 c 2
 18 0 l 1
EndSplineSet
EndChar

StartChar: E
Encoding: 69 69 37
Width: 600
Flags: HMW
HStem: 0 91<38 115 38 115 215 468> 0 196<468 567 468 567> 241 90<215 326 215 326> 364 198<468 567 468 468> 471 91<38 115 38 567 215 215 215 468>
VStem: 115 100<91 241 331 471> 326 99<176 241 241 241 331 396 176 396> 468 99<91 196 0 196 364 471 471 471>
LayerCount: 2
Fore
SplineSet
38 0 m 1
 38 91 l 1
 115 91 l 1
 115 471 l 1
 38 471 l 1
 38 562 l 1
 567 562 l 1
 567 364 l 1
 468 364 l 1
 468 471 l 1
 215 471 l 1
 215 331 l 1
 326 331 l 1
 326 396 l 1
 425 396 l 1
 425 176 l 1
 326 176 l 1
 326 241 l 1
 215 241 l 1
 215 91 l 1
 468 91 l 1
 468 196 l 1
 567 196 l 1
 567 0 l 1
 38 0 l 1
EndSplineSet
EndChar

StartChar: F
Encoding: 70 70 38
Width: 600
Flags: HMW
HStem: 0 91<34 114 34 114 212 355> 239 91<212 328 212 328> 365 196 471 90 546 20G<34 565 565 565>
VStem: 114 98<91 239 330 471> 328 98<175 239 239 239 330 395 175 395> 465 100<365 471 471 471>
LayerCount: 2
Fore
SplineSet
34 0 m 1
 34 91 l 1
 114 91 l 1
 114 471 l 1
 34 470 l 1
 34 566 l 1
 565 566 l 1
 565 365 l 1
 465 365 l 1
 465 471 l 1
 212 471 l 1
 212 330 l 1
 328 330 l 1
 328 395 l 1
 426 395 l 1
 426 175 l 1
 328 175 l 1
 328 239 l 1
 212 239 l 1
 212 91 l 1
 355 91 l 1
 355 0 l 1
 34 0 l 1
EndSplineSet
EndChar

StartChar: G
Encoding: 71 71 39
Width: 600
Flags: HMW
HStem: -18 94<261 343 261 370.5> 178 95<304 586 304 441 536 536 536 586> 489 91<252 332>
VStem: 14 98<220.5 356.5 220.5 374.5> 419 98
LayerCount: 2
Fore
SplineSet
304 178 m 1
 304 273 l 1
 586 273 l 1
 586 178 l 1
 536 178 l 1
 536 30 l 1
 477 -1 406 -18 335 -18 c 0
 173 -18 14 76 14 282 c 0
 14 467 140 580 298 580 c 0
 372 580 409 559 450 533 c 1
 450 580 l 1
 548 580 l 1
 548 343 l 1
 450 343 l 1
 450 437 l 1
 399 467 363 489 301 489 c 0
 203 489 112 427 112 286 c 0
 112 155 197 76 325 76 c 0
 361 76 400 79 441 89 c 1
 441 178 l 1
 304 178 l 1
EndSplineSet
EndChar

StartChar: H
Encoding: 72 72 40
Width: 600
Flags: HMW
HStem: 0 91<20 97 20 97 190 268 333 410 503 580> 234 91<190 410 190 410> 471 91<20 97 20 266 190 190 190 266 20 336 336 410 503 503 503 580>
VStem: 97 93<91 234 325 471> 410 93<91 234 234 234 325 471 91 471>
LayerCount: 2
Fore
SplineSet
20 0 m 1
 20 91 l 1
 97 91 l 1
 97 471 l 1
 20 471 l 1
 20 562 l 1
 266 562 l 1
 266 471 l 1
 190 471 l 1
 190 325 l 1
 410 325 l 1
 410 471 l 1
 336 471 l 1
 336 562 l 1
 580 562 l 1
 580 471 l 1
 503 471 l 1
 503 91 l 1
 580 91 l 1
 580 0 l 1
 333 0 l 1
 333 91 l 1
 410 91 l 1
 410 234 l 1
 190 234 l 1
 190 91 l 1
 268 91 l 1
 268 0 l 1
 20 0 l 1
EndSplineSet
EndChar

StartChar: I
Encoding: 73 73 41
Width: 600
Flags: HMW
HStem: 0 91<77 251 77 251 352 523> 471 91<80 251 80 520 352 352 352 520>
VStem: 251 101<91 471 91 471>
LayerCount: 2
Fore
SplineSet
77 0 m 1
 77 91 l 1
 251 91 l 1
 251 471 l 1
 80 471 l 1
 80 562 l 1
 520 562 l 1
 520 471 l 1
 352 471 l 1
 352 91 l 1
 523 91 l 1
 523 0 l 1
 77 0 l 1
EndSplineSet
EndChar

StartChar: J
Encoding: 74 74 42
Width: 600
Flags: HMW
HStem: -18 90<214 299.5 214 319> 470 92<182 357 182 582 453 453 453 582>
VStem: 18 98<132.5 171 171 278> 357 96<194 195 195 470>
LayerCount: 2
Fore
SplineSet
18 50 m 1
 18 278 l 1
 116 278 l 1
 116 171 l 2
 116 94 175 72 253 72 c 0
 346 72 357 128 357 194 c 2
 357 470 l 1
 182 470 l 1
 182 562 l 1
 582 562 l 1
 582 470 l 1
 453 470 l 1
 453 195 l 2
 453 56 382 -18 256 -18 c 0
 150 -18 50 33 18 50 c 1
EndSplineSet
EndChar

StartChar: K
Encoding: 75 75 43
Width: 600
Flags: HMW
HStem: 0 91<11 94 11 94 193 275 482 589> 471 91<11 94 11 272 193 193 193 272 11 320 320 363 494 494 494 562>
VStem: 94 99<91 201 318 471>
LayerCount: 2
Fore
SplineSet
11 0 m 1
 11 91 l 1
 94 91 l 1
 94 471 l 1
 11 471 l 1
 11 562 l 1
 272 562 l 1
 272 471 l 1
 193 471 l 1
 193 318 l 1
 363 471 l 1
 320 471 l 1
 320 562 l 1
 562 562 l 1
 562 471 l 1
 494 471 l 1
 318 312 l 1
 373 244 436 158 482 91 c 1
 589 91 l 1
 589 0 l 1
 429 0 l 1
 378 70 320 167 252 254 c 1
 193 201 l 1
 193 91 l 1
 275 91 l 1
 275 0 l 1
 11 0 l 1
EndSplineSet
EndChar

StartChar: L
Encoding: 76 76 44
Width: 600
Flags: HMW
HStem: 0 91<30 131 30 131 228 470> 471 91<30 131 30 356 228 228 228 356>
VStem: 131 97<91 471 91 471> 470 99<91 254 0 254>
LayerCount: 2
Fore
SplineSet
30 0 m 1
 30 91 l 1
 131 91 l 1
 131 471 l 1
 30 471 l 1
 30 562 l 1
 356 562 l 1
 356 471 l 1
 228 471 l 1
 228 91 l 1
 470 91 l 1
 470 254 l 1
 569 254 l 1
 569 0 l 1
 30 0 l 1
EndSplineSet
EndChar

StartChar: M
Encoding: 77 77 45
Width: 600
Flags: HMW
HStem: 0 91<-2 63 -2 63 155 250 359 448 539 601> 471 91<0 79 0 203 529 529 529 602>
VStem: 71 92 442 92
LayerCount: 2
Fore
SplineSet
-2 0 m 1
 -2 91 l 1
 63 91 l 1
 79 471 l 1
 0 471 l 1
 0 562 l 1
 203 562 l 1
 305 282 l 1
 412 562 l 1
 602 562 l 1
 602 471 l 1
 529 471 l 1
 539 91 l 1
 601 91 l 1
 601 0 l 1
 359 0 l 1
 359 91 l 1
 448 91 l 1
 437 402 l 1
 332 135 l 1
 273 135 l 1
 171 405 l 1
 155 91 l 1
 250 91 l 1
 250 0 l 1
 -2 0 l 1
EndSplineSet
EndChar

StartChar: N
Encoding: 78 78 46
Width: 600
Flags: HMW
HStem: -12 93<-1 77 -1 77 170 249> 469 93<-1 77 -1 181 343 428 522 522 522 601>
VStem: 77 93<81 398 81 469 81 469> 432 90<-12 469>
LayerCount: 2
Fore
SplineSet
-1 -12 m 1
 -1 81 l 1
 77 81 l 1
 77 469 l 1
 -1 469 l 1
 -1 562 l 1
 181 562 l 1
 428 164 l 1
 428 469 l 1
 343 469 l 1
 343 562 l 1
 601 562 l 1
 601 469 l 1
 522 469 l 1
 522 -12 l 1
 432 -12 l 1
 170 398 l 1
 170 81 l 1
 249 81 l 1
 249 -12 l 1
 -1 -12 l 1
EndSplineSet
EndChar

StartChar: O
Encoding: 79 79 47
Width: 600
Flags: HMW
HStem: -18 92<240.5 352.5> 486 94<241 369.5>
VStem: 22 99 482 96
LayerCount: 2
Fore
SplineSet
118 282 m 0
 118 182 180 74 301 74 c 0
 435 74 484 202 484 285 c 0
 484 356 438 486 301 486 c 0
 181 486 118 376 118 282 c 0
22 279 m 0
 22 435 127 580 301 580 c 0
 486 580 578 423 578 282 c 0
 578 56 404 -18 301 -18 c 0
 167 -18 22 79 22 279 c 0
EndSplineSet
EndChar

StartChar: P
Encoding: 80 80 48
Width: 600
Flags: HMW
HStem: 0 91<44 127 44 127 225 354> 191 92<225 349.5> 471 91<44 127 44 44>
VStem: 127 98<91 191 283 471> 458 97<324.5 426.5>
LayerCount: 2
Fore
SplineSet
225 283 m 1
 356 290 458 274 458 375 c 0
 458 478 365 464 225 471 c 1
 225 283 l 1
44 0 m 1
 44 91 l 1
 127 91 l 1
 127 471 l 1
 44 471 l 1
 44 562 l 1
 393 556 555 575 555 372 c 0
 555 241 474 191 225 191 c 1
 225 91 l 1
 354 91 l 1
 354 0 l 1
 44 0 l 1
EndSplineSet
EndChar

StartChar: Q
Encoding: 81 81 49
Width: 600
Flags: HMW
HStem: -138 21G<161 161> -93 181<265 298> 488 92<264.5 358.5>
VStem: 27 96<216 364 212 383> 478 95<220 323.5>
LayerCount: 2
Fore
SplineSet
123 287 m 0
 123 137 218 88 298 88 c 0
 372 88 478 131 478 283 c 0
 478 385 418 488 299 488 c 0
 230 488 123 441 123 287 c 0
118 -69 m 1
 198 13 l 1
 97 54 27 146 27 286 c 0
 27 480 160 580 299 580 c 0
 524 580 573 365 573 282 c 0
 573 158 510 35 364 -3 c 1
 396 -25 423 -41 447 -41 c 0
 465 -41 478 -33 515 2 c 1
 573 -61 l 1
 527 -106 496 -133 441 -133 c 0
 412 -133 387 -124 363 -114 c 0
 338 -104 313 -93 283 -93 c 0
 247 -93 221 -106 161 -138 c 1
 118 -69 l 1
EndSplineSet
EndChar

StartChar: R
Encoding: 82 82 50
Width: 600
Flags: HMW
HStem: 0 91<12 97 12 97 197 277 499 587> 223 91<197 271 197 280 197 271> 471 91<16 97 16 310 197 287.5>
VStem: 97 100<91 223 314 471> 427 99<362 437>
LayerCount: 2
Fore
SplineSet
197 314 m 1
 345 314 427 306 427 396 c 0
 427 478 378 471 197 471 c 1
 197 314 l 1
12 0 m 1
 12 91 l 1
 97 91 l 1
 97 471 l 1
 16 471 l 1
 16 562 l 1
 310 562 l 2
 426 562 526 513 526 397 c 0
 526 327 494 259 387 241 c 1
 499 91 l 1
 587 91 l 1
 587 0 l 1
 442 0 l 1
 412 44 369 106 280 223 c 1
 197 223 l 1
 197 91 l 1
 277 91 l 1
 277 0 l 1
 12 0 l 1
EndSplineSet
EndChar

StartChar: S
Encoding: 83 83 51
Width: 600
Flags: HMW
HStem: 0 88<277.5 351 277.5 364> 475 88<267.5 324.5 233 327.5> 552 20G<417 508 508 508>
VStem: 72 91<0 35 128 200> 89 92<369 419 369 435> 417 91<365 458 458 458 551 572 365 572> 438 90<147 191.5>
LayerCount: 2
Fore
SplineSet
72 0 m 1
 72 200 l 1
 163 200 l 1
 163 128 l 1
 205 104 252 88 303 88 c 0
 399 88 438 123 438 171 c 0
 438 212 390 231 340 235 c 0
 226 244 89 254 89 396 c 0
 89 474 162 563 304 563 c 0
 345 563 384 565 417 551 c 1
 417 572 l 1
 508 572 l 1
 508 365 l 1
 417 365 l 1
 417 458 l 1
 384 472 347 475 308 475 c 0
 227 475 181 440 181 398 c 0
 181 340 247 330 272 326 c 0
 378 311 528 315 528 171 c 0
 528 65 425 0 303 0 c 0
 229 0 183 25 163 35 c 1
 163 0 l 1
 72 0 l 1
EndSplineSet
EndChar

StartChar: T
Encoding: 84 84 52
Width: 600
Flags: HMW
HStem: 0 91<122 251 122 251 349 460> 471 91<140 251 140 140 349 349 349 460>
VStem: 41 99<358 471 358 562 358 562> 251 98<91 471 91 471> 460 99<358 471 471 471>
CounterMasks: 1 38
LayerCount: 2
Fore
SplineSet
122 0 m 1
 122 91 l 1
 251 91 l 1
 251 471 l 1
 140 471 l 1
 140 358 l 1
 41 358 l 1
 41 562 l 1
 559 562 l 1
 559 358 l 1
 460 358 l 1
 460 471 l 1
 349 471 l 1
 349 91 l 1
 460 91 l 1
 460 0 l 1
 122 0 l 1
EndSplineSet
EndChar

StartChar: U
Encoding: 85 85 53
Width: 600
Flags: HMW
HStem: -18 92<241 348.5 241 362.5> 470 92<4 261 4 83 177 177 177 261 4 338 338 424 518 518 518 596>
VStem: 83 94<200 470> 424 94<208 470>
LayerCount: 2
Fore
SplineSet
4 470 m 1
 4 562 l 1
 261 562 l 1
 261 470 l 1
 177 470 l 1
 177 191 l 2
 177 138 185 74 297 74 c 0
 400 74 424 122 424 208 c 2
 424 470 l 1
 338 470 l 1
 338 562 l 1
 596 562 l 1
 596 470 l 1
 518 470 l 1
 518 180 l 2
 518 39 426 -18 299 -18 c 0
 154 -18 83 52 83 200 c 2
 83 470 l 1
 4 470 l 1
EndSplineSet
EndChar

StartChar: V
Encoding: 86 86 54
Width: 600
Flags: HMW
HStem: 0 21G<252 252 252 348> 471 91<-13 64 -13 233 163 163 163 233 367 450 544 544 544 613>
VStem: -13 246<471 562 471 562> 367 246<471 562 471 562>
LayerCount: 2
Fore
SplineSet
252 0 m 1
 64 471 l 1
 -13 471 l 1
 -13 562 l 1
 233 562 l 1
 233 471 l 1
 163 471 l 1
 302 119 l 1
 450 471 l 1
 367 471 l 1
 367 562 l 1
 613 562 l 1
 613 471 l 1
 544 471 l 1
 348 0 l 1
 252 0 l 1
EndSplineSet
EndChar

StartChar: W
Encoding: 87 87 55
Width: 600
Flags: HMW
HStem: 0 21G<98 98 98 181 419 419 419 501> 471 91<-18 31 -18 211 126 126 126 211 390 476 569 569 569 618>
LayerCount: 2
Fore
SplineSet
98 0 m 1
 31 471 l 1
 -18 471 l 1
 -18 562 l 1
 211 562 l 1
 211 471 l 1
 126 471 l 1
 162 190 l 1
 266 448 l 1
 336 448 l 1
 442 192 l 1
 476 471 l 1
 390 471 l 1
 390 562 l 1
 618 562 l 1
 618 471 l 1
 569 471 l 1
 501 0 l 1
 419 0 l 1
 299 296 l 1
 181 0 l 1
 98 0 l 1
EndSplineSet
EndChar

StartChar: X
Encoding: 88 88 56
Width: 600
Flags: HMW
HStem: 0 91<12 80 12 80 190 260 346 408 520 588> 471 91<29 100 29 259 215 215 215 259 29 343 343 391 500 500 500 570>
LayerCount: 2
Fore
SplineSet
12 0 m 1
 12 91 l 1
 80 91 l 1
 245 294 l 1
 100 471 l 1
 29 471 l 1
 29 562 l 1
 259 562 l 1
 259 471 l 1
 215 471 l 1
 304 363 l 1
 391 471 l 1
 343 471 l 1
 343 562 l 1
 570 562 l 1
 570 471 l 1
 500 471 l 1
 357 294 l 1
 520 91 l 1
 588 91 l 1
 588 0 l 1
 346 0 l 1
 346 91 l 1
 408 91 l 1
 299 226 l 1
 190 91 l 1
 260 91 l 1
 260 0 l 1
 12 0 l 1
EndSplineSet
EndChar

StartChar: Y
Encoding: 89 89 57
Width: 600
Flags: HMW
HStem: 0 91<126 250 126 250 347 470> 471 91<11 90 11 249 196 196 196 249 351 406 508 508 508 588>
VStem: 250 97<91 227 91 227>
LayerCount: 2
Fore
SplineSet
126 0 m 1
 126 91 l 1
 250 91 l 1
 250 227 l 1
 90 471 l 1
 11 471 l 1
 11 562 l 1
 249 562 l 1
 249 471 l 1
 196 471 l 1
 301 314 l 1
 406 471 l 1
 351 471 l 1
 351 562 l 1
 588 562 l 1
 588 471 l 1
 508 471 l 1
 347 227 l 1
 347 91 l 1
 470 91 l 1
 470 0 l 1
 126 0 l 1
EndSplineSet
EndChar

StartChar: Z
Encoding: 90 90 58
Width: 600
Flags: HMW
HStem: 0 91<192 441 192 538> 471 91<163 379 163 163>
VStem: 65 98<357 471 357 562 357 562> 441 97<91 220 0 220>
LayerCount: 2
Fore
SplineSet
61 0 m 1
 61 70 l 1
 379 471 l 1
 163 471 l 1
 163 357 l 1
 65 357 l 1
 65 562 l 1
 514 562 l 1
 514 497 l 1
 192 91 l 1
 441 91 l 1
 441 220 l 1
 538 220 l 1
 538 0 l 1
 61 0 l 1
EndSplineSet
EndChar

StartChar: bracketleft
Encoding: 91 91 59
Width: 600
Flags: HMW
HStem: -102 92<283 415 283 415> 524 92<283 415 283 283>
VStem: 185 98<-10 524 -10 616 -10 616>
LayerCount: 2
Fore
SplineSet
185 -102 m 1
 185 616 l 1
 415 616 l 1
 415 524 l 1
 283 524 l 1
 283 -10 l 1
 415 -10 l 1
 415 -102 l 1
 185 -102 l 1
EndSplineSet
EndChar

StartChar: backslash
Encoding: 92 92 60
Width: 600
Flags: HMW
HStem: -77 21G<431 431> 606 20G<169 169>
LayerCount: 2
Fore
SplineSet
431 -77 m 1
 98 597 l 1
 169 626 l 1
 502 -48 l 1
 431 -77 l 1
EndSplineSet
EndChar

StartChar: bracketright
Encoding: 93 93 61
Width: 600
Flags: HMW
HStem: -102 92<185 318 185 415 185 318> 524 92<185 318 185 415>
VStem: 318 97<-10 524 524 524>
LayerCount: 2
Fore
SplineSet
185 -10 m 1
 318 -10 l 1
 318 524 l 1
 185 524 l 1
 185 616 l 1
 415 616 l 1
 415 -102 l 1
 185 -102 l 1
 185 -10 l 1
EndSplineSet
EndChar

StartChar: asciicircum
Encoding: 94 94 62
Width: 600
Flags: HMW
HStem: 250 21G<108 108> 596 20G<265 333 333 333>
LayerCount: 2
Fore
SplineSet
108 250 m 1
 108 314 l 1
 198 418 233 488 265 616 c 1
 333 616 l 1
 370 480 401 425 492 315 c 1
 492 251 l 1
 420 288 356 349 301 430 c 1
 247 353 180 288 108 250 c 1
EndSplineSet
EndChar

StartChar: underscore
Encoding: 95 95 63
Width: 600
Flags: HMW
HStem: -125 50<0 600 0 600>
LayerCount: 2
Fore
SplineSet
0 -75 m 1
 600 -75 l 1
 600 -125 l 1
 0 -125 l 1
 0 -75 l 1
EndSplineSet
EndChar

StartChar: grave
Encoding: 193 96 64
Width: 600
Flags: HMW
HStem: 508 21G<413 413> 641 20G<200 200>
LayerCount: 2
Fore
SplineSet
168 569 m 1
 200 661 l 1
 431 556 l 1
 413 508 l 1
 168 569 l 1
EndSplineSet
EndChar

StartChar: a
Encoding: 97 97 65
Width: 600
Flags: HMW
HStem: -15 94<191.5 247 191.5 256.5> -2 94<484 567 484 567> 194 98<234.5 293.5> 361 93<261 322.5>
VStem: 32 97<114 152.5 114 178> 389 95<-2 258 45 258 157 187 187 187 92 292 92 315.5> 389 178<-2 45 45 45 -2 187 -2 187>
LayerCount: 2
Fore
SplineSet
389 157 m 1
 389 187 l 1
 366 189 323 194 264 194 c 0
 205 194 129 175 129 130 c 0
 129 98 170 79 213 79 c 0
 281 79 341 114 389 157 c 1
105 315 m 1
 66 396 l 1
 117 418 216 454 306 454 c 0
 455 454 484 383 484 258 c 2
 484 92 l 1
 567 92 l 1
 567 -2 l 1
 389 -2 l 1
 389 45 l 1
 349 4 287 -15 226 -15 c 0
 128 -15 32 37 32 131 c 0
 32 225 128 292 287 292 c 0
 318 292 353 287 389 280 c 1
 389 292 l 2
 389 339 348 361 297 361 c 0
 225 361 134 330 105 315 c 1
EndSplineSet
EndChar

StartChar: b
Encoding: 98 98 66
Width: 600
Flags: HMW
HStem: -15 93<321.5 383.5 317 411> -2 94<9 93 9 93 9 192> 357 92<324 396> 532 94<8 93 8 192>
VStem: 8 184<532 626> 93 99<399 532 532 532> 491 101<181.5 245>
LayerCount: 2
Fore
SplineSet
189 216 m 0
 189 105 294 78 340 78 c 0
 427 78 491 143 491 220 c 0
 491 270 450 357 342 357 c 0
 234 357 189 291 189 216 c 0
9 -2 m 1
 9 92 l 1
 93 92 l 1
 93 532 l 1
 8 532 l 1
 8 626 l 1
 192 626 l 1
 192 399 l 1
 241 435 297 449 351 449 c 0
 477 449 592 354 592 219 c 0
 592 80 474 -15 348 -15 c 0
 295 -15 240 1 192 36 c 1
 192 -2 l 1
 9 -2 l 1
EndSplineSet
EndChar

StartChar: c
Encoding: 99 99 67
Width: 600
Flags: HMW
HStem: -15 94<266 346> 365 94<259 330 220.5 330.5>
VStem: 47 96<174 261.5 174 278> 422 96<247 338 338 338 440 459 247 459>
LayerCount: 2
Fore
SplineSet
422 247 m 1
 422 338 l 1
 390 355 350 365 311 365 c 0
 207 365 143 302 143 221 c 0
 143 127 225 79 307 79 c 0
 386 79 441 114 498 155 c 1
 552 81 l 1
 483 26 394 -15 298 -15 c 0
 172 -15 47 71 47 222 c 0
 47 334 130 459 311 459 c 0
 349 459 387 453 422 440 c 1
 422 459 l 1
 518 459 l 1
 518 247 l 1
 422 247 l 1
EndSplineSet
EndChar

StartChar: d
Encoding: 100 100 68
Width: 600
Flags: HMW
HStem: -15 94<219.5 277 219.5 289.5> -2 94<506 585 506 585> 357 94<220.5 286 186 309.5> 532 94<284 409 284 506>
VStem: 14 97<180 259 180 279> 409 97<156.5 255.5 401 532 532 532> 409 176<-2 255.5>
LayerCount: 2
Fore
SplineSet
111 220 m 0
 111 140 179 79 260 79 c 0
 294 79 409 96 409 217 c 0
 409 294 355 357 264 357 c 0
 177 357 111 298 111 220 c 0
411 -2 m 1
 411 34 l 1
 371 2 317 -15 262 -15 c 0
 119 -15 14 93 14 218 c 0
 14 340 114 451 258 451 c 0
 314 451 371 435 409 401 c 1
 409 532 l 1
 284 532 l 1
 284 626 l 1
 506 626 l 1
 506 92 l 1
 585 92 l 1
 585 -2 l 1
 411 -2 l 1
EndSplineSet
EndChar

StartChar: e
Encoding: 101 101 69
Width: 600
Flags: HMW
HStem: -15 93<241 342 241 346.5> 177 95<142 437 144 437 144 540> 360 94<263 325>
LayerCount: 2
Fore
SplineSet
144 272 m 1
 437 272 l 1
 418 341 356 360 294 360 c 0
 232 360 165 330 144 272 c 1
142 177 m 1
 147 143 179 78 303 78 c 0
 381 78 452 107 517 138 c 1
 561 59 l 1
 485 16 393 -15 300 -15 c 0
 127 -15 38 95 38 217 c 0
 38 375 177 454 299 454 c 0
 462 454 560 343 540 177 c 1
 142 177 l 1
EndSplineSet
EndChar

StartChar: f
Encoding: 102 102 70
Width: 600
Flags: HMW
HStem: 0 94<68 176 68 176 282 512> 345 93<68 176 68 176 282 512> 534 92<324 359.5 283.5 389>
VStem: 176 106<94 345 94 345 438 465 465 473>
LayerCount: 2
Fore
SplineSet
68 0 m 1
 68 94 l 1
 176 94 l 1
 176 345 l 1
 68 345 l 1
 68 438 l 1
 176 438 l 1
 176 465 l 2
 176 568 232 626 335 626 c 0
 384 626 446 619 532 608 c 1
 490 516 l 1
 444 527 414 534 364 534 c 0
 284 534 282 511 282 473 c 2
 282 438 l 1
 512 438 l 1
 512 345 l 1
 282 345 l 1
 282 94 l 1
 512 94 l 1
 512 0 l 1
 68 0 l 1
EndSplineSet
EndChar

StartChar: g
Encoding: 103 103 71
Width: 600
Flags: HMW
HStem: -146 89<252 345 249.5 383> 45 88<227 291.5> 354 89<499 575 499 499> 366 88<225 294.5 196.5 306>
VStem: 25 95<212.5 283.5 212.5 305> 407 92<46 51 51 82 82 82 209.5 284> 407 168<209.5 443 414 443 354 443>
LayerCount: 2
Fore
SplineSet
120 248 m 0
 120 177 191 133 263 133 c 0
 351 133 407 173 407 246 c 0
 407 322 348 366 264 366 c 0
 186 366 120 319 120 248 c 0
92 -23 m 1
 131 -33 213 -57 286 -57 c 0
 404 -57 407 -12 407 46 c 2
 407 82 l 1
 369 54 318 45 265 45 c 0
 124 45 25 130 25 247 c 0
 25 363 125 454 268 454 c 0
 321 454 370 442 407 414 c 1
 407 443 l 1
 575 443 l 1
 575 354 l 1
 499 354 l 1
 499 51 l 2
 499 -52 477 -146 289 -146 c 0
 215 -146 154 -130 70 -112 c 1
 92 -23 l 1
EndSplineSet
EndChar

StartChar: h
Encoding: 104 104 72
Width: 600
Flags: HMW
HStem: 0 94<6 89 6 89 186 264 335 413 510 593> 341 93 532 94<6 89 6 186>
VStem: 6 180<0 299 94 299 532 626> 89 97<94 299 403 532 532 532> 413 97<94 284 94 291 94 308>
LayerCount: 2
Fore
SplineSet
6 0 m 1
 6 94 l 1
 89 94 l 1
 89 532 l 1
 6 532 l 1
 6 626 l 1
 186 626 l 1
 186 403 l 1
 236 429 284 451 345 451 c 0
 484 451 510 361 510 284 c 2
 510 94 l 1
 593 94 l 1
 593 0 l 1
 335 0 l 1
 335 94 l 1
 413 94 l 1
 413 291 l 2
 413 325 400 358 344 358 c 0
 315 358 260 349 186 299 c 1
 186 94 l 1
 264 94 l 1
 264 0 l 1
 6 0 l 1
EndSplineSet
EndChar

StartChar: i
Encoding: 105 105 73
Width: 600
Flags: HMW
HStem: 0 95<77 252 77 252 350 523> 349 96<115 252 115 350> 515 143<239 350 239 350>
VStem: 239 111<515 658> 252 98<95 349 349 349>
LayerCount: 2
Fore
SplineSet
77 0 m 1
 77 95 l 1
 252 95 l 1
 252 349 l 1
 115 349 l 1
 115 445 l 1
 350 445 l 1
 350 95 l 1
 523 95 l 1
 523 0 l 1
 77 0 l 1
239 515 m 1
 239 658 l 1
 350 658 l 1
 350 515 l 1
 239 515 l 1
EndSplineSet
EndChar

StartChar: j
Encoding: 106 106 74
Width: 600
Flags: HMW
HStem: -146 92<257 329 257 383.5> 365 91<122 384 122 488> 514 144<352 470 352 470>
VStem: 352 118<514 658 514 658> 384 104<52 365 365 365>
LayerCount: 2
Fore
SplineSet
135 -35 m 1
 168 -41 230 -54 284 -54 c 0
 374 -54 384 -17 384 52 c 2
 384 365 l 1
 122 365 l 1
 122 456 l 1
 488 456 l 1
 488 48 l 2
 488 -11 487 -146 280 -146 c 0
 223 -146 166 -136 111 -126 c 1
 135 -35 l 1
352 514 m 1
 352 658 l 1
 470 658 l 1
 470 514 l 1
 352 514 l 1
EndSplineSet
EndChar

StartChar: k
Encoding: 107 107 75
Width: 600
Flags: HMW
HStem: 0 94<17 97 17 97 17 195 326 353 474 582> 345 94<258 329 258 543 464 464 464 543> 532 94<17 97 17 195>
VStem: 97 98<94 170 263 532 532 532>
LayerCount: 2
Fore
SplineSet
17 0 m 1
 17 94 l 1
 97 94 l 1
 97 532 l 1
 17 532 l 1
 17 626 l 1
 195 626 l 1
 195 263 l 1
 329 345 l 1
 258 345 l 1
 258 439 l 1
 543 439 l 1
 543 345 l 1
 464 345 l 1
 301 239 l 1
 474 94 l 1
 582 94 l 1
 582 0 l 1
 326 0 l 1
 326 94 l 1
 353 94 l 1
 231 193 l 1
 195 170 l 1
 195 0 l 1
 17 0 l 1
EndSplineSet
EndChar

StartChar: l
Encoding: 108 108 76
Width: 600
Flags: HMW
HStem: 0 94<77 250 77 250 349 523> 532 94<95 250 95 349>
VStem: 250 99<94 532 532 532>
LayerCount: 2
Fore
SplineSet
77 0 m 1
 77 94 l 1
 250 94 l 1
 250 532 l 1
 95 532 l 1
 95 626 l 1
 349 626 l 1
 349 94 l 1
 523 94 l 1
 523 0 l 1
 77 0 l 1
EndSplineSet
EndChar

StartChar: m
Encoding: 109 109 77
Width: 600
Flags: HMW
HStem: 5 94 360 94<212.5 232 410.5 435.5>
VStem: 54 94<94 325 94 347 94 347> 259 91<94 307 307 317> 463 92<94 316 94 320 94 325>
LayerCount: 2
Fore
SplineSet
-24 0 m 1
 -24 94 l 1
 54 94 l 1
 54 347 l 1
 -24 347 l 1
 -24 441 l 1
 148 441 l 1
 148 419 l 1
 167 442 197 454 228 454 c 0
 252 454 289 447 314 405 c 1
 340 436 382 454 423 454 c 0
 506 454 555 392 555 316 c 2
 555 94 l 1
 624 94 l 1
 624 0 l 1
 463 0 l 1
 463 320 l 2
 463 330 452 360 419 360 c 0
 402 360 375 351 350 317 c 1
 350 94 l 1
 423 94 l 1
 423 0 l 1
 259 0 l 1
 259 307 l 2
 259 327 251 360 213 360 c 0
 189 360 166 344 148 325 c 1
 148 94 l 1
 226 94 l 1
 226 0 l 1
 -24 0 l 1
EndSplineSet
EndChar

StartChar: n
Encoding: 110 110 78
Width: 600
Flags: HMW
HStem: 0 94<15 96 15 96 193 274 349 418 513 587> 347 94<13 96 13 193> 361 93<326 376>
VStem: 13 180<408 441 94 441 94 441> 418 95<94 268 94 287.5>
LayerCount: 2
Fore
SplineSet
15 0 m 1
 15 94 l 1
 96 94 l 1
 96 347 l 1
 13 347 l 1
 13 441 l 1
 193 441 l 1
 193 408 l 1
 235 436 293 454 350 454 c 0
 470 454 513 394 513 268 c 2
 513 94 l 1
 587 94 l 1
 587 0 l 1
 349 0 l 1
 349 94 l 1
 418 94 l 1
 418 268 l 2
 418 307 411 361 341 361 c 0
 311 361 243 349 193 305 c 1
 193 94 l 1
 274 94 l 1
 274 0 l 1
 15 0 l 1
EndSplineSet
EndChar

StartChar: o
Encoding: 111 111 79
Width: 600
Flags: HMW
HStem: -15 94<259.5 342.5 259.5 360> 360 94<252 345>
VStem: 30 100<167.5 260.5 167.5 295.5> 471 99<167.5 259>
LayerCount: 2
Fore
SplineSet
130 217 m 0
 130 118 220 79 299 79 c 0
 386 79 471 118 471 217 c 0
 471 301 391 360 299 360 c 0
 205 360 130 304 130 217 c 0
30 217 m 0
 30 374 162 454 299 454 c 0
 438 454 570 374 570 217 c 0
 570 52 421 -15 299 -15 c 0
 185 -15 30 45 30 217 c 0
EndSplineSet
EndChar

StartChar: p
Encoding: 112 112 80
Width: 600
Flags: HMW
HStem: -142 88<17 97 192 329 17 97> 21 87<318 378.5 318 415.5> 353 88<14 97 14 192> 366 88<320.5 380>
VStem: 17 175<-142 68 -54 68> 97 95<-54 68 -54 353> 489 96<198.5 279.5>
LayerCount: 2
Fore
SplineSet
188 238 m 0
 188 133 296 108 340 108 c 0
 417 108 489 159 489 238 c 0
 489 321 419 366 341 366 c 0
 300 366 188 347 188 238 c 0
17 -54 m 1
 97 -54 l 1
 97 353 l 1
 14 353 l 1
 14 441 l 1
 192 441 l 1
 192 408 l 1
 232 438 289 454 342 454 c 0
 444 454 585 388 585 240 c 0
 585 119 485 21 346 21 c 0
 268 21 214 54 192 68 c 1
 192 -54 l 1
 329 -54 l 1
 329 -142 l 1
 17 -142 l 1
 17 -54 l 1
EndSplineSet
EndChar

StartChar: q
Encoding: 113 113 81
Width: 600
Flags: HW
LayerCount: 2
Fore
SplineSet
411 238 m 0
 411 133 303 108 259 108 c 0
 182 108 110 159 110 238 c 0
 110 321 180 366 258 366 c 0
 299 366 411 347 411 238 c 0
582 -54 m 1
 502 -54 l 1
 502 353 l 1
 585 353 l 1
 585 441 l 1
 407 441 l 1
 407 408 l 1
 367 438 310 454 257 454 c 0
 155 454 14 388 14 240 c 0
 14 119 114 21 253 21 c 0
 331 21 385 54 407 68 c 1
 407 -54 l 1
 270 -54 l 1
 270 -142 l 1
 582 -142 l 1
 582 -54 l 1
EndSplineSet
EndChar

StartChar: r
Encoding: 114 114 82
Width: 600
Flags: HMW
HStem: 0 94<33 148 33 148 247 430> 346 94<33 148 33 247> 360 94<402 452>
VStem: 148 99<94 255 94 346 94 346>
LayerCount: 2
Fore
SplineSet
33 0 m 1
 33 94 l 1
 148 94 l 1
 148 346 l 1
 33 346 l 1
 33 440 l 1
 247 440 l 1
 247 369 l 1
 301 409 365 454 439 454 c 0
 544 454 564 378 566 338 c 1
 472 324 l 1
 469 350 465 360 439 360 c 0
 364 360 294 290 247 255 c 1
 247 94 l 1
 430 94 l 1
 430 0 l 1
 33 0 l 1
EndSplineSet
EndChar

StartChar: s
Encoding: 115 115 83
Width: 600
Flags: HMW
HStem: -17 96<291.5 342 278.5 378.5> 175 88 279 180<414 513 232.5 414> 363 96<275.5 302.5 232.5 309>
VStem: 66 98<-17 17 109 178> 79 85 79 95<296.5 337 296.5 369> 414 99<279 327 327 327 425 459 279 459> 438 95<114 151>
LayerCount: 2
Fore
SplineSet
66 -17 m 1
 66 178 l 1
 164 178 l 1
 164 109 l 1
 188 90 243 79 314 79 c 0
 370 79 438 97 438 131 c 0
 438 171 340 172 304 175 c 0
 229 182 79 192 79 318 c 0
 79 420 186 459 279 459 c 0
 326 459 385 446 414 425 c 1
 414 459 l 1
 513 459 l 1
 513 279 l 1
 414 279 l 1
 414 327 l 1
 386 352 331 363 287 363 c 0
 264 363 174 358 174 316 c 0
 174 277 245 271 341 263 c 0
 427 257 533 237 533 131 c 0
 533 40 438 -17 319 -17 c 0
 264 -17 210 -8 164 17 c 1
 164 -17 l 1
 66 -17 l 1
EndSplineSet
EndChar

StartChar: t
Encoding: 116 116 84
Width: 600
Flags: HMW
HStem: -15 91<271 345 270 349.5> 337 93<57 125 57 125 224 490> 542 20G<125 224 224 224>
VStem: 125 99<142 163 163 337 430 562>
LayerCount: 2
Fore
SplineSet
57 337 m 1
 57 430 l 1
 125 430 l 1
 125 562 l 1
 224 562 l 1
 224 430 l 1
 490 430 l 1
 490 337 l 1
 224 337 l 1
 224 163 l 2
 224 120 229 76 311 76 c 0
 379 76 487 120 525 137 c 1
 542 44 l 1
 472 17 390 -15 309 -15 c 0
 233 -15 125 5 125 142 c 2
 125 337 l 1
 57 337 l 1
EndSplineSet
EndChar

StartChar: u
Encoding: 117 117 85
Width: 600
Flags: HMW
HStem: -15 92<234.5 299.5> -2 94<506 585 506 585> 345 94<15 190 15 95 332 410>
VStem: 15 175<345 439> 95 95<159 345 345 345> 332 174<345 439 92 439> 410 96<-2 439 40 439 151 345 345 345> 410 175<-2 40 40 40 -2 345>
LayerCount: 2
Fore
SplineSet
15 345 m 1
 15 439 l 1
 190 439 l 1
 190 157 l 2
 190 134 193 77 276 77 c 0
 338 77 376 120 410 151 c 1
 410 345 l 1
 332 345 l 1
 332 439 l 1
 506 439 l 1
 506 92 l 1
 585 92 l 1
 585 -2 l 1
 410 -2 l 1
 410 40 l 1
 381 12 326 -15 273 -15 c 0
 164 -15 95 46 95 159 c 2
 95 345 l 1
 15 345 l 1
EndSplineSet
EndChar

StartChar: v
Encoding: 118 118 86
Width: 600
Flags: HMW
HStem: 0 21G<260 260 260 348> 345 94<-1 84 -1 257 189 189 189 257 359 420 516 516 516 601>
LayerCount: 2
Fore
SplineSet
260 0 m 1
 84 345 l 1
 -1 345 l 1
 -1 439 l 1
 257 439 l 1
 257 345 l 1
 189 345 l 1
 305 107 l 1
 420 345 l 1
 359 345 l 1
 359 439 l 1
 601 439 l 1
 601 345 l 1
 516 345 l 1
 348 0 l 1
 260 0 l 1
EndSplineSet
EndChar

StartChar: w
Encoding: 119 119 87
Width: 600
Flags: HMW
HStem: 0 21G<144 144 144 223 383 383 383 459> 345 94<-18 31 -18 199 129 129 129 199 407 479 569 569 569 618>
VStem: -18 217<345 439 345 439> 407 211<345 439 345 439>
LayerCount: 2
Fore
SplineSet
144 0 m 1
 31 345 l 1
 -18 345 l 1
 -18 439 l 1
 199 439 l 1
 199 345 l 1
 129 345 l 1
 190 150 l 1
 268 369 l 1
 334 369 l 1
 419 150 l 1
 479 345 l 1
 407 345 l 1
 407 439 l 1
 618 439 l 1
 618 345 l 1
 569 345 l 1
 459 0 l 1
 383 0 l 1
 297 212 l 1
 223 0 l 1
 144 0 l 1
EndSplineSet
EndChar

StartChar: x
Encoding: 120 120 88
Width: 600
Flags: HMW
HStem: 0 94<6 91 6 91 218 259 340 379 510 594> 345 94<19 105 19 257 235 235 235 257 19 342 342 361 486 486 486 567>
LayerCount: 2
Fore
SplineSet
6 0 m 1
 6 94 l 1
 91 94 l 1
 233 228 l 1
 105 345 l 1
 19 345 l 1
 19 439 l 1
 257 439 l 1
 257 345 l 1
 235 345 l 1
 301 288 l 1
 361 345 l 1
 342 345 l 1
 342 439 l 1
 567 439 l 1
 567 345 l 1
 486 345 l 1
 362 230 l 1
 510 94 l 1
 594 94 l 1
 594 0 l 1
 340 0 l 1
 340 94 l 1
 379 94 l 1
 297 171 l 1
 218 94 l 1
 259 94 l 1
 259 0 l 1
 6 0 l 1
EndSplineSet
EndChar

StartChar: y
Encoding: 121 121 89
Width: 600
Flags: HMW
HStem: -142 88<41 155 262 329 41 155> 351 88<-2 74 -2 240 181 181 181 240 367 423 528 528 528 603>
LayerCount: 2
Fore
SplineSet
41 -54 m 1
 155 -54 l 1
 241 75 l 1
 74 351 l 1
 -2 351 l 1
 -2 439 l 1
 240 439 l 1
 240 351 l 1
 181 351 l 1
 295 158 l 1
 423 351 l 1
 367 351 l 1
 367 439 l 1
 603 439 l 1
 603 351 l 1
 528 351 l 1
 262 -54 l 1
 329 -54 l 1
 329 -142 l 1
 41 -142 l 1
 41 -54 l 1
EndSplineSet
EndChar

StartChar: z
Encoding: 122 122 90
Width: 600
Flags: HMW
HStem: 0 94<233 422 233 519> 0 189<422 519 422 519> 262 177<95 192 95 519> 346 93<192 365 192 192>
VStem: 95 97<262 346 262 439 262 439> 422 97<94 189 0 189>
LayerCount: 2
Fore
SplineSet
80 0 m 1
 80 72 l 1
 365 346 l 1
 192 346 l 1
 192 262 l 1
 95 262 l 1
 95 439 l 1
 519 439 l 1
 519 371 l 1
 233 94 l 1
 422 94 l 1
 422 189 l 1
 519 189 l 1
 519 0 l 1
 80 0 l 1
EndSplineSet
EndChar

StartChar: braceleft
Encoding: 123 123 91
Width: 600
Flags: HMW
VStem: 242 89<-97 -86 -86 16 16 62 488 590>
LayerCount: 2
Fore
SplineSet
471 -244 m 1
 423 -244 363 -244 317 -226 c 0
 264 -205 242 -148 242 -101 c 2
 242 16 l 2
 242 124 233 190 128 205 c 1
 128 299 l 1
 233 314 242 380 242 488 c 2
 242 605 l 2
 242 652 264 709 317 730 c 0
 363 748 423 748 471 748 c 1
 471 655 l 1
 433 655 394 655 360 645 c 0
 338 638 331 612 331 590 c 2
 331 442 l 2
 331 369 298 288 236 253 c 1
 298 218 331 135 331 62 c 2
 331 -86 l 2
 331 -108 338 -134 360 -141 c 0
 394 -151 433 -151 471 -151 c 1
 471 -244 l 1
EndSplineSet
EndChar

StartChar: bar
Encoding: 124 124 92
Width: 600
Flags: HMW
HStem: -250 21G<255 255 255 345> 730 20G<255 345 345 345>
VStem: 255 90<-250 750 -250 750>
LayerCount: 2
Fore
SplineSet
255 -250 m 1
 255 750 l 1
 345 750 l 1
 345 -250 l 1
 255 -250 l 1
EndSplineSet
EndChar

StartChar: braceright
Encoding: 125 125 93
Width: 600
Flags: HMW
VStem: 268 89<-86 16 442 488 488 590 590 601.5>
LayerCount: 2
Fore
SplineSet
128 -152 m 1
 167 -152 203 -152 239 -141 c 0
 262 -134 268 -109 268 -86 c 2
 268 62 l 2
 268 135 301 218 363 253 c 1
 301 288 268 370 268 442 c 2
 268 590 l 2
 268 613 262 638 239 645 c 0
 204 655 167 655 128 655 c 1
 128 748 l 1
 176 748 235 748 282 730 c 0
 335 710 357 652 357 605 c 2
 357 488 l 2
 357 380 366 315 471 299 c 1
 471 205 l 1
 366 189 357 124 357 16 c 2
 357 -101 l 2
 357 -148 334 -206 282 -226 c 0
 235 -244 176 -244 128 -244 c 1
 128 -152 l 1
EndSplineSet
EndChar

StartChar: asciitilde
Encoding: 126 126 94
Width: 600
Flags: HMW
HStem: 177 100<384 409 384 416.5> 236 101<194 228.5>
LayerCount: 2
Fore
SplineSet
70 211 m 1
 103 267 141 337 209 337 c 0
 255 337 291 319 323 303 c 0
 349 289 372 277 396 277 c 0
 422 277 454 334 468 356 c 1
 529 298 l 1
 493 213 437 177 396 177 c 0
 372 177 346 186 321 197 c 0
 282 214 243 236 214 236 c 0
 174 236 156 185 135 153 c 1
 70 211 l 1
EndSplineSet
EndChar

StartChar: exclamdown
Encoding: 161 161 95
Width: 600
Flags: HMW
HStem: -146 21G<224 224 224 375> 292 157<273 327>
VStem: 234 131
LayerCount: 2
Fore
SplineSet
202 370 m 0
 202 414 246 449 300 449 c 0
 354 449 398 414 398 370 c 0
 398 326 354 292 300 292 c 0
 246 292 202 326 202 370 c 0
224 -146 m 1
 245 252 l 1
 355 252 l 1
 375 -146 l 1
 224 -146 l 1
EndSplineSet
EndChar

StartChar: cent
Encoding: 162 162 96
Width: 600
Flags: HMW
HStem: -49 21G<249 249 249 346>
VStem: 74 97<272.5 315 272.5 329> 249 97<-49 79 -49 80 -49 80 492 594> 407 94<322 377 377 377 467 498 322 498>
LayerCount: 2
Fore
SplineSet
249 -49 m 1
 249 80 l 1
 200 93 74 140 74 284 c 0
 74 374 130 467 249 492 c 1
 249 594 l 1
 346 594 l 1
 346 491 l 1
 366 488 391 479 407 467 c 1
 407 498 l 1
 501 498 l 1
 501 322 l 1
 407 322 l 1
 407 377 l 1
 377 394 339 409 303 409 c 0
 224 409 171 346 171 284 c 0
 171 261 185 169 299 169 c 0
 364 169 407 193 481 235 c 1
 526 164 l 1
 471 125 413 89 346 79 c 1
 346 -49 l 1
 249 -49 l 1
EndSplineSet
EndChar

StartChar: sterling
Encoding: 163 163 97
Width: 600
Flags: HMW
HStem: -28 21G<135 135> 265 93 518 93<292 355>
VStem: 123 94<419.5 420> 171 97
LayerCount: 2
Fore
SplineSet
84 36 m 1
 127 69 164 135 165 201 c 0
 165 223 164 244 157 265 c 1
 57 265 l 1
 57 342 l 1
 135 342 l 1
 127 362 123 399 123 420 c 0
 122 515 192 611 327 611 c 0
 453 611 499 550 526 504 c 1
 452 458 l 1
 431 503 381 518 329 518 c 0
 255 518 216 480 217 431 c 0
 217 408 222 367 234 342 c 1
 458 342 l 1
 458 265 l 1
 255 265 l 1
 262 239 262 215 262 193 c 0
 262 158 246 126 226 93 c 1
 238 99 280 106 299 106 c 0
 314 106 336 97 357 90 c 0
 373 84 388 80 398 80 c 0
 434 80 461 98 487 118 c 1
 543 55 l 1
 522 30 483 -13 411 -13 c 0
 391 -13 367 -7 344 0 c 0
 317 8 284 17 262 17 c 0
 214 17 147 -20 135 -28 c 1
 84 36 l 1
EndSplineSet
EndChar

StartChar: currency
Encoding: 168 164 98
Width: 600
Flags: HMW
HStem: 68 88<279 324.5> 410 88
VStem: 81 90<261 303> 430 90<260 303 260 317.5>
LayerCount: 2
Fore
SplineSet
171 283 m 0
 171 213 228 156 300 156 c 0
 372 156 430 213 430 283 c 0
 430 352 372 410 300 410 c 0
 228 410 171 352 171 283 c 0
54 106 m 1
 118 165 l 1
 93 197 81 240 81 282 c 0
 81 324 93 367 117 400 c 1
 54 458 l 1
 114 517 l 1
 175 460 l 1
 208 485 251 497 295 498 c 0
 343 499 392 486 427 458 c 1
 488 517 l 1
 546 460 l 1
 483 402 l 1
 508 369 520 325 520 281 c 0
 520 239 507 197 483 166 c 1
 546 108 l 1
 487 49 l 1
 425 107 l 1
 391 81 347 68 302 68 c 0
 256 68 211 80 176 106 c 1
 115 49 l 1
 54 106 l 1
EndSplineSet
EndChar

StartChar: yen
Encoding: 165 165 99
Width: 600
Flags: HMW
HStem: 0 87<142 255 142 255 348 461> 144 54 240 53<109 253 109 255 109 253 353 493> 475 87<10 91 10 250 205 205 205 250 354 398 513 513 513 590>
VStem: 10 240<475 562 475 562> 354 236<475 562 475 562>
LayerCount: 2
Fore
SplineSet
142 0 m 1
 142 87 l 1
 255 87 l 1
 255 143 l 1
 109 143 l 1
 109 197 l 1
 255 197 l 1
 255 240 l 1
 109 240 l 1
 109 293 l 1
 253 293 l 1
 91 475 l 1
 10 475 l 1
 10 562 l 1
 250 562 l 1
 250 475 l 1
 205 475 l 1
 302 360 l 1
 398 475 l 1
 354 475 l 1
 354 562 l 1
 590 562 l 1
 590 475 l 1
 513 475 l 1
 353 293 l 1
 493 293 l 1
 493 240 l 1
 348 240 l 1
 348 197 l 1
 493 197 l 1
 493 143 l 1
 348 143 l 1
 348 87 l 1
 461 87 l 1
 461 0 l 1
 142 0 l 1
EndSplineSet
EndChar

StartChar: brokenbar
Encoding: 256 166 100
Width: 600
Flags: HMW
HStem: -175 21G<255 255 255 345> 655 20G<255 345 345 345>
VStem: 255 90<-175 216 -175 216 285 675>
LayerCount: 2
Fore
SplineSet
255 -175 m 1
 255 216 l 1
 345 216 l 1
 345 -175 l 1
 255 -175 l 1
255 285 m 1
 255 675 l 1
 345 675 l 1
 345 285 l 1
 255 285 l 1
EndSplineSet
EndChar

StartChar: section
Encoding: 167 167 101
Width: 600
Flags: HMW
HStem: -70 93<190 328> -70 172<88 190 88 190 88 328> 423 172<394 496 394 394> 486 94
VStem: 88 102<23 102 23 102 23 102> 394 102<423 486 486 486>
LayerCount: 2
Fore
SplineSet
368 167 m 1
 385 169 420 176 420 202 c 0
 420 211 413 219 404 224 c 2
 224 345 l 1
 211 338 185 328 185 307 c 0
 185 295 194 283 205 276 c 2
 368 167 l 1
88 -70 m 1
 88 102 l 1
 190 102 l 1
 190 23 l 1
 356 23 l 2
 373 23 386 24 386 33 c 0
 386 42 383 45 361 59 c 2
 159 196 l 2
 111 228 83 254 83 304 c 0
 83 363 120 388 144 404 c 1
 122 423 101 446 101 475 c 0
 101 576 186 595 252 595 c 2
 496 595 l 1
 496 423 l 1
 394 423 l 1
 394 486 l 1
 240 486 l 2
 217 486 204 485 204 474 c 0
 204 469 209 466 209 466 c 1
 462 293 l 2
 494 270 517 238 517 202 c 0
 517 148 477 117 451 106 c 1
 473 86 487 66 487 28 c 0
 487 -45 421 -70 328 -70 c 2
 88 -70 l 1
EndSplineSet
EndChar

StartChar: dieresis
Encoding: 200 168 102
Width: 600
Flags: HMW
HStem: 485 140<128 259 128 259 128 342 342 472>
VStem: 128 131<485 625 485 625> 342 130<485 625 485 625>
LayerCount: 2
Fore
SplineSet
128 485 m 1
 128 625 l 1
 259 625 l 1
 259 485 l 1
 128 485 l 1
342 485 m 1
 342 625 l 1
 472 625 l 1
 472 485 l 1
 342 485 l 1
EndSplineSet
EndChar

StartChar: copyright
Encoding: 257 169 103
Width: 600
Flags: HMW
HStem: -18 45<228.5 369.5 228.5 382> 119 46<278.5 332.5 278.5 346.5> 414 47<280 329.5> 535 45<228.5 369.5>
VStem: 0 45<210.5 351.5 210.5 363.5> 149 46<257.5 323 257.5 340> 555 45<210.5 351.5>
LayerCount: 2
Fore
SplineSet
418 215 m 1
 453 184 l 1
 437 163 375 119 318 119 c 0
 215 119 149 205 149 291 c 0
 149 389 229 461 313 461 c 0
 358 461 402 442 435 413 c 1
 397 374 l 1
 375 396 347 414 312 414 c 0
 248 414 195 356 195 290 c 0
 195 225 244 165 313 165 c 0
 352 165 394 189 418 215 c 1
45 281 m 0
 45 140 158 27 299 27 c 0
 440 27 555 140 555 281 c 0
 555 422 440 535 299 535 c 0
 158 535 45 422 45 281 c 0
0 281 m 0
 0 446 134 580 299 580 c 0
 465 580 600 446 600 281 c 0
 600 116 465 -18 299 -18 c 0
 134 -18 0 116 0 281 c 0
EndSplineSet
EndChar

StartChar: ordfeminine
Encoding: 227 170 104
Width: 600
Flags: HMW
HStem: 196 83<242 273> 500 80<271.5 300>
VStem: 147 68<313 344.5 313 356> 336 67<204 429 246 429 286 466.5> 336 117<204 246 246 246>
LayerCount: 2
Fore
SplineSet
336 372 m 1
 326 374 311 377 296 377 c 0
 258 377 215 367 215 322 c 0
 215 304 227 279 257 279 c 0
 293 279 325 332 336 372 c 1
336 204 m 1
 336 246 l 1
 315 217 287 196 259 196 c 0
 192 196 147 261 147 332 c 0
 147 380 170 458 273 458 c 0
 294 458 316 455 336 446 c 1
 336 487 317 500 283 500 c 0
 260 500 201 491 175 477 c 1
 155 545 l 1
 185 565 235 580 282 580 c 0
 398 580 403 512 403 429 c 2
 403 286 l 1
 453 286 l 1
 453 204 l 1
 336 204 l 1
EndSplineSet
EndChar

StartChar: guillemotleft
Encoding: 171 171 105
Width: 600
Flags: HMW
HStem: 70 376<260 263 260 498>
VStem: 47 503<260 383>
LayerCount: 2
Fore
SplineSet
47 260 m 1
 260 446 l 1
 316 383 l 1
 170 259 l 1
 318 132 l 1
 263 70 l 1
 47 260 l 1
271 260 m 1
 495 446 l 1
 550 383 l 1
 399 259 l 1
 552 132 l 1
 498 70 l 1
 271 260 l 1
EndSplineSet
EndChar

StartChar: logicalnot
Encoding: 258 172 106
Width: 600
Flags: HMW
HStem: 103 21G<433 529 433 433> 304 109<71 529 71 433>
VStem: 433 96<103 304 304 304>
LayerCount: 2
Fore
SplineSet
71 304 m 1
 71 413 l 1
 529 413 l 1
 529 103 l 1
 433 103 l 1
 433 304 l 1
 71 304 l 1
EndSplineSet
EndChar

StartChar: registered
Encoding: 259 174 107
Width: 600
Flags: HMW
HStem: -18 45<230 371 230 383> 381 46 535 45<230 371>
VStem: 0 45<211 351 211 363.5> 200 48<134 250 298 401> 361 50<327 371> 555 45<211 351>
LayerCount: 2
Fore
SplineSet
248 298 m 1
 322 298 361 305 361 349 c 0
 361 393 331 401 248 401 c 1
 248 298 l 1
200 134 m 1
 200 447 l 1
 338 445 411 450 411 352 c 0
 411 292 375 267 356 261 c 1
 411 134 l 1
 353 134 l 1
 302 250 l 1
 248 250 l 1
 248 134 l 1
 200 134 l 1
45 281 m 0
 45 141 160 27 300 27 c 0
 442 27 555 141 555 281 c 0
 555 421 442 535 300 535 c 0
 160 535 45 421 45 281 c 0
0 281 m 0
 0 446 135 580 300 580 c 0
 466 580 600 446 600 281 c 0
 600 116 466 -18 300 -18 c 0
 135 -18 0 116 0 281 c 0
EndSplineSet
EndChar

StartChar: macron
Encoding: 197 175 108
Width: 600
Flags: HMW
HStem: 505 80<88 512 88 512>
VStem: 88 424<505 585 505 585>
LayerCount: 2
Fore
SplineSet
88 505 m 1
 88 585 l 1
 512 585 l 1
 512 505 l 1
 88 505 l 1
EndSplineSet
EndChar

StartChar: degree
Encoding: 260 176 109
Width: 600
Flags: HMW
HStem: 243 91<272 328.5 272 354.5> 525 91<272 328.5>
VStem: 106 95<402.5 456 402.5 481> 400 94<402.5 456>
LayerCount: 2
Fore
SplineSet
201 429 m 0
 201 376 244 334 300 334 c 0
 357 334 400 376 400 429 c 0
 400 483 357 525 300 525 c 0
 244 525 201 483 201 429 c 0
106 429 m 0
 106 533 192 616 300 616 c 0
 409 616 494 533 494 429 c 0
 494 326 409 243 300 243 c 0
 192 243 106 326 106 429 c 0
EndSplineSet
EndChar

StartChar: plusminus
Encoding: 261 177 110
Width: 600
Flags: HMW
HStem: 24 81<71 529 71 529> 287 88<71 251 71 251 347 529> 495 20G<251 347 347 347>
VStem: 251 96<140 287 140 287 375 515>
LayerCount: 2
Fore
SplineSet
71 24 m 1
 71 105 l 1
 529 105 l 1
 529 24 l 1
 71 24 l 1
71 287 m 1
 71 375 l 1
 251 375 l 1
 251 515 l 1
 347 515 l 1
 347 375 l 1
 529 375 l 1
 529 287 l 1
 347 287 l 1
 347 140 l 1
 251 140 l 1
 251 287 l 1
 71 287 l 1
EndSplineSet
EndChar

StartChar: twosuperior
Encoding: 262 178 111
Width: 600
Flags: HMW
HStem: 230 75<282 446 282 446> 470 146<165 359.5 165 359.5> 539 77<275.5 315.5>
VStem: 364 82
LayerCount: 2
Fore
SplineSet
153 230 m 1
 153 295 l 1
 337 442 l 2
 355 457 364 472 364 491 c 0
 364 530 328 539 303 539 c 0
 244 539 248 492 248 470 c 1
 165 470 l 1
 165 539 l 1
 196 592 248 616 303 616 c 0
 416 616 445 527 445 492 c 0
 445 448 419 411 391 390 c 2
 282 305 l 1
 446 305 l 1
 446 230 l 1
 153 230 l 1
EndSplineSet
EndChar

StartChar: threesuperior
Encoding: 263 179 112
Width: 600
Flags: HMW
HStem: 222 75<303 322.5 303 342> 396 73<239 259 239 306 239 259> 596 20G<277 335.5>
VStem: 239 188<396 545 469 545> 347 80<492.5 519.5> 366 81<333.5 360.5>
LayerCount: 2
Fore
SplineSet
152 258 m 1
 185 330 l 1
 221 312 258 298 303 297 c 0
 342 297 366 319 366 348 c 0
 366 373 349 396 306 396 c 2
 239 396 l 1
 239 469 l 1
 279 469 295 468 298 468 c 0
 325 468 347 479 347 506 c 0
 347 533 324 540 307 540 c 0
 271 540 235 518 204 500 c 1
 162 564 l 1
 196 597 251 616 303 616 c 0
 368 616 427 583 427 507 c 0
 427 475 412 453 400 441 c 1
 430 418 447 383 447 348 c 0
 447 281 389 222 295 222 c 0
 255 222 216 232 152 258 c 1
EndSplineSet
EndChar

StartChar: acute
Encoding: 194 180 113
Width: 600
Flags: HMW
HStem: 508 21G<186 186> 641 20G<399 399>
LayerCount: 2
Fore
SplineSet
186 508 m 1
 168 558 l 1
 399 661 l 1
 431 573 l 1
 186 508 l 1
EndSplineSet
EndChar

StartChar: mu
Encoding: 264 181 114
Width: 600
Flags: HMW
HStem: -142 21G<95 95 95 192> 20 78 20 90<506 585 506 585> 349 90<15 95 15 192 328 409>
VStem: 15 177<349 439> 95 97<-142 47 150.5 182 182 349 349 349> 328 178<349 439 110 439> 409 97<20 439 71 439 155 349 349 349> 409 176<20 71 71 71 20 349>
LayerCount: 2
Fore
SplineSet
95 -142 m 1
 95 349 l 1
 15 349 l 1
 15 439 l 1
 192 439 l 1
 192 182 l 2
 192 119 234 98 282 98 c 0
 329 98 383 123 409 155 c 1
 409 349 l 1
 328 349 l 1
 328 439 l 1
 506 439 l 1
 506 110 l 1
 585 110 l 1
 585 20 l 1
 409 20 l 1
 409 71 l 1
 386 41 327 19 274 19 c 0
 242 19 211 27 192 47 c 1
 192 -142 l 1
 95 -142 l 1
EndSplineSet
EndChar

StartChar: paragraph
Encoding: 182 182 115
Width: 600
Flags: HMW
HStem: -70 21G<320 320 320 375 471 471 471 524> 550 30<375 471 375 375 524 585 524 524>
VStem: 320 55<-70 237 237 237> 471 53<-70 550 -70 550>
LayerCount: 2
Fore
SplineSet
320 -70 m 1
 320 237 l 1
 121 238 15 290 15 400 c 0
 15 520 121 580 325 580 c 2
 585 580 l 1
 585 550 l 1
 524 550 l 1
 524 -70 l 1
 471 -70 l 1
 471 550 l 1
 375 550 l 1
 375 -70 l 1
 320 -70 l 1
EndSplineSet
EndChar

StartChar: periodcentered
Encoding: 180 183 116
Width: 600
Flags: HMW
HStem: 165 186<271.5 328.5>
LayerCount: 2
Fore
SplineSet
196 258 m 0
 196 309 243 351 300 351 c 0
 357 351 404 309 404 258 c 0
 404 207 357 165 300 165 c 0
 243 165 196 207 196 258 c 0
EndSplineSet
EndChar

StartChar: cedilla
Encoding: 203 184 117
Width: 600
Flags: HMW
HStem: -206 21G<276 322> -20 20G<253 332 332 332>
LayerCount: 2
Fore
SplineSet
253 0 m 1
 332 0 l 1
 332 -26 l 1
 348 -30 391 -45 391 -106 c 0
 391 -161 353 -206 291 -206 c 0
 261 -206 234 -196 209 -178 c 1
 236 -122 l 1
 245 -131 268 -136 283 -136 c 0
 299 -136 312 -128 312 -114 c 0
 312 -94 296 -88 278 -88 c 0
 264 -88 249 -90 242 -94 c 1
 253 0 l 1
EndSplineSet
EndChar

StartChar: onesuperior
Encoding: 265 185 118
Width: 600
Flags: HMW
HStem: 230 77<153 263 153 263 343 447> 596 20G<343 343>
VStem: 166 177<518 594 594 594> 263 80<307 524 524 524>
LayerCount: 2
Fore
SplineSet
153 230 m 1
 153 307 l 1
 263 307 l 1
 263 524 l 1
 166 518 l 1
 166 594 l 1
 343 616 l 1
 343 307 l 1
 447 307 l 1
 447 230 l 1
 153 230 l 1
EndSplineSet
EndChar

StartChar: ordmasculine
Encoding: 235 186 119
Width: 600
Flags: HMW
HStem: 196 83<273 325 273 341.5> 497 83<272 330>
VStem: 147 68<358 411.5 358 432.5> 386 67<355 411>
LayerCount: 2
Fore
SplineSet
215 386 m 0
 215 330 245 279 301 279 c 0
 349 279 386 322 386 388 c 0
 386 434 359 497 301 497 c 0
 243 497 215 437 215 386 c 0
147 388 m 0
 147 477 202 580 299 580 c 0
 397 580 453 482 453 388 c 0
 453 271 381 196 302 196 c 0
 210 196 147 282 147 388 c 0
EndSplineSet
EndChar

StartChar: guillemotright
Encoding: 187 187 120
Width: 600
Flags: HMW
HStem: 70 376<101 104 104 336>
VStem: 49 503<260 383>
LayerCount: 2
Fore
SplineSet
336 70 m 1
 281 132 l 1
 429 259 l 1
 283 383 l 1
 339 446 l 1
 552 260 l 1
 336 70 l 1
101 70 m 1
 47 132 l 1
 200 259 l 1
 49 383 l 1
 104 446 l 1
 328 260 l 1
 101 70 l 1
EndSplineSet
EndChar

StartChar: onequarter
Encoding: 266 188 121
Width: 600
Flags: HMW
HStem: -60 21G -50 21G<77 77> -37 57<422 498 574 619 422 498> 64 63<436 498 436 498 574 619> 302 69<-48 52 -48 52 126 220> 371 187 624 20G
VStem: 52 74<371 561 561 561> 498 76<20 64 20 64 127 203 203 203>
LayerCount: 2
Fore
SplineSet
-48 302 m 1
 -48 371 l 1
 52 371 l 1
 52 561 l 1
 -37 556 l 1
 -37 624 l 1
 126 643 l 1
 126 371 l 1
 220 371 l 1
 220 302 l 1
 -48 302 l 1
21 3 m 1
 590 644 l 1
 649 585 l 1
 77 -50 l 1
 21 3 l 1
436 127 m 1
 498 127 l 1
 498 203 l 1
 436 127 l 1
348 64 m 1
 348 110 l 1
 501 300 l 1
 574 300 l 1
 574 127 l 1
 619 127 l 1
 619 64 l 1
 574 64 l 1
 574 20 l 1
 619 20 l 1
 619 -37 l 1
 422 -37 l 1
 422 20 l 1
 498 20 l 1
 498 64 l 1
 348 64 l 1
EndSplineSet
EndChar

StartChar: onehalf
Encoding: 267 189 122
Width: 600
Flags: HMW
HStem: -58 67 168 130<406 572 406 572> 230 68<500 534> 297 70<-47 49 -47 49 119 206> 367 190 624 20G 641 20G
VStem: 49 70<367 560 560 560>
LayerCount: 2
Fore
SplineSet
13 3 m 1
 582 644 l 1
 641 585 l 1
 69 -50 l 1
 13 3 l 1
-47 297 m 1
 -47 367 l 1
 49 367 l 1
 49 560 l 1
 -35 555 l 1
 -35 624 l 1
 119 643 l 1
 119 367 l 1
 206 367 l 1
 206 297 l 1
 -47 297 l 1
396 12 m 1
 569 156 578 169 578 187 c 0
 578 221 545 230 523 230 c 0
 473 230 477 187 477 168 c 1
 406 168 l 1
 406 240 l 1
 436 276 477 298 523 298 c 0
 621 298 647 218 647 188 c 0
 647 148 624 117 506 21 c 1
 648 21 l 1
 648 -46 l 1
 396 -46 l 1
 396 12 l 1
EndSplineSet
EndChar

StartChar: threequarters
Encoding: 268 190 123
Width: 600
Flags: HMW
HStem: -60 21G -50 21G<72 72> -45 57<414 488 562 608 414 488> 56 64<427 488 427 488 562 608> 288 69<97 99 99 116 97 135> 447 64<38 92 92 101 38 92> 572 66<74 104.5> 624 20G<585 585> 641 20G
LayerCount: 2
Fore
SplineSet
16 3 m 1
 585 644 l 1
 644 585 l 1
 72 -50 l 1
 16 3 l 1
-44 323 m 1
 -13 386 l 1
 21 371 55 358 97 357 c 2
 99 357 l 2
 133 357 155 378 155 404 c 0
 155 426 140 447 101 447 c 2
 38 447 l 1
 38 511 l 1
 92 511 l 2
 116 511 137 520 137 546 c 0
 137 564 117 572 92 572 c 0
 55 572 21 557 7 539 c 1
 -34 592 l 1
 -2 622 50 638 98 638 c 0
 158 638 211 609 211 547 c 0
 211 517 198 496 187 486 c 1
 214 466 229 435 229 404 c 0
 229 342 178 288 92 288 c 0
 52 288 16 297 -44 323 c 1
427 120 m 1
 488 120 l 1
 488 198 l 1
 427 120 l 1
339 56 m 1
 339 104 l 1
 492 298 l 1
 562 298 l 1
 562 120 l 1
 608 120 l 1
 608 56 l 1
 562 56 l 1
 562 12 l 1
 608 12 l 1
 608 -45 l 1
 414 -45 l 1
 414 12 l 1
 488 12 l 1
 488 56 l 1
 339 56 l 1
EndSplineSet
EndChar

StartChar: questiondown
Encoding: 191 191 124
Width: 600
Flags: HMW
HStem: -146 92<282.5 330.5 282.5 342.5> 295 154<305.5 354.5>
VStem: 98 97<-2.5 62 -2.5 86.5> 242 176<350.5 393.5> 403 98<-43 33 -111 33>
LayerCount: 2
Fore
SplineSet
242 372 m 0
 242 415 281 449 330 449 c 0
 379 449 418 415 418 372 c 0
 418 329 379 295 330 295 c 0
 281 295 242 329 242 372 c 0
281 197 m 1
 281 257 l 1
 378 257 l 1
 378 130 l 1
 289 116 195 99 195 25 c 0
 195 -30 249 -54 316 -54 c 0
 345 -54 375 -49 403 -43 c 1
 403 33 l 1
 501 33 l 1
 501 -111 l 1
 448 -131 370 -146 315 -146 c 0
 194 -146 98 -85 98 25 c 0
 98 148 229 185 281 197 c 1
EndSplineSet
EndChar

StartChar: Agrave
Encoding: 269 192 125
Width: 600
Flags: HMW
HStem: 0 90<-9 52 -9 52 150 250 355 452 551 609> 155 90<221 383 221 422 180 383> 475 90 764 20G<176 176>
VStem: -9 259<0 90 0 90> 355 254<0 90 0 90>
LayerCount: 2
Fore
SplineSet
221 245 m 1
 383 245 l 1
 302 424 l 1
 221 245 l 1
-9 0 m 1
 -9 90 l 1
 52 90 l 1
 223 462 l 1
 94 462 l 1
 94 552 l 1
 345 552 l 1
 551 90 l 1
 609 90 l 1
 609 0 l 1
 355 0 l 1
 355 90 l 1
 452 90 l 1
 422 155 l 1
 180 155 l 1
 150 90 l 1
 250 90 l 1
 250 0 l 1
 -9 0 l 1
133 680 m 1
 176 784 l 1
 474 663 l 1
 448 605 l 1
 133 680 l 1
EndSplineSet
EndChar

StartChar: Aacute
Encoding: 270 193 126
Width: 600
Flags: HMW
HStem: 0 90<-9 52 -9 52 150 250 355 452 551 609> 155 90<221 383 221 422 180 383> 462 90<94 223 94 345> 764 20G<456 456>
VStem: -9 259<0 90 0 90> 355 254<0 90 0 90>
LayerCount: 2
Fore
SplineSet
179 605 m 1
 159 664 l 1
 456 784 l 1
 497 679 l 1
 179 605 l 1
221 245 m 1
 383 245 l 1
 302 424 l 1
 221 245 l 1
-9 0 m 1
 -9 90 l 1
 52 90 l 1
 223 462 l 1
 94 462 l 1
 94 552 l 1
 345 552 l 1
 551 90 l 1
 609 90 l 1
 609 0 l 1
 355 0 l 1
 355 90 l 1
 452 90 l 1
 422 155 l 1
 180 155 l 1
 150 90 l 1
 250 90 l 1
 250 0 l 1
 -9 0 l 1
EndSplineSet
EndChar

StartChar: Acircumflex
Encoding: 271 194 127
Width: 600
Flags: HMW
HStem: 0 89 155 89 461 89 760 20G<244 341 341 341>
VStem: -9 259<0 90 0 90> 355 254<0 90 0 90>
LayerCount: 2
Fore
SplineSet
221 245 m 1
 383 245 l 1
 302 424 l 1
 221 245 l 1
-9 0 m 1
 -9 90 l 1
 52 90 l 1
 223 462 l 1
 94 462 l 1
 94 552 l 1
 345 552 l 1
 551 90 l 1
 609 90 l 1
 609 0 l 1
 355 0 l 1
 355 90 l 1
 452 90 l 1
 422 155 l 1
 180 155 l 1
 150 90 l 1
 250 90 l 1
 250 0 l 1
 -9 0 l 1
140 603 m 1
 79 640 l 1
 244 780 l 1
 341 780 l 1
 503 639 l 1
 443 603 l 1
 292 705 l 1
 140 603 l 1
EndSplineSet
EndChar

StartChar: Atilde
Encoding: 272 195 128
Width: 600
Flags: HMW
HStem: 0 90<-9 52 -9 52 150 250 355 452 551 609> 155 90<221 383 221 422 180 383> 462 90<94 223 94 345> 612 83<368 401.5 368 423> 672 83<212 244> 739 20G<441 441>
VStem: -9 259<0 90 0 90> 355 254<0 90 0 90>
LayerCount: 2
Fore
SplineSet
221 245 m 1
 383 245 l 1
 302 424 l 1
 221 245 l 1
-9 0 m 1
 -9 90 l 1
 52 90 l 1
 223 462 l 1
 94 462 l 1
 94 552 l 1
 345 552 l 1
 551 90 l 1
 609 90 l 1
 609 0 l 1
 355 0 l 1
 355 90 l 1
 452 90 l 1
 422 155 l 1
 180 155 l 1
 150 90 l 1
 250 90 l 1
 250 0 l 1
 -9 0 l 1
83 636 m 1
 98 689 143 755 226 755 c 0
 263 755 287 739 310 724 c 0
 332 709 353 695 383 695 c 0
 420 695 434 737 441 759 c 1
 527 734 l 1
 512 671 462 612 384 612 c 0
 349 612 327 624 307 637 c 0
 282 653 262 672 226 672 c 0
 198 672 185 646 171 610 c 1
 83 636 l 1
EndSplineSet
EndChar

StartChar: Adieresis
Encoding: 273 196 129
Width: 600
Flags: HMW
HStem: 0 88 153 88 454 88 626 122
VStem: -9 259<0 90 0 90> 355 254<0 90 0 90>
LayerCount: 2
Fore
SplineSet
221 245 m 1
 383 245 l 1
 302 424 l 1
 221 245 l 1
-9 0 m 1
 -9 90 l 1
 52 90 l 1
 223 462 l 1
 94 462 l 1
 94 552 l 1
 345 552 l 1
 551 90 l 1
 609 90 l 1
 609 0 l 1
 355 0 l 1
 355 90 l 1
 452 90 l 1
 422 155 l 1
 180 155 l 1
 150 90 l 1
 250 90 l 1
 250 0 l 1
 -9 0 l 1
143 636 m 1
 143 758 l 1
 256 758 l 1
 256 636 l 1
 143 636 l 1
326 636 m 1
 326 758 l 1
 437 758 l 1
 437 636 l 1
 326 636 l 1
EndSplineSet
EndChar

StartChar: Aring
Encoding: 274 197 130
Width: 600
Flags: HMW
HStem: 0 93 161 94 489 93 601 62<279 301 279 318.5> 739 62<279 301>
VStem: 185 65 330 64<690.5 711.5>
LayerCount: 2
Fore
SplineSet
221 245 m 1
 383 245 l 1
 302 424 l 1
 221 245 l 1
-9 0 m 1
 -9 90 l 1
 52 90 l 1
 223 462 l 1
 94 462 l 1
 94 552 l 1
 345 552 l 1
 551 90 l 1
 609 90 l 1
 609 0 l 1
 355 0 l 1
 355 90 l 1
 452 90 l 1
 422 155 l 1
 180 155 l 1
 150 90 l 1
 250 90 l 1
 250 0 l 1
 -9 0 l 1
251 701 m 0
 251 680 268 663 290 663 c 0
 312 663 330 680 330 701 c 0
 330 722 312 739 290 739 c 0
 268 739 251 722 251 701 c 0
185 701 m 0
 185 756 232 801 290 801 c 0
 347 801 394 756 394 701 c 0
 394 646 347 601 290 601 c 0
 232 601 185 646 185 701 c 0
EndSplineSet
EndChar

StartChar: AE
Encoding: 225 198 131
Width: 600
Flags: HMW
HStem: 0 90<-15 52 -15 52 153 230 396 535> 0 172<535 616 535 616> 159 91<224 298 224 298 183 298> 183 188<438 517 438 517> 389 173<535 616 535 535> 472 90<129 224 129 616 396 396 396 535>
VStem: 298 98<90 159 159 159 322 415 415 415> 438 79<183 232 232 232 322 371 183 371> 535 81<90 172 0 172 389 472 472 472>
LayerCount: 2
Fore
SplineSet
224 250 m 1
 298 250 l 1
 298 415 l 1
 224 250 l 1
-15 0 m 1
 -15 90 l 1
 52 90 l 1
 224 472 l 1
 129 472 l 1
 129 562 l 1
 616 562 l 1
 616 389 l 1
 535 389 l 1
 535 472 l 1
 396 472 l 1
 396 322 l 1
 438 322 l 1
 438 371 l 1
 517 371 l 1
 517 183 l 1
 438 183 l 1
 438 232 l 1
 396 232 l 1
 396 90 l 1
 535 90 l 1
 535 172 l 1
 616 172 l 1
 616 0 l 1
 298 0 l 1
 298 159 l 1
 183 159 l 1
 153 90 l 1
 230 90 l 1
 230 0 l 1
 -15 0 l 1
EndSplineSet
EndChar

StartChar: Ccedilla
Encoding: 275 199 132
Width: 600
Flags: HMW
HStem: -206 21G<288 326.5> -14 92<341 341> 488 92<280 345>
VStem: 31 97<245 360.5 245 382> 258 142 464 97<337 443 443 443 537 580 337 580>
LayerCount: 2
Fore
SplineSet
263 -9 m 1
 126 13 31 140 31 281 c 0
 31 483 178 580 316 580 c 0
 377 580 431 562 464 537 c 1
 464 580 l 1
 561 580 l 1
 561 337 l 1
 464 337 l 1
 464 443 l 1
 422 469 372 488 318 488 c 0
 242 488 128 438 128 283 c 0
 128 207 178 78 319 78 c 0
 404 78 469 118 512 143 c 1
 569 75 l 1
 497 29 429 -10 341 -14 c 1
 340 -27 l 1
 400 -41 400 -97 400 -110 c 0
 400 -173 354 -206 299 -206 c 0
 277 -206 256 -204 223 -178 c 1
 251 -121 l 1
 265 -131 283 -137 297 -137 c 0
 311 -137 322 -130 322 -115 c 0
 322 -103 308 -96 299 -96 c 0
 287 -96 267 -99 254 -102 c 1
 263 -9 l 1
EndSplineSet
EndChar

StartChar: Egrave
Encoding: 276 200 133
Width: 600
Flags: HMW
HStem: 0 90<38 117 38 117 214 469> 237 88<214 316 214 316> 462 90<41 117 41 567 214 214 214 469> 764 20G<187 187>
VStem: 117 97<90 237 325 462> 316 99<173 237 237 237 325 389 173 389> 469 98<90 202 0 202 348 462 462 462>
LayerCount: 2
Fore
SplineSet
145 680 m 1
 187 784 l 1
 490 663 l 1
 463 605 l 1
 145 680 l 1
38 0 m 1
 38 90 l 1
 117 90 l 1
 117 462 l 1
 41 462 l 1
 41 552 l 1
 567 552 l 1
 567 348 l 1
 469 348 l 1
 469 462 l 1
 214 462 l 1
 214 325 l 1
 316 325 l 1
 316 389 l 1
 415 389 l 1
 415 173 l 1
 316 173 l 1
 316 237 l 1
 214 237 l 1
 214 90 l 1
 469 90 l 1
 469 202 l 1
 567 202 l 1
 567 0 l 1
 38 0 l 1
EndSplineSet
EndChar

StartChar: Eacute
Encoding: 277 201 134
Width: 600
Flags: HMW
HStem: 0 90<38 117 38 117 214 467> 237 88<214 316 214 316> 462 90<41 117 41 566 214 214 214 467> 764 20G<471 471>
VStem: 117 97<90 237 325 462> 316 99<173 237 237 237 325 389 173 389> 467 99<90 202 202 202 348 462 462 462>
LayerCount: 2
Fore
SplineSet
189 605 m 1
 168 664 l 1
 471 784 l 1
 513 679 l 1
 189 605 l 1
38 0 m 1
 38 90 l 1
 117 90 l 1
 117 462 l 1
 41 462 l 1
 41 552 l 1
 566 552 l 1
 566 348 l 1
 467 348 l 1
 467 462 l 1
 214 462 l 1
 214 325 l 1
 316 325 l 1
 316 389 l 1
 415 389 l 1
 415 173 l 1
 316 173 l 1
 316 237 l 1
 214 237 l 1
 214 90 l 1
 467 90 l 1
 467 202 l 1
 566 202 l 1
 567 0 l 1
 38 0 l 1
EndSplineSet
EndChar

StartChar: Ecircumflex
Encoding: 278 202 135
Width: 600
Flags: HMW
HStem: 0 89 235 89 461 89 760 20G<255 355 355 355>
VStem: 117 97<90 237 325 462> 316 99<173 237 237 237 325 389 173 389> 468 99
LayerCount: 2
Fore
SplineSet
38 0 m 1
 38 90 l 1
 117 90 l 1
 117 462 l 1
 41 462 l 1
 41 552 l 1
 567 552 l 1
 567 348 l 1
 469 348 l 1
 469 462 l 1
 214 462 l 1
 214 325 l 1
 316 325 l 1
 316 389 l 1
 415 389 l 1
 415 173 l 1
 316 173 l 1
 316 237 l 1
 214 237 l 1
 214 90 l 1
 469 90 l 1
 469 202 l 1
 567 202 l 1
 567 0 l 1
 38 0 l 1
151 603 m 1
 88 640 l 1
 255 780 l 1
 355 780 l 1
 518 639 l 1
 457 603 l 1
 304 705 l 1
 151 603 l 1
EndSplineSet
EndChar

StartChar: Edieresis
Encoding: 279 203 136
Width: 600
Flags: HMW
HStem: 0 88 232 87 454 88 626 122
VStem: 117 97<90 237 325 462> 154 114<636 758 636 758> 316 99<173 237 237 237 325 389 173 389> 340 112<636 758 636 758> 469 98<90 202 0 202 348 462 462 462>
LayerCount: 2
Fore
SplineSet
38 0 m 1
 38 90 l 1
 117 90 l 1
 117 462 l 1
 41 462 l 1
 41 552 l 1
 567 552 l 1
 567 348 l 1
 469 348 l 1
 469 462 l 1
 214 462 l 1
 214 325 l 1
 316 325 l 1
 316 389 l 1
 415 389 l 1
 415 173 l 1
 316 173 l 1
 316 237 l 1
 214 237 l 1
 214 90 l 1
 469 90 l 1
 469 202 l 1
 567 202 l 1
 567 0 l 1
 38 0 l 1
154 636 m 1
 154 758 l 1
 268 758 l 1
 268 636 l 1
 154 636 l 1
340 636 m 1
 340 758 l 1
 452 758 l 1
 452 636 l 1
 340 636 l 1
EndSplineSet
EndChar

StartChar: Igrave
Encoding: 280 204 137
Width: 600
Flags: HMW
HStem: 0 90<77 252 77 252 352 523> 462 90<87 252 87 514 352 352 352 514> 764 20G<186 186>
VStem: 252 100<90 462 90 462>
LayerCount: 2
Fore
SplineSet
143 680 m 1
 186 784 l 1
 489 663 l 1
 463 605 l 1
 143 680 l 1
77 0 m 1
 77 90 l 1
 252 90 l 1
 252 462 l 1
 87 462 l 1
 87 552 l 1
 514 552 l 1
 514 462 l 1
 352 462 l 1
 352 90 l 1
 523 90 l 1
 523 0 l 1
 77 0 l 1
EndSplineSet
EndChar

StartChar: Iacute
Encoding: 281 205 138
Width: 600
Flags: HMW
HStem: 0 90<77 252 77 252 352 523> 462 90<87 252 87 514 352 352 352 514> 764 20G<470 470>
VStem: 252 100<90 462 90 462>
LayerCount: 2
Fore
SplineSet
77 0 m 1
 77 90 l 1
 252 90 l 1
 252 462 l 1
 87 462 l 1
 87 552 l 1
 514 552 l 1
 514 462 l 1
 352 462 l 1
 352 90 l 1
 523 90 l 1
 523 0 l 1
 77 0 l 1
188 605 m 1
 168 664 l 1
 470 784 l 1
 513 679 l 1
 188 605 l 1
EndSplineSet
EndChar

StartChar: Icircumflex
Encoding: 282 206 139
Width: 600
Flags: HMW
HStem: 0 89 461 89 760 20G<254 353 353 353>
VStem: 251 100
LayerCount: 2
Fore
SplineSet
77 0 m 1
 77 90 l 1
 252 90 l 1
 252 462 l 1
 87 462 l 1
 87 552 l 1
 514 552 l 1
 514 462 l 1
 352 462 l 1
 352 90 l 1
 523 90 l 1
 523 0 l 1
 77 0 l 1
149 603 m 1
 86 640 l 1
 254 780 l 1
 353 780 l 1
 517 639 l 1
 456 603 l 1
 303 705 l 1
 149 603 l 1
EndSplineSet
EndChar

StartChar: Idieresis
Encoding: 283 207 140
Width: 600
Flags: HMW
HStem: 0 88 454 88 626 122
VStem: 153 114<636 758 636 758> 252 100<90 462 90 462> 339 113<636 758 636 758>
LayerCount: 2
Fore
SplineSet
77 0 m 1
 77 90 l 1
 252 90 l 1
 252 462 l 1
 87 462 l 1
 87 552 l 1
 514 552 l 1
 514 462 l 1
 352 462 l 1
 352 90 l 1
 523 90 l 1
 523 0 l 1
 77 0 l 1
153 636 m 1
 153 758 l 1
 267 758 l 1
 267 636 l 1
 153 636 l 1
339 636 m 1
 339 758 l 1
 452 758 l 1
 452 636 l 1
 339 636 l 1
EndSplineSet
EndChar

StartChar: Eth
Encoding: 284 208 141
Width: 600
Flags: HMW
HStem: 0 91<18 101 18 101 197 283 283 287> 247 67<29 101 29 101 197 323> 471 91<18 101 18 314 197 197 197 314 314 316>
VStem: 101 96<91 247 314 471> 486 96<225 338>
LayerCount: 2
Fore
SplineSet
197 91 m 1
 283 91 l 2
 417 91 486 162 486 288 c 0
 486 388 439 471 316 471 c 2
 197 471 l 1
 197 314 l 1
 323 314 l 1
 323 247 l 1
 197 247 l 1
 197 91 l 1
18 0 m 1
 18 91 l 1
 101 91 l 1
 101 247 l 1
 29 247 l 1
 29 314 l 1
 101 314 l 1
 101 471 l 1
 18 471 l 1
 18 562 l 1
 314 562 l 2
 500 562 582 457 582 292 c 0
 582 67 442 0 287 0 c 2
 18 0 l 1
EndSplineSet
EndChar

StartChar: Ntilde
Encoding: 285 209 142
Width: 600
Flags: HMW
HStem: -12 92<-1 78 -1 78 171 260> 463 92 609 84
VStem: 78 93<80 402 80 473 80 473> 430 93<162 473 -12 473>
LayerCount: 2
Fore
SplineSet
92 643 m 1
 107 697 151 764 232 764 c 0
 279 764 303 747 323 731 c 0
 341 717 357 703 385 703 c 0
 420 703 435 747 442 769 c 1
 525 743 l 1
 510 679 462 619 386 619 c 0
 353 619 333 631 314 645 c 0
 291 662 271 680 232 680 c 0
 204 680 192 653 177 617 c 1
 92 643 l 1
-1 -12 m 1
 -1 80 l 1
 78 80 l 1
 78 473 l 1
 -1 473 l 1
 -1 565 l 1
 183 565 l 1
 430 162 l 1
 430 473 l 1
 335 473 l 1
 335 565 l 1
 601 565 l 1
 601 473 l 1
 523 473 l 1
 523 -12 l 1
 434 -12 l 1
 171 402 l 1
 171 80 l 1
 260 80 l 1
 260 -12 l 1
 -1 -12 l 1
EndSplineSet
EndChar

StartChar: Ograve
Encoding: 286 210 143
Width: 600
Flags: HMW
HStem: -18 89<240.5 353> 471 91<241 369> 764 20G<187 187>
VStem: 22 98<224 318.5 224 345.5> 483 95<235.5 310>
LayerCount: 2
Fore
SplineSet
144 679 m 1
 187 784 l 1
 486 662 l 1
 460 604 l 1
 144 679 l 1
120 273 m 0
 120 175 180 71 301 71 c 0
 434 71 483 195 483 276 c 0
 483 344 437 471 301 471 c 0
 181 471 120 364 120 273 c 0
22 270 m 0
 22 421 127 562 301 562 c 0
 485 562 578 423 578 272 c 0
 578 53 405 -18 301 -18 c 0
 167 -18 22 76 22 270 c 0
EndSplineSet
EndChar

StartChar: Oacute
Encoding: 287 211 144
Width: 600
Flags: HMW
HStem: -18 89<240.5 353> 471 91<241 369> 764 20G<467 467>
VStem: 22 98<224 318.5 224 345.5> 483 95<235.5 310>
LayerCount: 2
Fore
SplineSet
189 604 m 1
 169 663 l 1
 467 784 l 1
 509 678 l 1
 189 604 l 1
120 273 m 0
 120 175 180 71 301 71 c 0
 434 71 483 195 483 276 c 0
 483 344 437 471 301 471 c 0
 181 471 120 364 120 273 c 0
22 270 m 0
 22 421 127 562 301 562 c 0
 485 562 578 426 578 272 c 0
 578 53 405 -18 301 -18 c 0
 167 -18 22 76 22 270 c 0
EndSplineSet
EndChar

StartChar: Ocircumflex
Encoding: 288 212 145
Width: 600
Flags: HMW
HStem: -18 89<240.5 353> 471 91<241 369> 760 20G<255 353 353 353>
VStem: 22 98<224 318.5 224 345.5> 483 95<235.5 310>
LayerCount: 2
Fore
SplineSet
120 273 m 0
 120 175 180 71 301 71 c 0
 434 71 483 195 483 276 c 0
 483 344 437 471 301 471 c 0
 181 471 120 364 120 273 c 0
22 270 m 0
 22 421 127 562 301 562 c 0
 485 562 578 426 578 272 c 0
 578 53 405 -18 301 -18 c 0
 167 -18 22 76 22 270 c 0
151 602 m 1
 89 639 l 1
 255 780 l 1
 353 780 l 1
 514 638 l 1
 455 602 l 1
 303 705 l 1
 151 602 l 1
EndSplineSet
EndChar

StartChar: Otilde
Encoding: 289 213 146
Width: 600
Flags: HMW
HStem: -18 89<240.5 353> 471 91<241 369> 610 84<377.5 412.5 377.5 434> 670 84<221.5 251.5> 739 20G<454 454>
VStem: 22 98<224 318.5 224 345.5> 483 95<235.5 310>
LayerCount: 2
Fore
SplineSet
120 273 m 0
 120 175 180 71 301 71 c 0
 434 71 483 195 483 276 c 0
 483 344 437 471 301 471 c 0
 181 471 120 364 120 273 c 0
22 270 m 0
 22 421 127 562 301 562 c 0
 485 562 578 426 578 272 c 0
 578 53 405 -18 301 -18 c 0
 167 -18 22 76 22 270 c 0
92 634 m 1
 108 688 153 754 235 754 c 0
 279 754 304 741 323 728 c 0
 346 712 361 694 394 694 c 0
 431 694 446 737 454 759 c 1
 539 733 l 1
 524 669 473 610 395 610 c 0
 352 610 329 628 308 642 c 0
 287 656 268 670 235 670 c 0
 208 670 194 643 180 608 c 1
 92 634 l 1
EndSplineSet
EndChar

StartChar: Odieresis
Encoding: 290 214 147
Width: 600
Flags: HMW
HStem: -18 89<240.5 353> 456 91 624 124
VStem: 22 98<224 318.5 224 345.5> 155 113<634 758 634 758> 338 113<634 758 634 758> 483 95<235.5 310>
LayerCount: 2
Fore
SplineSet
120 273 m 0
 120 175 180 71 301 71 c 0
 434 71 483 195 483 276 c 0
 483 344 437 471 301 471 c 0
 181 471 120 364 120 273 c 0
22 270 m 0
 22 421 127 562 301 562 c 0
 485 562 578 426 578 272 c 0
 578 53 405 -18 301 -18 c 0
 167 -18 22 76 22 270 c 0
155 634 m 1
 155 758 l 1
 268 758 l 1
 268 634 l 1
 155 634 l 1
338 634 m 1
 338 758 l 1
 451 758 l 1
 451 634 l 1
 338 634 l 1
EndSplineSet
EndChar

StartChar: multiply
Encoding: 291 215 148
Width: 600
Flags: HMW
HStem: 39 21G<142 142 458 458> 458 20G<141 141>
LayerCount: 2
Fore
SplineSet
81 100 m 1
 239 259 l 1
 80 418 l 1
 141 478 l 1
 299 319 l 1
 458 475 l 1
 518 414 l 1
 362 258 l 1
 519 100 l 1
 458 39 l 1
 300 198 l 1
 142 39 l 1
 81 100 l 1
EndSplineSet
EndChar

StartChar: Oslash
Encoding: 233 216 149
Width: 600
Flags: HMW
HStem: -22 21G<99 99> -15 91<284 354.5> 489 93<303 322.5> 564 20G<502 502>
VStem: 22 99<260.5 328 260.5 359> 487 91<239.5 296.5>
LayerCount: 2
Fore
SplineSet
207 103 m 1
 232 86 265 76 303 76 c 0
 436 76 487 198 487 281 c 0
 487 312 475 367 453 400 c 1
 207 103 l 1
151 164 m 1
 399 461 l 1
 374 478 342 489 303 489 c 0
 181 489 121 375 121 281 c 0
 121 240 131 194 151 164 c 1
34 24 m 1
 85 85 l 1
 46 134 22 198 22 281 c 0
 22 437 127 581 303 582 c 0
 366 582 419 563 461 533 c 1
 502 584 l 1
 566 536 l 1
 517 477 l 1
 559 420 578 348 578 281 c 0
 578 55 406 -15 303 -15 c 0
 248 -15 194 0 146 30 c 1
 99 -22 l 1
 34 24 l 1
EndSplineSet
EndChar

StartChar: Ugrave
Encoding: 292 217 150
Width: 600
Flags: HMW
HStem: -18 91<243 350 243 363.5> 460 91<4 263 4 84 179 179 179 263 4 338 338 424 519 519 519 596> 764 20G<183 183>
VStem: 84 95<190 213 213 460> 424 95<211 460>
LayerCount: 2
Fore
SplineSet
4 460 m 1
 4 551 l 1
 263 551 l 1
 263 460 l 1
 179 460 l 1
 179 213 l 2
 179 160 187 73 299 73 c 0
 401 73 424 125 424 211 c 2
 424 460 l 1
 338 460 l 1
 338 551 l 1
 596 551 l 1
 596 460 l 1
 519 460 l 1
 519 189 l 2
 519 63 426 -18 301 -18 c 0
 156 -18 84 65 84 190 c 2
 84 460 l 1
 4 460 l 1
140 679 m 1
 183 784 l 1
 476 663 l 1
 450 605 l 1
 140 679 l 1
EndSplineSet
EndChar

StartChar: Uacute
Encoding: 293 218 151
Width: 600
Flags: HMW
HStem: -18 91<243 350 243 363.5> 460 91<4 263 4 84 179 179 179 263 4 338 338 424 519 519 519 596> 764 20G<457 457>
VStem: 84 95<190 213 213 460> 424 95<211 460>
LayerCount: 2
Fore
SplineSet
4 460 m 1
 4 551 l 1
 263 551 l 1
 263 460 l 1
 179 460 l 1
 179 213 l 2
 179 160 187 73 299 73 c 0
 401 73 424 125 424 211 c 2
 424 460 l 1
 338 460 l 1
 338 551 l 1
 596 551 l 1
 596 460 l 1
 519 460 l 1
 519 189 l 2
 519 63 426 -18 301 -18 c 0
 156 -18 84 65 84 190 c 2
 84 460 l 1
 4 460 l 1
185 605 m 1
 164 664 l 1
 457 784 l 1
 498 678 l 1
 185 605 l 1
EndSplineSet
EndChar

StartChar: Ucircumflex
Encoding: 294 219 152
Width: 600
Flags: HMW
HStem: -18 91<243 350 243 363.5> 459 90 760 20G<249 344 344 344>
VStem: 84 95<190 213 213 460> 424 95<211 460>
LayerCount: 2
Fore
SplineSet
4 460 m 1
 4 551 l 1
 263 551 l 1
 263 460 l 1
 179 460 l 1
 179 213 l 2
 179 160 187 73 299 73 c 0
 401 73 424 125 424 211 c 2
 424 460 l 1
 338 460 l 1
 338 551 l 1
 596 551 l 1
 596 460 l 1
 519 460 l 1
 519 189 l 2
 519 63 426 -18 301 -18 c 0
 156 -18 84 65 84 190 c 2
 84 460 l 1
 4 460 l 1
146 603 m 1
 86 639 l 1
 249 780 l 1
 344 780 l 1
 502 638 l 1
 444 603 l 1
 296 705 l 1
 146 603 l 1
EndSplineSet
EndChar

StartChar: Udieresis
Encoding: 295 220 153
Width: 600
Flags: HMW
HStem: -18 89 452 88 626 122
VStem: 84 95<190 213 213 460> 149 111<636 758 636 758> 329 110<636 758 636 758> 424 95<211 460>
LayerCount: 2
Fore
SplineSet
4 460 m 1
 4 551 l 1
 263 551 l 1
 263 460 l 1
 179 460 l 1
 179 213 l 2
 179 160 187 73 299 73 c 0
 401 73 424 125 424 211 c 2
 424 460 l 1
 338 460 l 1
 338 551 l 1
 596 551 l 1
 596 460 l 1
 519 460 l 1
 519 189 l 2
 519 63 426 -18 301 -18 c 0
 156 -18 84 65 84 190 c 2
 84 460 l 1
 4 460 l 1
149 636 m 1
 149 758 l 1
 260 758 l 1
 260 636 l 1
 149 636 l 1
329 636 m 1
 329 758 l 1
 439 758 l 1
 439 636 l 1
 329 636 l 1
EndSplineSet
EndChar

StartChar: Yacute
Encoding: 296 221 154
Width: 600
Flags: HMW
HStem: 0 90<126 250 126 250 347 469> 463 90<11 90 11 249 196 196 196 249 350 405 507 507 507 588> 764 20G<461 461>
VStem: 250 97<90 204 90 204>
LayerCount: 2
Fore
SplineSet
188 606 m 1
 166 665 l 1
 461 784 l 1
 502 679 l 1
 188 606 l 1
126 0 m 1
 126 90 l 1
 250 90 l 1
 250 204 l 1
 90 463 l 1
 11 463 l 1
 11 553 l 1
 249 553 l 1
 249 463 l 1
 196 463 l 1
 299 290 l 1
 405 463 l 1
 350 463 l 1
 350 553 l 1
 588 553 l 1
 588 463 l 1
 507 463 l 1
 347 204 l 1
 347 90 l 1
 469 90 l 1
 469 0 l 1
 126 0 l 1
EndSplineSet
EndChar

StartChar: Thorn
Encoding: 297 222 155
Width: 600
Flags: HMW
HStem: 0 91<45 150 45 150 233 350> 142 80<233 356 233 369> 339 80<233 318 318 363 233 318> 471 91<47 150 47 352 233 233 233 352>
VStem: 150 83<91 142 222 339 419 471> 470 84<247.5 310.5>
LayerCount: 2
Fore
SplineSet
233 222 m 1
 369 222 l 2
 402 222 470 214 470 281 c 0
 470 340 401 339 363 339 c 2
 233 339 l 1
 233 222 l 1
45 0 m 1
 45 91 l 1
 150 91 l 1
 150 471 l 1
 47 471 l 1
 47 562 l 1
 352 562 l 1
 352 471 l 1
 233 471 l 1
 233 419 l 1
 318 419 l 2
 417 419 554 435 554 286 c 0
 554 159 455 142 356 142 c 2
 233 142 l 1
 233 91 l 1
 350 91 l 1
 350 0 l 1
 45 0 l 1
EndSplineSet
EndChar

StartChar: germandbls
Encoding: 251 223 156
Width: 600
Flags: HMW
HStem: -15 94<361.5 410.5 361.5 438> -3 94<13 95 13 95 13 191> 343 94<13 95 13 95> 532 94<257 329>
VStem: 13 178<-3 91 91 91 343 437 437 437> 95 96<91 343 343 343 437 447 -3 499> 419 96<486.5 514.5> 490 97<120 157.5>
LayerCount: 2
Fore
SplineSet
13 -3 m 1
 13 91 l 1
 95 91 l 1
 95 343 l 1
 13 343 l 1
 13 437 l 1
 95 437 l 1
 95 561 119 626 285 626 c 0
 457 626 515 577 515 503 c 0
 515 439 476 419 417 392 c 0
 380 375 344 359 344 337 c 0
 344 312 388 296 436 280 c 0
 509 256 587 233 587 143 c 0
 587 58 504 -15 372 -15 c 0
 318 -15 278 -6 217 30 c 1
 246 117 l 1
 270 91 343 79 380 79 c 0
 441 79 490 103 490 137 c 0
 490 178 430 190 398 201 c 0
 320 229 247 255 247 338 c 0
 247 387 287 416 324 436 c 0
 365 458 419 472 419 501 c 0
 419 528 367 532 291 532 c 0
 223 532 191 528 191 447 c 2
 191 -3 l 1
 13 -3 l 1
EndSplineSet
EndChar

StartChar: agrave
Encoding: 298 224 157
Width: 600
Flags: HMW
HStem: -15 91<191.5 247 191.5 253.5> -3 90<484 567 484 567> 188 90 346 87<269 333> 641 20G<169 169>
VStem: 32 97<109 135.5> 389 95<-3 250 42 250 152 181 181 181> 389 178<-3 42 42 42 -3 181 -3 181>
LayerCount: 2
Fore
SplineSet
389 152 m 1
 389 181 l 1
 366 183 300 189 240 188 c 0
 181 187 129 169 129 125 c 0
 129 93 170 76 213 76 c 0
 281 76 341 110 389 152 c 1
96 305 m 1
 67 384 l 1
 84 396 206 433 314 433 c 0
 438 433 484 372 484 250 c 2
 484 87 l 1
 567 87 l 1
 567 -3 l 1
 389 -3 l 1
 389 42 l 1
 330 7 293 -15 214 -15 c 0
 96 -15 32 62 32 126 c 0
 32 145 41 278 276 278 c 0
 313 278 353 275 389 271 c 1
 390 319 359 346 307 346 c 0
 231 346 126 321 96 305 c 1
127 557 m 1
 169 661 l 1
 471 539 l 1
 448 481 l 1
 127 557 l 1
EndSplineSet
EndChar

StartChar: aacute
Encoding: 299 225 158
Width: 600
Flags: HMW
HStem: -15 91<191.5 247 191.5 253.5> -3 90<484 567 484 567> 188 90 346 87<269 333> 641 20G<453 453>
VStem: 32 97<109 135.5> 389 95<-3 250 42 250 152 181 181 181> 389 178<-3 42 42 42 -3 181 -3 181>
LayerCount: 2
Fore
SplineSet
389 152 m 1
 389 181 l 1
 366 183 300 189 240 188 c 0
 181 187 129 169 129 125 c 0
 129 93 170 76 213 76 c 0
 281 76 341 110 389 152 c 1
96 305 m 1
 67 384 l 1
 84 396 206 433 314 433 c 0
 438 433 484 372 484 250 c 2
 484 87 l 1
 567 87 l 1
 567 -3 l 1
 389 -3 l 1
 389 42 l 1
 330 7 293 -15 214 -15 c 0
 96 -15 32 62 32 126 c 0
 32 145 41 278 276 278 c 0
 313 278 353 275 389 271 c 1
 391 319 359 346 307 346 c 0
 231 346 126 321 96 305 c 1
174 481 m 1
 151 539 l 1
 453 661 l 1
 495 557 l 1
 174 481 l 1
EndSplineSet
EndChar

StartChar: acircumflex
Encoding: 300 226 159
Width: 600
Flags: HMW
HStem: -15 91<191.5 247 191.5 253.5> -3 90<484 567 484 567> 188 90 346 87<269 333> 637 20G<237 337 337 337>
VStem: 32 97<109 135.5> 389 95<-3 250 42 250 152 181 181 181 87 295> 389 178<-3 42 42 42 -3 181 -3 181>
LayerCount: 2
Fore
SplineSet
389 152 m 1
 389 181 l 1
 366 183 300 189 240 188 c 0
 181 187 129 169 129 125 c 0
 129 93 170 76 213 76 c 0
 281 76 341 110 389 152 c 1
96 305 m 1
 67 384 l 1
 84 396 206 433 314 433 c 0
 438 433 484 372 484 250 c 2
 484 87 l 1
 567 87 l 1
 567 -3 l 1
 389 -3 l 1
 389 42 l 1
 330 7 293 -15 214 -15 c 0
 96 -15 32 62 32 126 c 0
 32 145 41 278 276 278 c 0
 313 278 353 275 389 271 c 1
 389 319 359 346 307 346 c 0
 231 346 126 321 96 305 c 1
134 478 m 1
 71 514 l 1
 237 657 l 1
 337 657 l 1
 499 513 l 1
 439 478 l 1
 286 582 l 1
 134 478 l 1
EndSplineSet
EndChar

StartChar: atilde
Encoding: 301 227 160
Width: 600
Flags: HMW
HStem: -15 91<191.5 247 191.5 253.5> -3 90<484 567 484 567> 188 90 346 87<269 333> 548 85<199 228.5> 616 20G<437 437>
VStem: 32 97<109 135.5> 389 95<-3 250 42 250 152 181 181 181 87 295> 389 178<-3 42 42 42 -3 181 -3 181>
LayerCount: 2
Fore
SplineSet
389 152 m 1
 389 181 l 1
 366 183 300 189 240 188 c 0
 181 187 129 169 129 125 c 0
 129 93 170 76 213 76 c 0
 281 76 341 110 389 152 c 1
96 305 m 1
 67 384 l 1
 84 396 206 433 314 433 c 0
 438 433 484 372 484 250 c 2
 484 87 l 1
 567 87 l 1
 567 -3 l 1
 389 -3 l 1
 389 42 l 1
 330 7 293 -15 214 -15 c 0
 96 -15 32 62 32 126 c 0
 32 145 41 278 276 278 c 0
 313 278 353 275 389 271 c 1
 389 319 359 346 307 346 c 0
 231 346 126 321 96 305 c 1
158 486 m 1
 71 511 l 1
 89 555 120 633 219 633 c 0
 250 633 282 614 312 597 c 0
 335 584 358 573 378 573 c 0
 407 573 418 594 437 636 c 1
 523 611 l 1
 512 577 479 489 376 489 c 0
 351 489 324 501 298 515 c 0
 268 531 239 548 218 548 c 0
 180 548 171 510 158 486 c 1
EndSplineSet
EndChar

StartChar: adieresis
Encoding: 302 228 161
Width: 600
Flags: HMW
HStem: -15 91<191.5 247 191.5 253.5> -3 90<484 567 484 567> 188 90 346 87<269 333> 501 124<134 247 134 247 134 320 320 432>
VStem: 32 97<109 135.5> 134 113<501 625 501 625> 320 112<501 625 501 625> 389 95<-3 250 42 250 152 181 181 181 87 295> 389 178<-3 42 42 42 -3 181 -3 181>
LayerCount: 2
Fore
SplineSet
389 152 m 1
 389 181 l 1
 366 183 300 189 240 188 c 0
 181 187 129 169 129 125 c 0
 129 93 170 76 213 76 c 0
 281 76 341 110 389 152 c 1
96 305 m 1
 67 384 l 1
 84 396 206 433 314 433 c 0
 438 433 484 372 484 250 c 2
 484 87 l 1
 567 87 l 1
 567 -3 l 1
 389 -3 l 1
 389 42 l 1
 330 7 293 -15 214 -15 c 0
 96 -15 32 62 32 126 c 0
 32 145 41 278 276 278 c 0
 313 278 353 275 389 271 c 1
 389 319 359 346 307 346 c 0
 231 346 126 321 96 305 c 1
134 501 m 1
 134 625 l 1
 247 625 l 1
 247 501 l 1
 134 501 l 1
320 501 m 1
 320 625 l 1
 432 625 l 1
 432 501 l 1
 320 501 l 1
EndSplineSet
EndChar

StartChar: aring
Encoding: 303 229 162
Width: 600
Flags: HMW
HStem: -15 91<191.5 247 191.5 253.5> -3 90<484 567 484 567> 188 90 346 87<269 333> 480 198
VStem: 32 97<109 135.5> 389 95<-3 250 42 250 152 181 181 181> 389 178<-3 42 42 42 -3 181 -3 181>
LayerCount: 2
Fore
SplineSet
389 152 m 1
 389 181 l 1
 366 183 300 189 240 188 c 0
 181 187 129 169 129 125 c 0
 129 93 170 76 213 76 c 0
 281 76 341 110 389 152 c 1
96 305 m 1
 67 384 l 1
 84 396 206 433 314 433 c 0
 438 433 484 372 484 250 c 2
 484 87 l 1
 567 87 l 1
 567 -3 l 1
 389 -3 l 1
 389 42 l 1
 330 7 293 -15 214 -15 c 0
 96 -15 32 62 32 126 c 0
 32 145 41 278 276 278 c 0
 313 278 353 275 389 271 c 1
 386 319 359 346 307 346 c 0
 231 346 126 321 96 305 c 1
243 588 m 0
 243 566 264 553 288 553 c 0
 313 553 332 566 332 588 c 0
 332 609 313 619 288 619 c 0
 264 619 243 609 243 588 c 0
178 588 m 0
 178 642 227 678 288 678 c 0
 349 678 398 642 398 588 c 0
 398 534 349 493 288 493 c 0
 227 493 178 534 178 588 c 0
EndSplineSet
EndChar

StartChar: ae
Encoding: 241 230 163
Width: 600
Flags: HMW
HStem: -15 98<411.5 456.5 403 470.5> -14 21G<98 177> 177 93<347 499 343 592 347 347> 195 91<147 182.5 104.5 184.5> 360 94<409 457.5>
VStem: -2 97<110 145.5 110 160.5> 244 99<133 270 185 270>
LayerCount: 2
Fore
SplineSet
244 133 m 1
 244 185 l 1
 217 192 194 195 175 195 c 0
 119 195 95 164 95 127 c 0
 95 93 123 80 141 80 c 0
 182 80 216 104 244 133 c 1
343 270 m 1
 499 270 l 1
 497 292 486 360 429 360 c 0
 387 360 347 331 343 270 c 1
293 58 m 1
 261 32 213 -14 141 -14 c 0
 55 -14 -2 47 -2 125 c 0
 -2 196 45 286 164 286 c 0
 201 286 220 283 244 281 c 1
 246 343 234 360 186 360 c 0
 143 360 90 346 48 330 c 1
 22 412 l 1
 51 435 128 454 195 453 c 0
 250 452 298 437 310 400 c 1
 339 435 387 454 431 454 c 0
 549 454 595 360 595 235 c 0
 595 216 594 197 592 177 c 1
 347 177 l 1
 347 174 l 2
 347 153 361 83 445 83 c 0
 468 83 509 88 571 112 c 1
 603 20 l 1
 556 -1 497 -15 444 -15 c 0
 379 -15 320 1 293 58 c 1
EndSplineSet
EndChar

StartChar: ccedilla
Encoding: 304 231 164
Width: 600
Flags: HMW
HStem: -206 21G<299.5 347.5> -7 92<275 275> 355 94<259 330 220.5 330.5>
VStem: 47 97<177 264 177 281.5> 271 141 422 96<249 340 340 340 440 449 249 449>
LayerCount: 2
Fore
SplineSet
236 -177 m 1
 265 -122 l 1
 274 -131 294 -135 311 -135 c 0
 325 -135 336 -128 336 -114 c 0
 336 -99 327 -93 315 -93 c 0
 299 -93 278 -99 268 -100 c 1
 275 -7 l 1
 158 3 47 85 47 226 c 0
 47 337 130 449 311 449 c 0
 349 449 387 450 422 440 c 1
 422 449 l 1
 518 449 l 1
 518 249 l 1
 422 249 l 1
 422 340 l 1
 390 355 350 355 311 355 c 0
 207 355 144 304 144 224 c 0
 144 130 225 85 307 85 c 0
 386 85 440 118 498 159 c 1
 552 86 l 1
 497 42 428 8 354 -4 c 1
 354 -22 l 1
 403 -34 412 -78 412 -105 c 0
 412 -155 380 -206 315 -206 c 0
 284 -206 257 -194 236 -177 c 1
EndSplineSet
EndChar

StartChar: egrave
Encoding: 305 232 165
Width: 600
Flags: HMW
HStem: -15 90<237 336 237 344> 170 91<136 434 143 434 143 535> 342 92<261.5 322> 641 20G<181 181>
LayerCount: 2
Fore
SplineSet
143 261 m 1
 434 261 l 1
 415 325 352 342 292 342 c 0
 231 342 164 317 143 261 c 1
136 170 m 1
 141 135 175 75 299 75 c 0
 373 75 453 105 517 135 c 1
 561 56 l 1
 485 15 389 -15 299 -15 c 0
 126 -15 38 91 38 207 c 0
 38 358 177 434 297 434 c 0
 472 434 561 306 535 170 c 1
 136 170 l 1
138 559 m 1
 181 661 l 1
 478 542 l 1
 456 483 l 1
 138 559 l 1
EndSplineSet
EndChar

StartChar: eacute
Encoding: 306 233 166
Width: 600
Flags: HMW
HStem: -15 90<237 336 237 344> 170 91<136 434 143 434 143 535> 342 92<261.5 322> 641 20G<461 461>
LayerCount: 2
Fore
SplineSet
143 261 m 1
 434 261 l 1
 415 325 352 342 292 342 c 0
 231 342 164 317 143 261 c 1
136 170 m 1
 141 135 175 75 299 75 c 0
 373 75 453 105 517 135 c 1
 561 56 l 1
 485 15 389 -15 299 -15 c 0
 126 -15 38 91 38 207 c 0
 38 358 177 434 297 434 c 0
 472 434 561 306 535 170 c 1
 136 170 l 1
185 482 m 1
 162 541 l 1
 461 661 l 1
 504 558 l 1
 185 482 l 1
EndSplineSet
EndChar

StartChar: ecircumflex
Encoding: 307 234 167
Width: 600
Flags: HMW
HStem: -15 90<237 336 237 344> 170 91<136 434 143 434 143 535> 342 92<261.5 322> 637 20G<246 345 345 345>
LayerCount: 2
Fore
SplineSet
143 261 m 1
 434 261 l 1
 415 325 352 342 292 342 c 0
 231 342 164 317 143 261 c 1
136 170 m 1
 141 135 175 75 299 75 c 0
 373 75 453 105 517 135 c 1
 561 56 l 1
 485 15 389 -15 299 -15 c 0
 126 -15 38 91 38 207 c 0
 38 358 177 434 297 434 c 0
 472 434 561 306 535 170 c 1
 136 170 l 1
143 479 m 1
 81 514 l 1
 246 657 l 1
 345 657 l 1
 507 513 l 1
 447 479 l 1
 295 582 l 1
 143 479 l 1
EndSplineSet
EndChar

StartChar: edieresis
Encoding: 308 235 168
Width: 600
Flags: HMW
HStem: -15 90<237 336 237 344> 170 91<136 434 143 434 143 535> 342 92<261.5 322> 499 126<144 256 144 256 144 327 327 439>
VStem: 144 112<499 625 499 625> 327 112<499 625 499 625>
LayerCount: 2
Fore
SplineSet
143 261 m 1
 434 261 l 1
 415 325 352 342 292 342 c 0
 231 342 164 317 143 261 c 1
136 170 m 1
 141 135 175 75 299 75 c 0
 373 75 453 105 517 135 c 1
 561 56 l 1
 485 15 389 -15 299 -15 c 0
 126 -15 38 91 38 207 c 0
 38 358 177 434 297 434 c 0
 472 434 561 306 535 170 c 1
 136 170 l 1
144 499 m 1
 144 625 l 1
 256 625 l 1
 256 499 l 1
 144 499 l 1
327 499 m 1
 327 625 l 1
 439 625 l 1
 439 499 l 1
 327 499 l 1
EndSplineSet
EndChar

StartChar: igrave
Encoding: 309 236 169
Width: 600
Flags: HMW
HStem: 0 91<77 251 77 251 348 523> 332 91<114 251 114 348> 641 20G<174 174>
VStem: 251 97<91 332 332 332>
LayerCount: 2
Fore
SplineSet
77 0 m 1
 77 91 l 1
 251 91 l 1
 251 332 l 1
 114 332 l 1
 114 423 l 1
 348 423 l 1
 348 91 l 1
 523 91 l 1
 523 0 l 1
 77 0 l 1
131 558 m 1
 174 661 l 1
 475 541 l 1
 451 483 l 1
 131 558 l 1
EndSplineSet
EndChar

StartChar: iacute
Encoding: 310 237 170
Width: 600
Flags: HMW
HStem: 0 91<77 251 77 251 348 523> 332 91<114 251 114 348> 641 20G<456 456>
VStem: 251 97<91 332 332 332>
LayerCount: 2
Fore
SplineSet
77 0 m 1
 77 91 l 1
 251 91 l 1
 251 332 l 1
 114 332 l 1
 114 423 l 1
 348 423 l 1
 348 91 l 1
 523 91 l 1
 523 0 l 1
 77 0 l 1
180 483 m 1
 156 541 l 1
 456 661 l 1
 498 558 l 1
 180 483 l 1
EndSplineSet
EndChar

StartChar: icircumflex
Encoding: 311 238 171
Width: 600
Flags: HMW
HStem: 0 90 330 91 637 20G<240 343 343 343>
VStem: 249 102
LayerCount: 2
Fore
SplineSet
84 0 m 1
 84 91 l 1
 258 91 l 1
 258 332 l 1
 121 332 l 1
 121 423 l 1
 355 423 l 1
 355 91 l 1
 530 91 l 1
 530 0 l 1
 84 0 l 1
70 516 m 1
 240 657 l 1
 343 657 l 1
 510 515 l 1
 448 480 l 1
 291 582 l 1
 134 480 l 1
 70 516 l 1
EndSplineSet
EndChar

StartChar: idieresis
Encoding: 312 239 172
Width: 600
Flags: HMW
HStem: 0 91<77 251 77 251 348 523> 333 91<114 251 114 348> 500 125<140 252 140 252 140 323 323 436>
VStem: 140 112<500 625 500 625> 251 97<91 333 333 333> 323 113<500 625 500 625>
LayerCount: 2
Fore
SplineSet
77 0 m 1
 77 91 l 1
 251 91 l 1
 251 333 l 1
 114 333 l 1
 114 424 l 1
 348 424 l 1
 348 91 l 1
 523 91 l 1
 523 0 l 1
 77 0 l 1
140 500 m 1
 140 625 l 1
 252 625 l 1
 252 500 l 1
 140 500 l 1
323 500 m 1
 323 625 l 1
 436 625 l 1
 436 500 l 1
 323 500 l 1
EndSplineSet
EndChar

StartChar: eth
Encoding: 313 240 173
Width: 600
Flags: HMW
HStem: -27 88<265.5 338 265.5 385> 319 89<265 335.5 221.5 353> 606 20G<162 162>
VStem: 57 93<143 234 143 244.5> 451 91<149.5 221.5>
LayerCount: 2
Fore
SplineSet
150 188 m 0
 150 98 228 61 303 61 c 0
 373 61 451 99 451 190 c 0
 451 253 406 319 300 319 c 0
 230 319 150 280 150 188 c 0
189 436 m 1
 155 490 l 1
 235 528 l 1
 203 542 169 558 135 566 c 1
 162 626 l 1
 202 619 281 582 309 564 c 1
 438 625 l 1
 469 571 l 1
 374 529 l 1
 424 498 542 391 542 215 c 0
 542 84 468 -27 302 -27 c 0
 139 -27 57 81 57 189 c 0
 57 300 139 408 304 408 c 0
 367 408 387 396 417 378 c 1
 416 382 372 450 302 491 c 1
 189 436 l 1
EndSplineSet
EndChar

StartChar: ntilde
Encoding: 314 241 174
Width: 600
Flags: HMW
HStem: 0 92<14 95 14 95 191 271 335 413 509 587> 351 90<323 372.5> 351 92<13 95 13 191> 616 20G<451 451>
VStem: 13 178<387 443 92 443 92 443> 95 96<92 286 92 351 92 351> 413 96<92 281 281 300.5>
LayerCount: 2
Fore
SplineSet
14 0 m 1
 14 92 l 1
 95 92 l 1
 95 351 l 1
 13 351 l 1
 13 443 l 1
 191 443 l 1
 191 387 l 1
 233 414 291 441 347 441 c 0
 437 441 509 393 509 302 c 2
 509 92 l 1
 587 92 l 1
 587 0 l 1
 335 0 l 1
 335 92 l 1
 413 92 l 1
 413 281 l 2
 413 320 407 351 338 351 c 0
 308 351 241 329 191 286 c 1
 191 92 l 1
 271 92 l 1
 271 0 l 1
 14 0 l 1
93 513 m 1
 111 556 141 634 238 634 c 0
 271 634 304 611 336 594 c 0
 356 583 376 574 394 574 c 0
 423 574 433 595 451 636 c 1
 537 612 l 1
 525 578 493 490 392 490 c 0
 359 490 330 503 305 516 c 0
 267 536 242 545 220 543 c 0
 198 541 190 507 179 487 c 1
 93 513 l 1
EndSplineSet
EndChar

StartChar: ograve
Encoding: 315 242 175
Width: 600
Flags: HMW
HStem: -16 92 344 92<250.5 355.5> 641 20G<186 186>
VStem: 30 100<161.5 249 161.5 282.5> 471 99<163.5 247>
LayerCount: 2
Fore
SplineSet
130 207 m 0
 130 116 230 72 298 72 c 0
 372 72 471 120 471 207 c 0
 471 287 413 344 298 344 c 0
 203 344 130 291 130 207 c 0
30 207 m 0
 30 358 157 436 298 436 c 0
 456 436 570 351 570 207 c 0
 570 48 421 -16 298 -16 c 0
 180 -16 30 42 30 207 c 0
144 557 m 1
 186 661 l 1
 493 540 l 1
 470 482 l 1
 144 557 l 1
EndSplineSet
EndChar

StartChar: oacute
Encoding: 316 243 176
Width: 600
Flags: HMW
HStem: -15 92 344 92<250.5 355.5> 641 20G<475 475>
VStem: 30 100<161.5 249 161.5 282.5> 471 99<163.5 247>
LayerCount: 2
Fore
SplineSet
130 207 m 0
 130 116 230 72 298 72 c 0
 372 72 471 120 471 207 c 0
 471 287 413 344 298 344 c 0
 203 344 130 291 130 207 c 0
30 207 m 0
 30 358 157 436 298 436 c 0
 456 436 570 351 570 207 c 0
 570 48 421 -16 298 -16 c 0
 180 -16 30 42 30 207 c 0
191 482 m 1
 168 540 l 1
 475 661 l 1
 517 557 l 1
 191 482 l 1
EndSplineSet
EndChar

StartChar: ocircumflex
Encoding: 317 244 177
Width: 600
Flags: HMW
HStem: -15 92 344 92<250.5 355.5> 637 20G<254 357 357 357>
VStem: 30 100<161.5 249 161.5 282.5> 471 99<163.5 247>
LayerCount: 2
Fore
SplineSet
130 207 m 0
 130 116 230 72 298 72 c 0
 372 72 471 120 471 207 c 0
 471 287 413 344 298 344 c 0
 203 344 130 291 130 207 c 0
30 207 m 0
 30 358 157 436 298 436 c 0
 456 436 570 351 570 207 c 0
 570 48 421 -16 298 -16 c 0
 180 -16 30 42 30 207 c 0
150 478 m 1
 87 514 l 1
 254 657 l 1
 357 657 l 1
 521 512 l 1
 461 478 l 1
 306 582 l 1
 150 478 l 1
EndSplineSet
EndChar

StartChar: otilde
Encoding: 318 245 178
Width: 600
Flags: HMW
HStem: -15 92 344 92<250.5 355.5> 549 85<218.5 246> 616 20G<457 457>
VStem: 30 100<161.5 249 161.5 282.5> 471 99<163.5 247>
LayerCount: 2
Fore
SplineSet
130 207 m 0
 130 116 230 72 298 72 c 0
 372 72 471 120 471 207 c 0
 471 287 413 344 298 344 c 0
 203 344 130 291 130 207 c 0
30 207 m 0
 30 358 157 436 298 436 c 0
 456 436 570 351 570 207 c 0
 570 48 421 -16 298 -16 c 0
 180 -16 30 42 30 207 c 0
88 512 m 1
 105 556 137 634 238 634 c 0
 266 634 295 618 323 603 c 0
 350 588 376 574 399 574 c 0
 429 574 439 595 457 636 c 1
 545 612 l 1
 535 578 502 489 396 489 c 0
 359 489 329 506 301 522 c 0
 277 536 256 549 236 549 c 0
 201 549 188 512 177 486 c 1
 88 512 l 1
EndSplineSet
EndChar

StartChar: odieresis
Encoding: 319 246 179
Width: 600
Flags: HMW
HStem: -15 92 344 92<250.5 355.5> 499 126<151 265 151 265 151 339 339 453>
VStem: 30 100<161.5 249 161.5 282.5> 151 114<499 625 499 625> 339 114<499 625 499 625> 471 99<163.5 247>
LayerCount: 2
Fore
SplineSet
130 207 m 0
 130 116 230 72 298 72 c 0
 372 72 471 120 471 207 c 0
 471 287 413 344 298 344 c 0
 203 344 130 291 130 207 c 0
30 207 m 0
 30 358 157 436 298 436 c 0
 456 436 570 351 570 207 c 0
 570 48 421 -16 298 -16 c 0
 180 -16 30 42 30 207 c 0
151 499 m 1
 151 625 l 1
 265 625 l 1
 265 499 l 1
 151 499 l 1
339 499 m 1
 339 625 l 1
 453 625 l 1
 453 499 l 1
 339 499 l 1
EndSplineSet
EndChar

StartChar: divide
Encoding: 320 247 180
Width: 600
Flags: HMW
HStem: 16 137<282.5 323.5> 203 110<71 529 71 529> 363 137<282.5 323.5>
VStem: 229 148<65.5 103.5 412.5 450.5>
CounterMasks: 1 e0
LayerCount: 2
Fore
SplineSet
229 84 m 0
 229 123 262 153 303 153 c 0
 344 153 377 123 377 84 c 0
 377 47 344 16 303 16 c 0
 262 16 229 47 229 84 c 0
229 431 m 0
 229 470 262 500 303 500 c 0
 344 500 377 470 377 431 c 0
 377 394 344 363 303 363 c 0
 262 363 229 394 229 431 c 0
71 203 m 1
 71 313 l 1
 529 313 l 1
 529 203 l 1
 71 203 l 1
EndSplineSet
EndChar

StartChar: oslash
Encoding: 249 248 181
Width: 600
Flags: HMW
HStem: -24 21G<97 97> -17 94<286 347.5 286 374.5> 368 95<252.5 314>
VStem: 30 98<206 261 206 288> 473 97<181 235.5>
LayerCount: 2
Fore
SplineSet
223 92 m 1
 246 82 272 77 300 77 c 0
 395 77 473 141 473 221 c 0
 473 250 463 277 445 299 c 1
 378 236 292 156 223 92 c 1
157 141 m 1
 225 205 310 285 380 350 c 1
 356 360 328 368 300 368 c 0
 205 368 128 301 128 221 c 0
 128 191 138 164 157 141 c 1
39 30 m 1
 39 30 57 47 87 75 c 1
 51 116 30 166 30 222 c 0
 30 354 151 463 300 463 c 0
 357 463 410 446 453 419 c 1
 484 448 504 460 504 460 c 2
 504 461 560 409 560 409 c 1
 560 409 544 392 516 365 c 1
 550 325 570 275 570 222 c 0
 570 90 449 -17 300 -17 c 0
 244 -17 193 -2 150 23 c 1
 119 -5 97 -24 97 -24 c 2
 95 -23 41 30 39 30 c 1
EndSplineSet
EndChar

StartChar: ugrave
Encoding: 321 249 182
Width: 600
Flags: HMW
HStem: -15 92 -2 91<504 585 504 585> 331 91<15 189 15 96 331 410> 641 20G<170 170>
VStem: 15 174<331 422> 96 93<151 331 331 331> 331 173<331 422 89 422> 410 94<-2 422 37 422 144 331 331 331> 410 175<-2 37 37 37 -2 331>
LayerCount: 2
Fore
SplineSet
15 331 m 1
 15 422 l 1
 189 422 l 1
 189 149 l 2
 189 97 232 76 281 77 c 0
 331 78 388 104 410 144 c 1
 410 331 l 1
 331 331 l 1
 331 422 l 1
 504 422 l 1
 504 89 l 1
 585 89 l 1
 585 -2 l 1
 410 -2 l 1
 410 37 l 1
 377 7 326 -15 274 -15 c 0
 156 -14 96 41 96 151 c 2
 96 331 l 1
 15 331 l 1
131 559 m 1
 170 661 l 1
 466 541 l 1
 443 481 l 1
 131 559 l 1
EndSplineSet
EndChar

StartChar: uacute
Encoding: 322 250 183
Width: 600
Flags: HMW
HStem: -15 92 -2 91<504 585 504 585> 331 91<15 189 15 96 331 410> 641 20G<449 449>
VStem: 15 174<331 422> 96 93<151 331 331 331> 331 173<331 422 89 422> 410 94<-2 422 37 422 144 331 331 331> 410 175<-2 37 37 37 -2 331>
LayerCount: 2
Fore
SplineSet
15 331 m 1
 15 422 l 1
 189 422 l 1
 189 149 l 2
 189 97 232 76 281 77 c 0
 331 78 388 104 410 144 c 1
 410 331 l 1
 331 331 l 1
 331 422 l 1
 504 422 l 1
 504 89 l 1
 585 89 l 1
 585 -2 l 1
 410 -2 l 1
 410 37 l 1
 377 7 326 -15 274 -15 c 0
 156 -14 96 41 96 151 c 2
 96 331 l 1
 15 331 l 1
175 482 m 1
 152 541 l 1
 449 661 l 1
 490 558 l 1
 175 482 l 1
EndSplineSet
EndChar

StartChar: ucircumflex
Encoding: 323 251 184
Width: 600
Flags: HMW
HStem: -15 92 -2 91<504 585 504 585> 331 91<15 189 15 96 331 410> 637 20G<239 335 335 335>
VStem: 15 174<331 422> 96 93<151 331 331 331> 331 173<331 422 89 422> 410 94<-2 422 37 422 144 331 331 331> 410 175<-2 37 37 37 -2 331>
LayerCount: 2
Fore
SplineSet
15 331 m 1
 15 422 l 1
 189 422 l 1
 189 149 l 2
 189 97 232 76 281 77 c 0
 331 78 388 104 410 144 c 1
 410 331 l 1
 331 331 l 1
 331 422 l 1
 504 422 l 1
 504 89 l 1
 585 89 l 1
 585 -2 l 1
 410 -2 l 1
 410 37 l 1
 377 7 326 -15 274 -15 c 0
 156 -14 96 41 96 151 c 2
 96 331 l 1
 15 331 l 1
137 477 m 1
 76 513 l 1
 239 657 l 1
 335 657 l 1
 495 512 l 1
 436 477 l 1
 287 582 l 1
 137 477 l 1
EndSplineSet
EndChar

StartChar: udieresis
Encoding: 324 252 185
Width: 600
Flags: HMW
HStem: -15 92 -2 91<504 585 504 585> 331 91<15 189 15 96 331 410> 500 125<140 250 140 250 140 319 319 429>
VStem: 15 174<331 422> 96 93<151 331 331 331> 140 110<500 625 500 625> 319 110<500 625 500 625> 331 173<331 422 89 422> 410 94<-2 422 37 422 144 331 331 331> 410 175<-2 37 37 37 -2 331>
LayerCount: 2
Fore
SplineSet
15 331 m 1
 15 422 l 1
 189 422 l 1
 189 149 l 2
 189 97 232 76 281 77 c 0
 331 78 388 104 410 144 c 1
 410 331 l 1
 331 331 l 1
 331 422 l 1
 504 422 l 1
 504 89 l 1
 585 89 l 1
 585 -2 l 1
 410 -2 l 1
 410 37 l 1
 377 7 326 -15 274 -15 c 0
 156 -14 96 41 96 151 c 2
 96 331 l 1
 15 331 l 1
140 500 m 1
 140 625 l 1
 250 625 l 1
 250 500 l 1
 140 500 l 1
319 500 m 1
 319 625 l 1
 429 625 l 1
 429 500 l 1
 319 500 l 1
EndSplineSet
EndChar

StartChar: yacute
Encoding: 325 253 186
Width: 600
Flags: HMW
HStem: -142 87<40 154 261 349 40 154> 347 87<-2 74 -2 229 180 180 180 229 377 422 527 527 527 603> 641 20G<471 471>
LayerCount: 2
Fore
SplineSet
40 -55 m 1
 154 -55 l 1
 240 72 l 1
 74 347 l 1
 -2 347 l 1
 -2 434 l 1
 229 434 l 1
 229 347 l 1
 180 347 l 1
 294 155 l 1
 422 347 l 1
 377 347 l 1
 377 434 l 1
 603 434 l 1
 603 347 l 1
 527 347 l 1
 261 -55 l 1
 349 -55 l 1
 349 -142 l 1
 40 -142 l 1
 40 -55 l 1
197 491 m 1
 173 546 l 1
 471 661 l 1
 512 562 l 1
 197 491 l 1
EndSplineSet
EndChar

StartChar: thorn
Encoding: 326 254 187
Width: 600
Flags: HMW
HStem: -142 89<8 91 189 341 8 91> 32 88<318.5 381.5 318.5 420.5> 382 89<322.5 383> 537 89<8 91 8 189>
VStem: 8 181<-142 79 -53 79 537 626> 91 98<-53 79 425 537 537 537> 493 99<213 294.5>
LayerCount: 2
Fore
SplineSet
185 253 m 0
 185 146 295 120 342 120 c 0
 421 120 493 173 493 253 c 0
 493 336 423 382 343 382 c 0
 302 382 185 363 185 253 c 0
8 -53 m 1
 91 -53 l 1
 91 537 l 1
 8 537 l 1
 8 626 l 1
 189 626 l 1
 189 425 l 1
 230 455 288 471 346 471 c 0
 449 471 592 406 592 255 c 0
 592 131 491 32 350 32 c 0
 267 32 211 65 189 79 c 1
 189 -53 l 1
 341 -53 l 1
 341 -142 l 1
 8 -142 l 1
 8 -53 l 1
EndSplineSet
EndChar

StartChar: ydieresis
Encoding: 327 255 188
Width: 600
Flags: HMW
HStem: -142 86<40 154 261 339 40 154> 346 87<-2 74 -2 229 180 180 180 229 377 422 527 527 527 603> 505 120<157 268 157 268 157 339 339 450>
VStem: 157 111<505 625 505 625> 339 111<505 625 505 625>
LayerCount: 2
Fore
SplineSet
40 -56 m 1
 154 -56 l 1
 240 73 l 1
 74 346 l 1
 -2 346 l 1
 -2 433 l 1
 229 433 l 1
 229 346 l 1
 180 346 l 1
 294 154 l 1
 422 346 l 1
 377 346 l 1
 377 433 l 1
 603 433 l 1
 603 346 l 1
 527 346 l 1
 261 -56 l 1
 339 -56 l 1
 339 -142 l 1
 40 -142 l 1
 40 -56 l 1
157 505 m 1
 157 625 l 1
 268 625 l 1
 268 505 l 1
 157 505 l 1
339 505 m 1
 339 625 l 1
 450 625 l 1
 450 505 l 1
 339 505 l 1
EndSplineSet
EndChar

StartChar: Idot
Encoding: 328 304 189
Width: 600
Flags: HMW
HStem: 0 91<77 251 77 251 352 523> 441 91<80 251 80 520 352 352 352 520> 471 91 605 143<246 357 246 357>
VStem: 251 101<91 441 91 441>
LayerCount: 2
Fore
SplineSet
246 605 m 1
 246 748 l 1
 357 748 l 1
 357 605 l 1
 246 605 l 1
77 0 m 1
 77 91 l 1
 251 91 l 1
 251 441 l 1
 80 441 l 1
 80 532 l 1
 520 532 l 1
 520 441 l 1
 352 441 l 1
 352 91 l 1
 523 91 l 1
 523 0 l 1
 77 0 l 1
EndSplineSet
EndChar

StartChar: dotlessi
Encoding: 245 305 190
Width: 600
Flags: HMW
HStem: 0 94<77 250 77 250 349 523> 345 94<114 250 114 349>
VStem: 250 99<94 345 345 345>
LayerCount: 2
Fore
SplineSet
77 0 m 1
 77 94 l 1
 250 94 l 1
 250 345 l 1
 114 345 l 1
 114 439 l 1
 349 439 l 1
 349 94 l 1
 523 94 l 1
 523 0 l 1
 77 0 l 1
EndSplineSet
EndChar

StartChar: IJ
Encoding: 329 306 191
Width: 600
Flags: HMW
HStem: -18 91<-15 64 -15 64 165 246> 471 91<-14 64 -14 243 165 165 165 243>
VStem: 64 101<73 471 73 471> 269 98<132.5 171 171 278> 468 96<194 195 195 470>
LayerCount: 2
Fore
SplineSet
269 50 m 1
 269 278 l 1
 367 278 l 1
 367 171 l 2
 367 94 366 72 414 72 c 0
 467 72 468 128 468 194 c 2
 468 470 l 1
 353 470 l 1
 353 562 l 1
 615 562 l 1
 615 470 l 1
 564 470 l 1
 564 195 l 2
 564 56 543 -18 417 -18 c 0
 311 -18 288 31 269 50 c 1
-15 -18 m 1
 -15 73 l 1
 64 73 l 1
 64 471 l 1
 -14 471 l 1
 -14 562 l 1
 243 562 l 1
 243 471 l 1
 165 471 l 1
 165 73 l 1
 246 73 l 1
 246 -18 l 1
 -15 -18 l 1
EndSplineSet
EndChar

StartChar: ij
Encoding: 330 307 192
Width: 600
Flags: HMW
HStem: -143 89 -143 95<16 82 180 243 16 82> 365 91<347 479 347 583> 425 20G<35 180 180 180> 514 144<447 565>
VStem: 35 145<349 445 -48 445> 69 111<515 658> 82 98<-48 349 349 349> 447 118<514 658 514 658>
LayerCount: 2
Fore
SplineSet
303 -35 m 1
 336 -45 350 -54 389 -54 c 0
 469 -54 479 -17 479 52 c 2
 479 365 l 1
 347 365 l 1
 347 456 l 1
 583 456 l 1
 583 48 l 2
 583 -11 592 -146 385 -146 c 0
 324 -146 309 -130 279 -126 c 1
 303 -35 l 1
447 514 m 1
 447 658 l 1
 565 658 l 1
 565 514 l 1
 447 514 l 1
16 -48 m 1
 82 -48 l 1
 82 349 l 1
 35 349 l 1
 35 445 l 1
 180 445 l 1
 180 -48 l 1
 243 -48 l 1
 243 -143 l 1
 16 -143 l 1
 16 -48 l 1
69 515 m 1
 69 658 l 1
 180 658 l 1
 180 515 l 1
 69 515 l 1
EndSplineSet
EndChar

StartChar: Lslash
Encoding: 232 321 193
Width: 600
Flags: HMW
HStem: 0 91<30 131 30 131 229 470> 471 91<30 131 30 356 229 229 229 356>
VStem: 131 98<91 218 218 218 309 471> 470 99<91 264 0 264>
LayerCount: 2
Fore
SplineSet
30 0 m 1
 30 91 l 1
 131 91 l 1
 131 218 l 1
 46 196 l 1
 46 259 l 1
 131 283 l 1
 131 471 l 1
 30 471 l 1
 30 562 l 1
 356 562 l 1
 356 471 l 1
 229 471 l 1
 229 309 l 1
 391 355 l 1
 391 293 l 1
 229 245 l 1
 229 91 l 1
 470 91 l 1
 470 264 l 1
 569 264 l 1
 569 0 l 1
 30 0 l 1
EndSplineSet
EndChar

StartChar: lslash
Encoding: 248 322 194
Width: 600
Flags: HMW
HStem: 0 94<77 250 77 250 349 523> 532 94<83 250 83 349>
VStem: 250 99<94 279 279 279 372 532 532 532>
LayerCount: 2
Fore
SplineSet
77 0 m 1
 77 94 l 1
 250 94 l 1
 250 279 l 1
 133 247 l 1
 133 311 l 1
 250 345 l 1
 250 532 l 1
 83 532 l 1
 83 626 l 1
 349 626 l 1
 349 372 l 1
 475 408 l 1
 475 342 l 1
 349 306 l 1
 349 94 l 1
 523 94 l 1
 523 0 l 1
 77 0 l 1
EndSplineSet
EndChar

StartChar: OE
Encoding: 234 338 195
Width: 600
Flags: HMW
HStem: 0 91<187 206 206 248 398 535> 0 170<535 610 535 610> 191 187<434 509 434 509> 387 175<535 610 535 535> 471 91<224 256 398 535 398 398>
VStem: -10 94<217.5 333.5 217.5 359.5> 303 95<140 242 332 433 433 451.5> 434 75<191 242 242 242 332 378 191 378> 535 75<91 170 0 170 387 471 471 471>
LayerCount: 2
Fore
SplineSet
303 140 m 2
 303 433 l 2
 303 470 264 471 248 471 c 0
 155 471 84 395 84 272 c 0
 84 163 135 91 239 91 c 0
 257 91 303 93 303 140 c 2
398 91 m 1
 535 91 l 1
 535 170 l 1
 610 170 l 1
 610 0 l 1
 206 0 l 2
 103 0 -10 97 -10 272 c 0
 -10 447 102 562 224 562 c 2
 610 562 l 1
 610 387 l 1
 535 387 l 1
 535 471 l 1
 398 471 l 1
 398 332 l 1
 434 332 l 1
 434 378 l 1
 509 378 l 1
 509 191 l 1
 434 191 l 1
 434 242 l 1
 398 242 l 1
 398 91 l 1
EndSplineSet
EndChar

StartChar: oe
Encoding: 250 339 196
Width: 600
Flags: HMW
HStem: -15 94<131 202 408.5 461.5> 176 95<353 353 353 511 348 604> 359 95<129.5 204 112 211 413.5 468>
VStem: -14 98<196 229 196 281> 250 98<195 271>
LayerCount: 2
Fore
SplineSet
84 213 m 0
 84 179 97 79 165 79 c 0
 246 79 250 177 250 213 c 0
 250 249 247 359 175 359 c 0
 84 359 84 245 84 213 c 0
348 271 m 1
 511 271 l 1
 510 292 502 359 434 359 c 0
 380 359 352 311 348 271 c 1
353 176 m 1
 353 174 l 2
 353 154 367 79 450 79 c 0
 473 79 529 88 591 112 c 1
 615 21 l 1
 560 0 509 -15 452 -15 c 0
 362 -15 333 20 302 53 c 1
 284 30 237 -15 167 -15 c 0
 2 -15 -14 147 -14 213 c 0
 -14 349 46 454 178 454 c 0
 230 454 281 438 314 400 c 1
 347 435 390 454 437 454 c 0
 580 454 622 299 604 176 c 1
 353 176 l 1
EndSplineSet
EndChar

StartChar: Scedilla
Encoding: 331 350 197
Width: 600
Flags: HMW
HStem: -206 21G<277.5 328.5> 27 105<337 337> 252 102 472 110<276 304 229 311>
VStem: 47 108<27 73 183 254> 64 102<391 439 391 475.5> 244 154<-87 -83.5 -124.5 40 -124.5 40> 424 107<371 426 426 426 542 582 371 582> 449 104<180.5 231.5>
LayerCount: 2
Fore
SplineSet
47 27 m 1
 47 254 l 1
 155 254 l 1
 155 183 l 1
 183 172 240 132 317 132 c 0
 377 132 449 160 449 201 c 0
 449 262 345 249 305 252 c 0
 225 258 64 270 64 415 c 0
 64 536 179 582 279 582 c 0
 329 582 383 558 424 542 c 1
 424 582 l 1
 531 582 l 1
 531 371 l 1
 424 371 l 1
 424 426 l 1
 386 448 334 472 288 472 c 0
 264 472 166 465 166 413 c 0
 166 369 242 361 341 354 c 1
 433 357 553 326 553 201 c 0
 553 98 457 32 337 27 c 1
 336 -9 l 1
 388 -21 398 -69 398 -98 c 0
 398 -151 363 -206 294 -206 c 0
 261 -206 231 -193 209 -175 c 1
 238 -121 l 1
 248 -130 267 -138 290 -136 c 0
 304 -135 317 -122 317 -107 c 0
 317 -88 307 -78 289 -78 c 0
 271 -78 254 -85 244 -87 c 1
 244 40 l 1
 212 49 182 62 155 73 c 1
 155 27 l 1
 47 27 l 1
EndSplineSet
EndChar

StartChar: scedilla
Encoding: 332 351 198
Width: 600
Flags: HMW
HStem: -206 21G<278 325.5> -9 88<334 334> 181 86 281 178<414 513 233.5 414> 366 93<276.5 303 233.5 309.5>
VStem: 66 100<-9 29 123 183> 80 86 80 95<298 338.5 298 368.5> 247 143<-106 -103 -137.5 2 -137.5 2> 414 99<281 328 328 328 425 459 281 459> 437 96<120 162.5>
LayerCount: 2
Fore
SplineSet
66 -9 m 1
 66 183 l 1
 166 183 l 1
 166 123 l 1
 192 114 243 79 314 79 c 0
 370 79 437 103 437 137 c 0
 437 188 340 178 304 181 c 0
 230 186 80 195 80 317 c 0
 80 420 187 459 280 459 c 0
 326 459 376 439 414 425 c 1
 414 459 l 1
 513 459 l 1
 513 281 l 1
 414 281 l 1
 414 328 l 1
 379 346 331 366 288 366 c 0
 265 366 175 361 175 316 c 0
 175 280 245 273 337 267 c 1
 422 270 533 243 533 137 c 0
 533 51 444 -4 334 -9 c 1
 333 -40 l 1
 381 -50 390 -91 390 -115 c 0
 390 -160 358 -206 293 -206 c 0
 263 -206 235 -195 215 -180 c 1
 241 -134 l 1
 251 -142 268 -149 289 -147 c 0
 303 -146 314 -135 314 -122 c 0
 314 -107 306 -98 288 -98 c 0
 272 -98 257 -104 247 -106 c 1
 247 2 l 1
 218 9 191 20 166 29 c 1
 166 -9 l 1
 66 -9 l 1
EndSplineSet
EndChar

StartChar: Scaron
Encoding: 333 352 199
Width: 600
Flags: HMW
HStem: -22 91<273.5 355 273.5 369.5> 69 147 475 91<261.5 325.5 224 328.5> 566 43<253 253 253 325.5> 579 43 770 20G<148 148>
VStem: 47 102<-22 13 109 192> 64 85 64 103<339 406 339 425> 428 102<343 448 448 448 542 566 343 566> 452 101<127 172.5>
LayerCount: 2
Fore
SplineSet
253 609 m 1
 82 756 l 1
 148 790 l 1
 305 686 l 1
 466 789 l 1
 529 753 l 1
 359 609 l 1
 253 609 l 1
47 -22 m 1
 47 192 l 1
 149 192 l 1
 149 109 l 1
 194 84 246 69 301 69 c 0
 409 69 452 103 452 151 c 0
 452 194 418 212 362 216 c 0
 244 225 64 231 64 385 c 0
 64 465 145 566 303 566 c 0
 348 566 392 557 428 542 c 1
 428 566 l 1
 530 566 l 1
 530 343 l 1
 428 343 l 1
 428 448 l 1
 392 463 350 475 307 475 c 0
 216 475 167 427 167 385 c 0
 167 293 339 306 395 298 c 0
 476 285 553 243 553 151 c 0
 553 43 438 -22 301 -22 c 0
 220 -22 171 4 149 13 c 1
 149 -22 l 1
 47 -22 l 1
EndSplineSet
EndChar

StartChar: scaron
Encoding: 334 353 200
Width: 600
Flags: HMW
HStem: -17 86<292.5 342 279 378.5> 167 84 251 96 266 173<414 513 233.5 414> 347 92<277 303 233.5 309.5> 425 46
VStem: 66 98<-17 21 110 169> 80 84 80 95<282 321 282 351.5> 414 99<266 311 311 311 406 439 266 439> 438 95<108.5 150>
LayerCount: 2
Fore
SplineSet
66 -17 m 1
 66 169 l 1
 164 169 l 1
 164 110 l 1
 191 101 244 69 314 69 c 0
 370 69 438 92 438 125 c 0
 438 175 340 164 304 167 c 0
 230 173 80 182 80 302 c 0
 80 401 187 439 280 439 c 0
 326 439 375 420 414 406 c 1
 414 439 l 1
 513 439 l 1
 513 266 l 1
 414 266 l 1
 414 311 l 1
 378 328 331 347 288 347 c 0
 266 347 175 342 175 300 c 0
 175 264 246 258 337 251 c 1
 422 254 533 228 533 125 c 0
 533 38 438 -17 319 -17 c 0
 266 -17 210 5 164 21 c 1
 164 -17 l 1
 66 -17 l 1
261 485 m 1
 93 631 l 1
 156 667 l 1
 310 562 l 1
 464 667 l 1
 526 630 l 1
 362 485 l 1
 261 485 l 1
EndSplineSet
EndChar

StartChar: Ydieresis
Encoding: 335 376 201
Width: 600
Flags: HMW
HStem: 0 88 479 93<14 91 14 250 196 196 196 250 349 405 506 506 506 585> 660 129<153 263 153 263 153 333 333 442>
VStem: 14 236<479 572 479 572> 154 112 336 112 349 236<479 572 479 572>
LayerCount: 2
Fore
SplineSet
153 660 m 1
 153 789 l 1
 263 789 l 1
 263 660 l 1
 153 660 l 1
333 660 m 1
 333 789 l 1
 442 789 l 1
 442 660 l 1
 333 660 l 1
127 0 m 1
 127 93 l 1
 251 93 l 1
 251 221 l 1
 91 479 l 1
 14 479 l 1
 14 572 l 1
 250 572 l 1
 250 479 l 1
 196 479 l 1
 300 310 l 1
 405 479 l 1
 349 479 l 1
 349 572 l 1
 585 572 l 1
 585 479 l 1
 506 479 l 1
 346 221 l 1
 346 93 l 1
 468 93 l 1
 468 0 l 1
 127 0 l 1
EndSplineSet
EndChar

StartChar: Zcaron
Encoding: 336 381 202
Width: 600
Flags: HMW
HStem: 0 91<194 440 194 538> 467 90<164 381 164 164> 557 54<248 248 248 349> 770 20G<146 146>
VStem: 66 98<354 467 354 557 354 557> 440 98<91 218 0 218>
LayerCount: 2
Fore
SplineSet
248 611 m 1
 84 756 l 1
 146 790 l 1
 297 687 l 1
 453 789 l 1
 511 753 l 1
 349 611 l 1
 248 611 l 1
61 0 m 1
 61 69 l 1
 381 467 l 1
 164 467 l 1
 164 354 l 1
 66 354 l 1
 66 557 l 1
 515 557 l 1
 515 493 l 1
 194 91 l 1
 440 91 l 1
 440 218 l 1
 538 218 l 1
 538 0 l 1
 61 0 l 1
EndSplineSet
EndChar

StartChar: zcaron
Encoding: 337 382 203
Width: 600
Flags: HMW
HStem: 0 92<233 422 233 519> 247 175<94 193 94 519> 331 91<193 365 193 193> 422 61<256 256 256 357> 647 20G<152 152 458 458>
VStem: 94 99<247 331 247 422 247 422> 422 97<92 186 0 186>
LayerCount: 2
Fore
SplineSet
80 0 m 1
 80 71 l 1
 365 331 l 1
 193 331 l 1
 193 247 l 1
 94 247 l 1
 94 422 l 1
 519 422 l 1
 519 356 l 1
 233 92 l 1
 422 92 l 1
 422 186 l 1
 519 186 l 1
 519 0 l 1
 80 0 l 1
256 483 m 1
 89 630 l 1
 152 667 l 1
 306 561 l 1
 458 667 l 1
 519 629 l 1
 357 483 l 1
 256 483 l 1
EndSplineSet
EndChar

StartChar: florin
Encoding: 166 402 204
Width: 600
Flags: HMW
HStem: -131 94<110 151 110 154> 336 93<187 272 168 289 187 368 384 475> 525 91<493 511.5 493 518>
LayerCount: 2
Fore
SplineSet
25 -31 m 1
 49 -33 98 -37 122 -37 c 0
 180 -37 198 -24 212 54 c 2
 272 336 l 1
 168 336 l 1
 187 429 l 1
 289 429 l 1
 305 571 369 615 493 616 c 0
 530 616 566 611 601 609 c 1
 585 519 l 1
 565 521 534 525 502 525 c 0
 426 525 392 519 384 429 c 1
 493 429 l 1
 475 336 l 1
 368 336 l 1
 298 2 l 2
 278 -101 195 -131 113 -131 c 0
 69 -131 37 -127 -1 -123 c 1
 25 -31 l 1
EndSplineSet
EndChar

StartChar: Gcaron
Encoding: 338 486 205
Width: 600
Flags: HMW
HStem: -18 94<261 343 261 370.5> 76 102<304 304 304 343> 178 95<304 586 304 441 536 536 536 586> 273 70<450 548 450 586 450 586> 489 91<252 332> 580 36<265 265 265 335> 770 20G<170 170 450 450>
VStem: 14 98<210.5 346.5 210.5 364.5> 441 95<89 178 30 178> 450 98<343 437 437 437 533 580 343 580>
LayerCount: 2
Fore
SplineSet
265 616 m 1
 112 755 l 1
 170 790 l 1
 310 681 l 1
 450 790 l 1
 506 754 l 1
 357 616 l 1
 265 616 l 1
304 178 m 1
 304 273 l 1
 586 273 l 1
 586 178 l 1
 536 178 l 1
 536 30 l 1
 477 -1 406 -18 335 -18 c 0
 173 -18 14 66 14 272 c 0
 14 457 140 580 298 580 c 0
 372 580 409 559 450 533 c 1
 450 580 l 1
 548 580 l 1
 548 343 l 1
 450 343 l 1
 450 437 l 1
 399 467 363 489 301 489 c 0
 203 489 112 417 112 276 c 0
 112 145 197 76 325 76 c 0
 361 76 400 79 441 89 c 1
 441 178 l 1
 304 178 l 1
EndSplineSet
EndChar

StartChar: gcaron
Encoding: 339 487 206
Width: 600
Flags: HMW
HStem: -146 89<252 345 249.5 383> 41 88 51 88<227 291.5> 354 89<499 575 499 499> 366 88<225 294.5 196.5 306> 454 39<257 257 257 294.5> 647 20G<162 162 442 442>
VStem: 25 95<212.5 283.5 212.5 305> 407 92<56 61 61 92 92 92 209.5 284> 407 168<209.5 443 414 443 354 443>
LayerCount: 2
Fore
SplineSet
257 493 m 1
 104 632 l 1
 162 667 l 1
 302 558 l 1
 442 667 l 1
 498 631 l 1
 349 493 l 1
 257 493 l 1
120 248 m 0
 120 177 191 139 263 139 c 0
 351 139 407 173 407 246 c 0
 407 322 348 366 264 366 c 0
 186 366 120 319 120 248 c 0
92 -23 m 1
 131 -33 213 -57 286 -57 c 0
 404 -57 407 -2 407 56 c 2
 407 92 l 1
 369 64 318 51 265 51 c 0
 124 51 25 130 25 247 c 0
 25 363 125 454 268 454 c 0
 321 454 370 442 407 414 c 1
 407 443 l 1
 575 443 l 1
 575 354 l 1
 499 354 l 1
 499 61 l 2
 499 -42 477 -146 289 -146 c 0
 215 -146 154 -130 70 -112 c 1
 92 -23 l 1
EndSplineSet
EndChar

StartChar: circumflex
Encoding: 195 710 207
Width: 600
Flags: HMW
HStem: 483 21G<161 161 441 441> 637 20G<255 348 348 348>
LayerCount: 2
Fore
SplineSet
161 483 m 1
 103 517 l 1
 255 657 l 1
 348 657 l 1
 497 516 l 1
 441 483 l 1
 301 593 l 1
 161 483 l 1
EndSplineSet
EndChar

StartChar: caron
Encoding: 207 711 208
Width: 600
Flags: HMW
HStem: 493 21G<256 256 256 348> 647 20G<161 161 441 441>
LayerCount: 2
Fore
SplineSet
256 493 m 1
 103 632 l 1
 161 667 l 1
 301 558 l 1
 441 667 l 1
 497 631 l 1
 348 493 l 1
 256 493 l 1
EndSplineSet
EndChar

StartChar: breve
Encoding: 198 728 209
Width: 600
Flags: HMW
HStem: 468 83<262 340.5 262 380> 468 163<83 380>
LayerCount: 2
Fore
SplineSet
83 631 m 1
 178 631 l 1
 186 594 223 551 301 551 c 0
 380 551 407 591 424 631 c 1
 517 631 l 1
 509 580 459 468 301 468 c 0
 160 468 96 559 83 631 c 1
EndSplineSet
EndChar

StartChar: dotaccent
Encoding: 199 729 210
Width: 600
Flags: HMW
HStem: 485 140<230 370 230 370>
VStem: 230 140<485 625 485 625>
LayerCount: 2
Fore
SplineSet
230 485 m 1
 230 625 l 1
 370 625 l 1
 370 485 l 1
 230 485 l 1
EndSplineSet
EndChar

StartChar: ring
Encoding: 202 730 211
Width: 600
Flags: HMW
HStem: 481 197<271.5 327.5>
VStem: 198 61<568 590.5 568 606> 341 61<568 590.5>
LayerCount: 2
Fore
SplineSet
259 579 m 0
 259 557 277 539 299 539 c 0
 323 539 341 557 341 579 c 0
 341 602 323 620 299 620 c 0
 277 620 259 602 259 579 c 0
198 579 m 0
 198 633 244 678 299 678 c 0
 356 678 402 633 402 579 c 0
 402 526 356 481 299 481 c 0
 244 481 198 526 198 579 c 0
EndSplineSet
EndChar

StartChar: ogonek
Encoding: 206 731 212
Width: 600
Flags: HMW
HStem: -199 199<298 306>
VStem: 201 89<-121 -74.5> 201 189<-134 -83 -159 -74.5>
LayerCount: 2
Fore
SplineSet
298 0 m 2
 399 0 l 1
 373 -15 290 -49 290 -92 c 0
 290 -150 372 -107 390 -83 c 1
 390 -159 l 1
 368 -180 322 -199 290 -199 c 0
 237 -199 201 -157 201 -111 c 0
 201 -38 284 -3 298 0 c 2
EndSplineSet
EndChar

StartChar: tilde
Encoding: 196 732 213
Width: 600
Flags: HMW
VStem: 88 423<518 612>
LayerCount: 2
Fore
SplineSet
88 518 m 1
 104 559 132 633 226 633 c 0
 255 633 284 615 312 599 c 0
 334 587 355 576 374 576 c 0
 403 576 411 597 430 636 c 1
 511 612 l 1
 501 580 470 496 373 496 c 0
 341 496 313 511 288 525 c 0
 265 539 244 552 225 552 c 0
 192 552 182 517 169 493 c 1
 88 518 l 1
EndSplineSet
EndChar

StartChar: hungarumlaut
Encoding: 205 733 214
Width: 600
Flags: HMW
HStem: 486 21G 641 20G<248 248 461 461>
VStem: 40 520<507 631>
LayerCount: 2
Fore
SplineSet
40 507 m 1
 248 661 l 1
 347 631 l 1
 101 486 l 1
 40 507 l 1
255 507 m 1
 461 661 l 1
 560 631 l 1
 316 486 l 1
 255 507 l 1
EndSplineSet
EndChar

StartChar: endash
Encoding: 177 8211 215
Width: 600
Flags: HMW
HStem: 203 100<65 535 65 535>
VStem: 65 470<203 303 203 303>
LayerCount: 2
Fore
SplineSet
65 203 m 1
 65 303 l 1
 535 303 l 1
 535 203 l 1
 65 203 l 1
EndSplineSet
EndChar

StartChar: emdash
Encoding: 208 8212 216
Width: 600
Flags: HMW
HStem: 203 100<-10 610 -10 610>
VStem: -10 620<203 303 203 303>
LayerCount: 2
Fore
SplineSet
-10 203 m 1
 -10 303 l 1
 610 303 l 1
 610 203 l 1
 -10 203 l 1
EndSplineSet
EndChar

StartChar: quoteleft
Encoding: 96 8216 217
Width: 600
Flags: HMW
HStem: 277 21G<307 307 307 425> 546 20G<175 329 329 329>
LayerCount: 2
Fore
SplineSet
307 277 m 1
 175 566 l 1
 329 566 l 1
 425 277 l 1
 307 277 l 1
EndSplineSet
EndChar

StartChar: quoteright
Encoding: 39 8217 218
Width: 600
Flags: HMW
HStem: 277 21G<174 174 174 292> 542 20G<270 426 426 426>
LayerCount: 2
Fore
SplineSet
174 277 m 1
 270 562 l 1
 426 562 l 1
 292 277 l 1
 174 277 l 1
EndSplineSet
EndChar

StartChar: quotesinglbase
Encoding: 184 8218 219
Width: 600
Flags: HMW
HStem: -142 21G<174 174 174 295> 123 20G<271 426 426 426>
LayerCount: 2
Fore
SplineSet
174 -142 m 1
 271 143 l 1
 426 143 l 1
 295 -142 l 1
 174 -142 l 1
EndSplineSet
EndChar

StartChar: quotedblleft
Encoding: 170 8220 220
Width: 600
Flags: HMW
HStem: 277 21G<199 199 199 316 415 415 415 532> 542 20G<68 220 220 220 284 436 436 436>
LayerCount: 2
Fore
SplineSet
199 277 m 1
 68 562 l 1
 220 562 l 1
 316 277 l 1
 199 277 l 1
415 277 m 1
 284 562 l 1
 436 562 l 1
 532 277 l 1
 415 277 l 1
EndSplineSet
EndChar

StartChar: quotedblright
Encoding: 186 8221 221
Width: 600
Flags: HMW
HStem: 277 21G<68 68 68 185 281 281 281 400> 542 20G<165 319 319 319 379 532 532 532>
LayerCount: 2
Fore
SplineSet
68 277 m 1
 165 562 l 1
 319 562 l 1
 185 277 l 1
 68 277 l 1
281 277 m 1
 379 562 l 1
 532 562 l 1
 400 277 l 1
 281 277 l 1
EndSplineSet
EndChar

StartChar: quotedblbase
Encoding: 185 8222 222
Width: 600
Flags: HMW
HStem: -142 21G<68 68 68 185 281 281 281 399> 123 20G<165 319 319 319 378 532 532 532>
LayerCount: 2
Fore
SplineSet
68 -142 m 1
 165 143 l 1
 319 143 l 1
 185 -142 l 1
 68 -142 l 1
281 -142 m 1
 378 143 l 1
 532 143 l 1
 399 -142 l 1
 281 -142 l 1
EndSplineSet
EndChar

StartChar: dagger
Encoding: 178 8224 223
Width: 600
Flags: HMW
HStem: 328 98
VStem: 250 100<-70 335 -70 335 433 570>
LayerCount: 2
Fore
SplineSet
250 -70 m 1
 250 335 l 1
 106 335 l 1
 106 433 l 1
 250 433 l 1
 250 570 l 1
 350 570 l 1
 350 433 l 1
 494 433 l 1
 494 335 l 1
 350 335 l 1
 350 -70 l 1
 250 -70 l 1
EndSplineSet
EndChar

StartChar: daggerdbl
Encoding: 179 8225 224
Width: 600
Flags: HMW
HStem: -70 21G<252 351 252 252> 121 98<106 252 106 252 351 494> 326 98<106 252 106 252 351 494> 560 20G<252 351 351 351>
VStem: 252 99<-70 121 -70 121 219 326 424 580>
LayerCount: 2
Fore
SplineSet
106 121 m 1
 106 219 l 1
 252 219 l 1
 252 326 l 1
 106 326 l 1
 106 424 l 1
 252 424 l 1
 252 580 l 1
 351 580 l 1
 351 424 l 1
 494 424 l 1
 494 326 l 1
 351 326 l 1
 351 219 l 1
 494 219 l 1
 494 121 l 1
 351 121 l 1
 351 -70 l 1
 252 -70 l 1
 252 121 l 1
 106 121 l 1
EndSplineSet
EndChar

StartChar: bullet
Encoding: 183 8226 225
Width: 600
Flags: HMW
HStem: 120 362<250 350>
VStem: 120 360<251 351>
LayerCount: 2
Fore
SplineSet
480 301 m 0
 480 201 400 120 300 120 c 0
 200 120 120 201 120 301 c 0
 120 401 200 482 300 482 c 0
 400 482 480 401 480 301 c 0
EndSplineSet
EndChar

StartChar: ellipsis
Encoding: 188 8230 226
Width: 600
Flags: HMW
HStem: -15 131<73.5 118 279 323.5 485 529.5>
VStem: 26 136<35 64.5> 232 136<35 64.5> 438 136<35 64.5>
CounterMasks: 1 70
LayerCount: 2
Fore
SplineSet
26 50 m 0
 26 79 47 116 95 116 c 0
 141 116 162 85 162 51 c 0
 162 19 140 -15 96 -15 c 0
 51 -15 26 19 26 50 c 0
232 50 m 0
 232 79 253 116 301 116 c 0
 346 116 368 85 368 51 c 0
 368 19 346 -15 302 -15 c 0
 256 -15 232 19 232 50 c 0
438 50 m 0
 438 79 458 116 507 116 c 0
 552 116 574 85 574 51 c 0
 574 19 551 -15 508 -15 c 0
 462 -15 438 19 438 50 c 0
EndSplineSet
EndChar

StartChar: perthousand
Encoding: 189 8240 227
Width: 600
Flags: HMW
HStem: -15 70<221 241 195.5 264.5 557 576> 192 70<195.5 246.5 530.5 582> 340 70<41 61 15.5 84.5> 546 70<15 66.5>
VStem: -113 77<460 495.5 460 513.5> 68 76<106 141.5 106 159.5> 121 76<455 496> 301 77<100.5 142> 402 76<106 141.5 106 159.5> 636 77<100.5 142>
LayerCount: 2
Fore
SplineSet
-55 177 m 1
 -87 241 l 1
 363 430 l 1
 394 367 l 1
 -55 177 l 1
144 124 m 0
 144 88 171 55 220 55 c 0
 262 55 301 77 301 124 c 0
 301 160 272 192 221 192 c 0
 170 192 144 159 144 124 c 0
68 123 m 0
 68 196 131 262 223 262 c 0
 318 262 378 195 378 124 c 0
 378 44 308 -15 221 -15 c 0
 126 -14 68 51 68 123 c 0
-36 478 m 0
 -36 442 -9 410 40 410 c 0
 82 410 121 432 121 478 c 0
 121 514 92 546 41 546 c 0
 -11 546 -36 513 -36 478 c 0
-113 477 m 0
 -113 550 -49 616 43 616 c 0
 138 616 197 549 197 478 c 0
 197 399 128 340 41 340 c 0
 -54 341 -113 405 -113 477 c 0
478 124 m 0
 478 88 505 55 556 55 c 0
 596 55 636 77 636 124 c 0
 636 160 607 192 557 192 c 0
 504 192 478 159 478 124 c 0
402 123 m 0
 402 196 467 262 559 262 c 0
 653 262 713 195 713 124 c 0
 713 44 643 -15 557 -15 c 0
 461 -14 402 51 402 123 c 0
EndSplineSet
EndChar

StartChar: guilsinglleft
Encoding: 172 8249 228
Width: 600
Flags: HMW
HStem: 70 376<408 408>
LayerCount: 2
Fore
SplineSet
141 258 m 1
 408 446 l 1
 457 383 l 1
 274 262 l 1
 457 133 l 1
 408 70 l 1
 141 258 l 1
EndSplineSet
EndChar

StartChar: guilsinglright
Encoding: 173 8250 229
Width: 600
Flags: HMW
HStem: 70 376<190 190>
VStem: 141 316<133 258 258 383>
LayerCount: 2
Fore
SplineSet
190 446 m 1
 457 258 l 1
 190 70 l 1
 141 133 l 1
 324 262 l 1
 141 383 l 1
 190 446 l 1
EndSplineSet
EndChar

StartChar: fraction
Encoding: 164 8260 230
Width: 600
Flags: HMW
HStem: -60 21G<94 94> 641 20G<504 504>
VStem: 24 551
LayerCount: 2
Fore
SplineSet
24 -8 m 1
 504 661 l 1
 575 612 l 1
 94 -60 l 1
 24 -8 l 1
EndSplineSet
EndChar

StartChar: lira
Encoding: 340 8356 231
Width: 600
Flags: HMW
HStem: -28 21G<111 111> 175 73<57 131 57 143 57 131 241 241 241 418> 295 73<57 125 57 126 57 125 222 222 222 418> 519 93
VStem: 123 94<416 431>
LayerCount: 2
Fore
SplineSet
60 36 m 1
 109 63 149 125 143 175 c 1
 57 175 l 1
 57 248 l 1
 131 248 l 1
 129 255 129 273 126 295 c 1
 57 295 l 1
 57 368 l 1
 125 368 l 1
 123 392 123 412 123 420 c 0
 122 515 192 611 327 611 c 0
 453 611 505 530 532 484 c 1
 449 448 l 1
 428 493 381 518 329 518 c 0
 255 518 216 480 217 431 c 0
 217 422 218 397 220 368 c 1
 418 368 l 1
 418 295 l 1
 222 295 l 1
 223 280 227 256 230 248 c 1
 418 248 l 1
 418 175 l 1
 241 175 l 1
 243 154 235 110 208 95 c 1
 223 101 282 106 299 106 c 0
 314 106 346 97 367 90 c 0
 383 84 398 80 408 80 c 0
 444 80 461 105 487 125 c 1
 543 62 l 1
 522 37 493 -13 421 -13 c 0
 401 -13 367 -7 344 0 c 0
 317 8 290 17 268 17 c 0
 220 17 123 -20 111 -28 c 1
 60 36 l 1
EndSplineSet
EndChar

StartChar: Euro
Encoding: 341 8364 232
Width: 600
Flags: HMW
HStem: 0 83 173 74 301 73<18 77 -9 90 196 408> 479 83<330 366>
VStem: 77 99<276 301 276 301> 505 98<352 420 420 420 515 562 352 562>
LayerCount: 2
Fore
SplineSet
-9 184 m 1
 18 258 l 1
 78 258 l 1
 77 283 l 1
 77 301 l 1
 -9 301 l 1
 18 374 l 1
 90 374 l 1
 123 490 234 562 352 562 c 0
 407 562 460 546 505 515 c 1
 505 562 l 1
 603 562 l 1
 603 352 l 1
 505 352 l 1
 505 420 l 1
 470 460 418 478 366 479 c 0
 294 479 220 448 196 374 c 1
 435 374 l 1
 408 301 l 1
 177 301 l 1
 177 294 176 286 176 279 c 0
 176 273 176 264 177 258 c 1
 395 258 l 1
 369 184 l 1
 197 184 l 1
 227 119 298 79 367 78 c 0
 434 78 515 96 553 136 c 1
 609 80 l 1
 537 31 451 0 363 0 c 0
 242 0 126 62 91 184 c 1
 -9 184 l 1
EndSplineSet
EndChar

StartChar: prescription
Encoding: 342 8478 233
Width: 600
Flags: HMW
HStem: -15 93<12 97 12 97 196 276 498 587> 214 93<196 270.5 196 279 196 270.5> 469 93<16 97 16 310 196 287>
VStem: 97 99<78 214 307 469> 427 98<357 434>
LayerCount: 2
Fore
SplineSet
196 307 m 1
 345 307 427 299 427 392 c 0
 427 476 378 469 196 469 c 1
 196 307 l 1
12 -15 m 1
 12 78 l 1
 97 78 l 1
 97 469 l 1
 16 469 l 1
 16 562 l 1
 310 562 l 2
 426 562 525 512 525 393 c 0
 525 321 493 251 387 232 c 1
 433 171 l 1
 480 236 l 1
 551 187 l 1
 486 98 l 1
 498 78 l 1
 587 78 l 1
 587 -15 l 1
 445 -15 l 1
 437 -3 435 0 425 15 c 1
 394 -15 l 1
 324 36 l 1
 372 90 l 1
 350 122 313 168 279 214 c 1
 196 214 l 1
 196 78 l 1
 276 78 l 1
 276 -15 l 1
 12 -15 l 1
EndSplineSet
EndChar

StartChar: trademark
Encoding: 343 8482 234
Width: 600
Flags: HMW
HStem: 230 21G<112 112 112 160 279 279 279 326 396 396 396 456 522 522 522 570> 512 49<29 112 29 242 160 160 160 242>
VStem: 112 48<230 512 230 512> 279 47<230 519 230 562 230 562> 522 48<230 518 518 518>
LayerCount: 2
Fore
SplineSet
112 230 m 1
 112 512 l 1
 29 512 l 1
 29 561 l 1
 242 561 l 1
 242 512 l 1
 160 512 l 1
 160 230 l 1
 112 230 l 1
279 230 m 1
 279 562 l 1
 366 562 l 1
 424 303 l 1
 481 562 l 1
 570 562 l 1
 570 230 l 1
 522 230 l 1
 522 518 l 1
 456 230 l 1
 396 230 l 1
 326 519 l 1
 326 230 l 1
 279 230 l 1
EndSplineSet
EndChar

StartChar: arrowleft
Encoding: 344 8592 235
Width: 600
Flags: HMW
HStem: 258 86<144 629 144 629 139 629>
VStem: -29 658<299 299>
LayerCount: 2
Fore
SplineSet
159 143 m 1
 -29 299 l 1
 156 455 l 1
 207 392 l 1
 144 344 l 1
 629 344 l 1
 629 258 l 1
 139 258 l 1
 209 206 l 1
 159 143 l 1
EndSplineSet
EndChar

StartChar: arrowup
Encoding: 345 8593 236
Width: 600
Flags: HMW
HStem: 3 623<254 299 299 299 299 340>
VStem: 254 86<3 453 453 453>
LayerCount: 2
Fore
SplineSet
254 3 m 1
 254 453 l 1
 207 390 l 1
 144 441 l 1
 299 626 l 1
 456 438 l 1
 392 388 l 1
 340 458 l 1
 340 3 l 1
 254 3 l 1
EndSplineSet
EndChar

StartChar: arrowright
Encoding: 346 8594 237
Width: 600
Flags: HMW
HStem: 258 86<-29 456 -29 456 -29 461>
VStem: -29 658<299 299 299 344 299 344>
LayerCount: 2
Fore
SplineSet
-29 258 m 1
 -29 344 l 1
 456 344 l 1
 393 392 l 1
 444 455 l 1
 629 299 l 1
 441 143 l 1
 391 206 l 1
 461 258 l 1
 -29 258 l 1
EndSplineSet
EndChar

StartChar: arrowdown
Encoding: 347 8595 238
Width: 600
Flags: HMW
HStem: -15 21G<299 299>
VStem: 254 86<158 608 153 608>
LayerCount: 2
Fore
SplineSet
144 170 m 1
 207 221 l 1
 254 158 l 1
 254 608 l 1
 340 608 l 1
 340 153 l 1
 392 223 l 1
 456 173 l 1
 299 -15 l 1
 144 170 l 1
EndSplineSet
EndChar

StartChar: arrowboth
Encoding: 348 8596 239
Width: 600
Flags: HMW
HStem: 258 86<149 451 149 456 144 451>
VStem: -24 648<299 299>
LayerCount: 2
Fore
SplineSet
164 143 m 1
 -24 299 l 1
 161 455 l 1
 212 392 l 1
 149 344 l 1
 451 344 l 1
 388 392 l 1
 439 455 l 1
 624 299 l 1
 436 143 l 1
 386 206 l 1
 456 258 l 1
 144 258 l 1
 214 206 l 1
 164 143 l 1
EndSplineSet
EndChar

StartChar: minus
Encoding: 349 8722 240
Width: 600
Flags: HMW
HStem: 203 110<71 529 71 529>
VStem: 71 458<203 313 203 313>
LayerCount: 2
Fore
SplineSet
71 203 m 1
 71 313 l 1
 529 313 l 1
 529 203 l 1
 71 203 l 1
EndSplineSet
EndChar

StartChar: fi
Encoding: 174 64257 241
Width: 600
Flags: HMW
HStem: 0 90<9 105 9 105 195 291 311 403 495 590> 333 90<9 105 9 105 195 291 321 403> 499 127<403 495 403 495> 582 20G<254 307>
VStem: 105 90<90 333 90 333 423 466 466 475> 321 174<333 423 90 423> 403 92<90 333 333 333 499 626>
LayerCount: 2
Fore
SplineSet
9 0 m 1
 9 90 l 1
 105 90 l 1
 105 333 l 1
 9 333 l 1
 9 423 l 1
 105 423 l 1
 105 466 l 2
 105 603 201 602 307 602 c 1
 304 512 l 1
 279 512 195 516 195 475 c 2
 195 423 l 1
 291 423 l 1
 291 333 l 1
 195 333 l 1
 195 90 l 1
 291 90 l 1
 291 0 l 1
 9 0 l 1
311 0 m 1
 311 90 l 1
 403 90 l 1
 403 333 l 1
 321 333 l 1
 321 423 l 1
 495 423 l 1
 495 90 l 1
 590 90 l 1
 590 0 l 1
 311 0 l 1
403 499 m 1
 403 626 l 1
 495 626 l 1
 495 499 l 1
 403 499 l 1
EndSplineSet
EndChar

StartChar: fl
Encoding: 175 64258 242
Width: 600
Flags: HMW
HStem: 0 93<9 105 9 105 195 289 312 405 495 590> 345 93<9 105 9 105 9 195 195 289> 533 90<279.5 405 279.5 364> 606 20G<364 495 495 495>
VStem: 105 90<93 345 93 345 438 483 483 489> 364 131<533 626 93 626> 405 90<93 533 533 533>
LayerCount: 2
Fore
SplineSet
9 0 m 1
 9 93 l 1
 105 93 l 1
 105 345 l 1
 9 345 l 1
 9 438 l 1
 105 438 l 1
 105 483 l 2
 105 623 226 623 333 623 c 1
 332 532 l 1
 326 534 302 534 276 533 c 0
 238 532 195 521 195 489 c 2
 195 438 l 1
 289 438 l 1
 289 345 l 1
 195 345 l 1
 195 93 l 1
 289 93 l 1
 289 0 l 1
 9 0 l 1
312 0 m 1
 312 93 l 1
 405 93 l 1
 405 533 l 1
 364 533 l 1
 364 626 l 1
 495 626 l 1
 495 93 l 1
 590 93 l 1
 590 0 l 1
 312 0 l 1
EndSplineSet
EndChar
